<svg xmlns="http://www.w3.org/2000/svg" xmlns:xlink="http://www.w3.org/1999/xlink" width="752.29" height="151.4" viewBox="0 0 752.29 151.4">
  <defs>
    <clipPath id="clip-Tomorrow_Logo_black">
      <rect width="752.29" height="151.4"/>
    </clipPath>
  </defs>
  <g id="Tomorrow_Logo_black" clip-path="url(#clip-Tomorrow_Logo_black)">
    <g id="Tomorrow_Logo_black-2" data-name="Tomorrow_Logo_black" transform="translate(-2.6 -0.1)">
      <circle id="Ellipse_1" data-name="Ellipse 1" cx="12.9" cy="12.9" r="12.9" transform="translate(713.6 53.9)"/>
      <path id="Pfad_1" data-name="Pfad 1" d="M90.2,133.8v-.3c-5-10.5-6.5-17-6.5-31.3V18l11,.6c7.8.9,19.6,16.5,28.2,28.9l2.5-.5-5.7-31.9H24.4L18.6,47l2.5.5c8.6-12.4,20.3-28,28-28.9L60.4,18v84.2c0,14.3-1.6,20.8-6.7,31.3v.3Z"/>
      <path id="Pfad_2" data-name="Pfad 2" d="M610,77.4l20.4,57.9h4.4l20.6-54,18.5,54h4.4L699.6,78c4.4-11.3,7.6-16,13.3-22v-.3H694.2V56c2.8,3.6,5.7,12.2,1.3,23.9l-9.9,26.3-9.4-29.4c-3.1-9.7-2.3-17.4.2-20.8v-.3H643.3V56c3.9,3.9,6.5,8.3,10.7,20.9l-11.7,30.3-9.9-30.5c-3.1-9.1-2.1-17.4.3-20.8v-.3H599.1V56c4.1,4.4,6.5,9.3,10.9,21.4"/>
      <path id="Pfad_3" data-name="Pfad 3" d="M562.8,56.5c14.3,0,20.6,17.4,20.6,38.5,0,21.3-6.3,38.3-20.6,38.3-14.4,0-20.4-17-20.4-38.3,0-21.1,6.2-38.5,20.4-38.5m0,79.8c23.4,0,42.5-19.3,42.5-41.4,0-22.2-19.3-41.7-42.5-41.7s-42.5,19.5-42.5,41.7c0,22.1,19,41.4,42.5,41.4"/>
      <path id="Pfad_4" data-name="Pfad 4" d="M469.8,133.9H498v-.3c-3.1-8.3-3.7-16.1-3.7-29.9V75.3c3.1-3.7,6.5-5.8,9.1-5.8,3.9,0,12,3.1,15.4,7h.8l1.5-23.2c-12.2-.5-20.6,11.8-27.3,19h-.2V52.4l-27.7,8.9v.3c4.7,5.7,7.6,12,7.6,23.2v18.8c0,14.3-1.1,21.4-3.7,29.9v.4Z"/>
      <path id="Pfad_5" data-name="Pfad 5" d="M407.8,133.9H436v-.3c-3.1-8.3-3.7-16.1-3.7-29.9V75.3c3.1-3.7,6.5-5.8,9.1-5.8,3.9,0,12,3.1,15.4,7h.8l1.5-23.2c-12.2-.5-20.6,11.8-27.3,19h-.2V52.4l-27.7,8.9v.3c4.7,5.7,7.6,12,7.6,23.2v18.8c0,14.3-1.1,21.4-3.7,29.9v.4Z"/>
      <path id="Pfad_6" data-name="Pfad 6" d="M358.7,56.5c14.3,0,20.6,17.4,20.6,38.5,0,21.3-6.3,38.3-20.6,38.3-14.4,0-20.4-17-20.4-38.3,0-21.1,6.1-38.5,20.4-38.5m0,79.8c23.4,0,42.5-19.3,42.5-41.4,0-22.2-19.3-41.7-42.5-41.7s-42.5,19.5-42.5,41.7c0,22.1,19,41.4,42.5,41.4"/>
      <path id="Pfad_7" data-name="Pfad 7" d="M217.5,133.9v-.3c-3.1-8.3-3.7-16.1-3.7-29.9v-31c3.7-5.8,9.2-8.6,14.9-8.6,8.3,0,10.9,6.2,10.9,13.5v26.3c0,13.3-.6,21.4-3.7,29.7v.3h28.2v-.3c-3.1-8.3-3.9-15.9-3.9-30V72.7a18.111,18.111,0,0,1,15.3-8.6c8.3,0,10.7,6.2,10.7,13.5v26.3c0,13.3-.6,21.4-3.7,29.7v.3h28.2v-.3c-3.1-8.3-3.7-15.9-3.7-30V75c0-13.6-7.5-21.7-21.1-21.7-11.7,0-20,6.7-25.6,15.3H260c-1.9-9.7-8.9-15.3-20.6-15.3S219.3,60,213.9,68.6l-.6-.2v-16l-27.7,8.9v.3c4.7,5.7,7.6,12,7.6,23.2v18.8c0,14.3-1.1,21.4-3.7,29.9v.3h28Z"/>
      <path id="Pfad_8" data-name="Pfad 8" d="M140.1,56.5c14.3,0,20.6,17.4,20.6,38.5,0,21.3-6.3,38.3-20.6,38.3-14.4,0-20.4-17-20.4-38.3-.1-21.1,6.1-38.5,20.4-38.5m0,79.8c23.4,0,42.5-19.3,42.5-41.4,0-22.2-19.3-41.7-42.5-41.7S97.5,72.7,97.5,94.9c0,22.1,19,41.4,42.6,41.4"/>
    </g>
  </g>
</svg>
