<?xml version="1.0" encoding="UTF-8" standalone="no"?><svg xmlns="http://www.w3.org/2000/svg" xmlns:xlink="http://www.w3.org/1999/xlink" contentScriptType="text/ecmascript" fill="#000000" width="424.3" zoomAndPan="magnify" contentStyleType="text/css" viewBox="-0.4 -0.1 424.3 95.8" height="95.8" preserveAspectRatio="xMidYMid meet" version="1"><g><g fill="#f2ff93" id="change1_1" fill-rule="evenodd"><path d="m -1531.2548,-1490.0689 c -1.1283,1.2333 0.08,0.6918 -1.8972,1.1832 0.4993,1.6243 0.5392,0.7019 0.719,2.1357 -0.6391,-0.4412 1.1982,-1.0428 -0.689,-0.06 -2.4663,1.2935 0.5891,-2.4867 -0.2296,0.2607 -0.3096,1.0729 0,0.3008 0.4393,1.2233 -3.0055,-0.08 -0.8487,-1.6344 -3.4848,-0.6919 -1.2081,0.4312 -0.9385,0.01 -0.8786,1.1632 0.1298,2.5869 0.4094,0.3308 0.5791,0 l 0.01,1.4338 c -1.1483,0.5214 -2.9855,4.8731 -2.3664,5.6953 -1.6775,-0.6317 -0.6491,-0.6718 -2.3665,0 v 2.3664 c 2.5662,0.9525 1.2781,0.5414 1.8872,-0.4713 0.02,4.5622 0.5691,3.5395 -2.8258,3.3189 -0.05,1.3536 -0.2196,1.504 0.07,2.4666 0.3795,1.2333 1.6376,1.2534 -2.4363,1.3336 -0.3395,1.8349 0,2.3463 0,4.9834 l 3.7843,1.1832 c -1.2481,-2.1358 -1.348,-0.2708 -1.4179,-0.2407 0.5892,2.958 1.3879,2.4466 1.9771,4.0108 l 0.2596,1.1029 c 0.03,0.08 0.08,0.2206 0.1098,0.3109 1.4778,4.1912 0.2896,1.8449 0.01,6.2066 2.656,-0.1704 1.947,-0.9325 3.1852,0.9727 0.5591,0.8523 0.1597,1.0929 2.1767,1.7647 0.4992,0.1604 0.3894,0.09 0.7888,0.1103 -1.0984,2.9279 -0.4393,1.4539 0.8787,2.4566 0.3894,0.3008 0.3395,-0.2206 1.2581,1.0528 1.4877,2.0756 0.6889,4.3016 0.6889,4.3116 -0.08,0.742 -0.9385,1.1531 1.8972,1.6745 l 0.4693,-2.3764 c 0,0 0.3095,1.9252 1.4178,0 l 1.8972,1.8951 c -0.709,0.1203 -0.7389,-0.1704 -0.8388,0.732 -0.2197,1.9953 1.4079,-2.0856 0.3395,1.113 -0.4793,1.4639 0.3195,0.02 -0.4493,0.5314 0.7588,0.8623 0.2696,0.4913 1.308,1.1531 2.017,1.2834 -0.5691,-0.351 1.1383,0.4311 1.318,0.6017 0.7089,-0.2707 0.8587,1.7347 h 1.4179 c 0.4792,-1.7547 2.3764,-1.5542 4.0938,-0.7119 l 2.4163,2.6772 c 0.2996,0.391 0.2497,0.06 0.5791,0.8823 1.1883,-1.3235 1.6476,-1.7146 3.7943,-0.6417 3.5546,1.7647 1.5577,2.4767 3.0554,2.7875 3.1353,2.2861 0.09,1.4639 3.0953,1.1731 1.5078,-0.1504 0.669,0.1204 1.8373,0.361 l 0.5791,0.08 c 3.3649,0.4813 2.9456,1.6444 4.7628,1.494 l 1.4278,-0.6216 c 1.2681,-0.7621 0.3895,-0.6317 2.007,-1.0729 0.04,0.09 -0.639,2.5268 4.2536,0.4813 0.4893,-0.6518 -0.1598,-0.9626 0.4893,-1.6645 0.7289,-0.7821 2.3664,0.03 3.6045,-0.04 l 0.7888,-0.1103 c 0.1,-0.01 0.8188,0.01 0.8987,-0.02 0.8387,-0.3309 0.2496,0.9726 0.5991,-0.7821 0.2296,0.03 2.3963,0.4713 2.4063,0.4713 l 1.5477,1.1029 c 0.06,-0.1002 0.1897,0.2306 0.2995,0.3309 1.0584,-2.2661 0.02,-1.1832 2.047,-1.3436 l 6.9295,-0.08 c -2.1767,0.7921 -0.7988,0.1203 -0.4693,1.4238 6.2206,-2.1959 -1.7374,-0.4311 6.62,-1.4238 -0.5192,0.8122 -0.9585,-1.504 0.01,0.6417 0.06,0.1504 0.1797,0.8423 1.5077,1.3136 1.3679,0.5013 2.1468,-0.1304 2.7359,-1.0128 l 0.8986,0.8724 c 0.03,0.02 0.1398,0.06 0.1698,0.07 l 2.7059,0.4813 c -0.06,-0.08 -1.4878,0.5414 0.1098,-0.9927 0.03,-0.03 0.1498,-0.1003 0.1897,-0.1303 0.02,-0.01 0.4094,-0.1504 0.7789,-0.3309 1.4478,-0.6818 -0.1498,0.401 0.8187,-0.4412 l 1.8872,2.3764 c 0.3295,-0.05 1.9171,-0.1906 1.977,-0.2006 l 3.2451,-1.5441 c 0.07,-0.04 0.2796,-0.03 0.3295,-0.1905 0.1997,-0.5916 3.1253,0.1203 3.5147,0.1403 1.0784,0.07 0.5192,-0.1704 1.7773,0.2507 0.01,0 0.669,0.2808 0.6989,0.2908 l 2.9855,0.2908 c 3.1153,-0.732 1.8872,0 4.4134,0.4813 2.3864,0.4412 0.4094,-1.0829 3.265,0.9525 1.4978,-2.246 3.5547,-1.7246 6.1707,-1.6344 l 7.2691,0.1505 c 1.4078,0.2607 3.8541,-0.5415 7.269,-0.09 0.04,0 0.1697,0.01 0.2097,0.01 0.04,0.01 0.1597,0.01 0.1897,0.01 0.04,0 0.1597,0 0.1897,0.01 l 2.3065,0.1103 c 0.9785,-0.1404 0.8487,-1.6144 0.9785,0.9625 h 1.4079 c 0.01,-2.4967 -0.08,-0.9625 1.0584,-0.9425 0.06,0 0.2097,0 0.2696,0 2.3265,0.02 2.5561,0.9425 2.9256,-0.9626 0.3894,2.3062 1.0384,1.0127 1.2082,0.9826 1.6475,-0.3008 -1.3979,-0.5013 1.6375,-0.5013 0.2995,1.5843 -0.09,0.5214 0.9386,1.4238 0.8088,-1.2132 0.609,-1.4037 1.6974,-0.5915 l 0.669,0.5915 c 0.1098,-0.2506 0.4294,-0.9726 0.4993,-1.0428 0.03,-0.03 0.1397,-0.1203 0.1797,-0.1404 0.9685,-0.6116 2.7458,-0.02 3.3949,0.09 l 4.9325,0.1204 c 1.6375,0.2306 1.9271,-0.5014 3.5546,-0.2708 0.7789,0.1204 0.8288,0.2106 0.8288,0.2106 0.06,0.01 0.2097,0.04 0.2696,0.05 h 0.5192 c 0.6091,-0.03 2.2466,-0.4211 3.305,0.5014 l 0.639,-0.4212 c 1.7973,-1.1831 -0.619,-0.7119 1.0485,-0.4913 l 1.6475,0.7119 c 0.08,-0.1303 0.2895,0.1604 0.4493,0.2006 1.0584,-1.5943 0.8587,-1.093 1.7773,-1.1632 2.1667,-0.1604 0.7289,0.9325 1.997,-1.2032 0.04,0.3409 -0.1,0.381 0.2796,0.7621 0.04,0.03 0.1498,0.1403 0.1897,0.1704 0.05,0.02 0.1897,0.09 0.2396,0.1003 2.2466,0.4311 1.2581,-0.2808 1.6575,-1.0328 h 0.9486 c -0.3994,0.5415 -1.2881,-1.1932 -0.02,0.8022 0.4393,0.6918 -0.9286,0.4712 0.689,0.391 1.957,-0.1103 0.8787,1.123 1.2181,-1.1932 3.7843,1.8349 8.637,1.6945 12.9006,1.5341 0.1,-0.01 0.2496,-0.02 0.3494,-0.02 l 0.669,-0.04 c 1.1083,0.07 1.0684,-0.9926 1.2082,1.3737 l 1.4179,-0.2406 c 0.1198,-2.0155 -0.2197,-0.9225 0.7688,-1.093 1.9271,-0.3409 4.0139,0.3911 5.3719,1.093 0.2097,-2.3864 0.1098,-0.3008 0.5292,-1.6445 0.3694,-1.1931 0.1797,-0.9124 0.1797,-0.9625 1.7773,1.1531 0.7189,-0.2708 1.1782,1.4238 h 1.8972 c 0.2596,-1.103 0.06,-1.0228 0.9386,-1.4238 v 1.4238 c 2.0968,0 4.8926,-0.05 6.5002,-0.1404 7.1492,-0.4412 5.4617,0.7119 7.9579,0.8724 2.1967,0.1504 0.8088,-1.2935 3.7244,-0.8323 1.7374,0.2808 1.0884,-0.391 1.1982,1.5241 l 1.4179,-0.2406 c 0.1797,-2.3965 3.8342,-1.2133 6.9894,-1.464 l 4.3534,-0.6718 c 0.6391,1.113 -0.669,1.7848 2.0569,1.7146 1.5177,-0.05 0.9885,-0.6417 2.4863,-0.01 1.6375,0.7019 -0.3994,0.5916 1.7074,0.3911 l 5.1922,-0.3008 c 1.977,-0.01 -0.2497,-0.2607 1.5776,0.09 3.4448,0.6617 2.7958,-0.3811 4.3834,-0.5014 0.03,0 0.1497,0.01 0.1797,0.01 l 1.6475,-0.03 c 0.04,0.01 0.1697,0.01 0.2097,0.02 0.01,0 0.8387,0.4813 1.1582,0.7019 1.1882,0.8022 0.2596,-0.01 1.1383,0.762 l 1.5577,-1.3135 c 0.6889,-0.5013 0.2196,-0.4612 1.278,-0.5815 -0.2696,0.3609 -1.1482,-0.732 -0.05,1.0528 0.669,1.0829 0.649,0.4913 1.0684,0.5414 0.5092,0.06 2.0369,-0.2807 3.2651,-0.06 1.1582,0.2106 1.6575,0.7822 2.9755,0.5515 l 3.275,-0.5715 c 1.8772,0.1003 4.004,0.7219 5.9311,0.4713 l 1.8073,-0.2306 c 0.9186,-0.1805 -0.6191,-0.01 0.9984,-0.2507 1.378,-0.2006 2.1867,0.07 3.2651,0.07 1.308,-0.01 -0.1498,0.07 1.4378,-0.1805 2.9556,-0.4813 0.3995,0.8021 3.9241,0.2005 1.8672,-0.3208 2.2766,-0.6016 4.0639,-0.1604 0.1098,0.03 0.4693,0.1404 0.5991,0.1604 l 5.6614,0.4312 c 1.368,-0.1203 1.7374,-0.04 2.656,0.3409 0.4993,-0.8924 1.2381,1.2935 0.2397,-1.4238 l 5.961,0.1705 c 0.08,-0.02 0.2296,-0.06 0.3095,-0.08 l 1.7873,-0.04 c 0.08,0.01 0.2297,0.06 0.3095,0.07 1.4578,0.2506 0.6291,0.01 1.6475,0.1504 l 3.4748,0.2506 c 2.4663,0.08 4.663,0.2908 7.0294,-0.7018 0.1098,-0.05 0.2197,-0.1103 0.3195,-0.1505 2.0868,-0.8522 3.954,-0.6116 6.1008,-0.6116 0.4393,2.4065 -0.639,0.7219 1.4179,1.4238 l 1.0783,-1.2834 c 0.669,-0.5816 0.2297,-0.4913 1.2881,-0.6217 0.2796,1.8349 1.6175,1.7447 2.8756,1.9051 2.037,0.2507 1.8273,0.1103 3.2651,1.4239 0.1298,-2.216 0.4094,-1.4339 3.4947,-1.5342 1.2481,-0.04 0.9087,-0.1103 1.6675,0.02 2.0369,0.3209 -0.01,0.2607 1.7074,0.351 1.0185,0.06 2.0869,-0.1204 3.8642,-0.07 2.676,0.09 3.994,-0.4412 7.4987,-0.2407 1.0784,0.07 1.2082,0.1404 2.2366,-0.1704 0.1398,-0.04 0.2496,-0.1003 0.3794,-0.1504 3.4349,-1.3236 1.0584,0.1403 5.4718,-0.1504 l 2.9156,-0.1203 c 0.04,0 0.1697,0.01 0.2097,0.02 l 2.0169,0.03 c 0.1198,-0.02 0.2696,-0.04 0.3894,-0.07 2.5262,-0.5014 4.1138,-0.5114 6.8397,-1.8951 0.4493,-0.2407 -0.679,0.1403 0.679,-0.2307 l 6.7498,-3.0281 c 1.6076,-0.742 1.1782,-1.5541 3.1053,-1.6845 0.1198,-0.01 0.3195,-0.02 0.4194,-0.03 0.1198,0 0.7588,-0.06 0.9186,-0.07 v -2.8476 c -0.8587,0.1504 -2.4364,0.5414 -2.1568,0.02 0.4094,-0.742 0.3195,0.01 1.0185,-0.2006 1.2381,-0.371 2.1068,-1.6845 2.5362,-2.8677 l 0.02,-2.1658 c 2.2666,-0.2106 2.0769,-1.9151 3.7044,-2.3363 0.3196,-0.09 1.6176,-0.04 1.9671,-0.04 -3.1153,-3.4492 -0.3096,-3.9807 -0.8587,-7.099 -0.1997,-1.103 -1.308,-0.9225 0.5391,-2.6672 0.8887,-0.8423 1.6276,-0.8623 2.4963,-2.3363 0.8986,-1.514 0.4393,-1.7747 1.5477,-3.1885 1.5276,-1.9453 1.2181,0.2607 1.328,-2.7474 l 0.03,-1.1531 c 0.01,-0.05 0.05,-0.1805 0.07,-0.2407 l 0.9885,-4.3015 c 0.649,1.7146 0.2396,1.6544 0.9586,0.04 l -0.679,-10.5884 c -0.2097,-1.3838 -0.3495,-2.1859 -1.8972,-2.6772 l -1.2381,-0.1003 c -0.8287,0.09 0.1298,0.6117 -1.4179,0.2908 -0.5591,-0.1103 -0.4493,0.9526 -0.4493,-0.7219 h 2.8358 c -0.6391,-3.1886 -0.669,-1.4941 -1.7574,-1.4941 l -2.1068,0.371 c -1.8572,0.9225 -2.007,-0.2306 -4.1637,-0.772 2.8656,-0.2206 0.9985,-0.4212 1.0684,-1.0729 l -0.1598,-1.7347 c 0,-0.06 0.02,-0.2005 0.02,-0.2607 -0.01,-0.07 0,-0.2206 -0.01,-0.2908 l -0.8887,-1.6243 c -0.03,-0.03 -0.2196,-0.02 -0.2496,-0.1304 -0.2396,-1.0428 -1.6974,0.8523 -1.8273,0.9325 -1.1083,0.7019 -0.6489,-1.2233 -0.6689,-2.637 0,-0.1304 0,-0.2808 0,-0.4011 0,-0.03 -0.1199,-1.2935 -0.1199,-1.3236 -1.917,0.1203 -1.4677,0.3109 -2.8357,0.4713 l 0.4693,-1.8951 c -0.1198,-0.03 -0.2895,-0.07 -0.3494,-0.07 l -0.5892,0.02 c -1.1382,0.2908 0.02,-0.3309 -0.4792,0.5214 0.05,-1.6945 0.5891,-2.2059 -0.4693,-3.3189 -0.699,1.6544 -0.1997,1.2835 -0.5592,2.968 -0.3195,1.494 -0.2097,0.5314 -0.8587,1.7747 0.04,-1.6945 0.5791,-2.2059 -0.4793,-3.3189 -0.5591,0.8523 -0.8986,1.474 -1.4178,2.3664 l -1.0085,-0.5114 c -2.3664,-1.3436 -1.8572,-1.4439 -3.6745,-1.7748 -2.1367,-0.391 -1.7972,-0.9024 -2.2665,-1.7547 -0.4793,-0.8623 -0.2696,-0.9726 -1.5577,-1.1731 0.3794,-3.1886 0.5592,-0.2206 1.8971,-2.8477 -1.7074,-0.7319 -3.5746,-1.7647 -5.6714,-1.9051 -0.619,2.2761 -3.325,1.504 -6.1507,1.4238 3.8043,-0.01 1.3879,0.04 2.3664,-0.9425 -1.4678,-0.9927 -1.2481,-0.3509 -0.8487,-1.6043 l -5.292,-0.7721 c -0.04,2.1057 0.1797,1.1732 -0.4693,1.8951 l 0.4194,0.6417 c 0.609,1.0027 -0.05,1.6745 -0.4294,1.7347 -0.4094,-0.6417 1.1982,0.2808 -0.4593,-0.371 l -4.4133,0.3409 c -0.07,0.01 -0.2097,0.04 -0.2696,0.05 -0.5991,0.08 -0.3195,0.4111 -1.1383,-0.02 -0.6989,-0.381 -0.8787,-0.8222 -1.2781,-1.4238 l -0.8387,0.391 c -0.8287,0.341 -2.1667,0.6518 -3.1452,0.2708 l -0.5991,-0.3911 c -0.9985,-0.7119 -0.5392,-0.7721 -2.027,-1.2233 -0.9286,2.1658 -0.3794,2.5469 -2.8457,1.9051 0.4394,-0.8222 -0.1198,0.09 0.8188,-0.6116 l 1.0784,-0.8122 c -2.656,-0.03 -1.5577,0.3309 -1.8972,-0.9525 -1.1283,1.123 -0.9386,-1.6645 -0.9386,1.895 l -0.8786,-0.371 c -1.0185,-0.9726 -0.2896,-1.4739 -0.8787,-2.7573 -0.9885,-2.1358 -1.5377,-0.5315 -1.6575,-0.5114 -1.4378,0.3008 -1.4279,0.3208 -3.2052,0.3208 0.9586,2.8677 -0.1597,-0.6016 0.2497,1.494 0.2795,1.4339 0.8287,1.6645 1.1682,2.3062 -0.6191,0.361 -1.1782,0.6618 -1.8872,0.9426 -0.5491,-0.9726 -0.4792,-1.2434 -0.4792,-2.8477 h -1.4079 v 2.3764 c -1.0684,-2.216 -0.1897,-0.5515 -1.3879,-1.4038 l -0.9785,1.4038 c 0.1996,-1.7346 0.4592,-2.8276 0,-4.2715 h -1.6575 l -0.4893,2.5469 c -0.1,1.3536 -0.03,0.2707 -0.2197,2.1959 -1.0085,-1.9051 -0.5292,-0.1504 -0.609,-1.855 -0.1298,-2.8176 0.9785,-1.1932 -1.0385,-2.4165 -0.5592,1.0127 -0.2396,2.1859 -0.2396,3.3289 -0.5492,-1.4639 0.6091,-0.2707 -0.5592,-0.4612 -0.8088,-0.1203 -1.2182,-0.4612 -1.8072,1.8851 l -0.4693,-4.2815 c 0.7688,0.5514 -1.3181,0.8021 0.669,0.1905 1.6674,-0.5114 0.2396,1.3737 0.2695,-0.6618 -2.4962,-1.2534 0.679,-0.1404 -1.6774,-0.4512 -0.3795,-0.05 -1.2481,-0.02 -1.6276,-0.02 0.05,0.1404 0.1897,0.2908 0.2497,0.381 0.05,0.08 0.1597,0.2507 0.2296,0.351 0.7489,1.1831 0.7489,1.875 0.9386,3.5395 -1.0285,-0.3911 -0.06,-0.3009 -1.8971,-0.5014 l 1.4278,-0.4512 v -1.8951 c -2.2366,-0.1103 -0.8787,-1.0528 -1.8372,-2.4165 l -0.9985,-0.9024 c -0.3894,0.9225 -0.4793,1.5141 -0.9486,2.3664 -0.7888,-0.6819 -1.4877,-0.722 -2.8357,-0.9426 0.06,0.1404 0.1598,0.3008 0.1997,0.4011 l 0.7489,2.4466 c -1.3081,0.3309 -0.9386,0.6216 -1.9371,0.3309 -0.699,-0.2106 -0.09,-0.01 -0.7289,-0.5014 l -1.2481,-0.8623 c -0.06,-0.03 -0.1997,-0.05 -0.2497,-0.08 -0.7289,-0.3409 -0.9885,-0.09 -1.0384,-2.6872 -0.1298,0.09 -0.5092,0.3509 -0.5991,0.4111 l -2.9855,1.0929 c -0.8387,0.2306 0.6391,0.2206 -1.6076,0.3911 0.09,0.3409 0.3895,1.5441 0.4893,1.7447 0.5791,1.2232 -0.2596,0.4411 0.9286,1.1029 v 0.9526 c -0.9086,-0.4913 -2.1767,-2.0054 -1.4179,0.4712 -1.8871,-0.9124 -1.7473,-1.4839 -2.2166,-2.8877 -0.7888,-2.3664 0.03,-0.742 -1.0983,-1.855 -0.3795,1.2133 0,2.0355 0,4.2715 -0.3096,-1.7748 -0.06,-0.1605 -0.1698,-1.7246 -0.1098,-1.6445 -0.1498,-0.6618 -0.2995,-2.3063 l -2.8358,-0.4812 c -0.06,0.1504 -0.1298,0.5214 -0.1298,0.6317 0.09,1.123 0.1898,1.1029 1.0784,1.504 h -0.4793 c -0.1597,0.742 -0.2196,1.5141 -0.6789,1.9051 -1.0285,0.8723 0.1298,-0.2908 -1.8872,0.04 l -2.1567,0.4312 c 1.2381,-2.3163 0.5392,1.504 0.9485,-2.3764 -0.1497,0.06 -0.609,0.3409 -0.7089,0.381 -2.1368,0.7821 0.4094,0.6417 -0.8887,0.05 l -1.2381,-0.9024 c 1.0285,0.05 0.9186,0.2306 2.3565,0.4713 v -1.4239 c -2.8557,-0.6116 -4.7229,0.2306 -7.0893,-1.4238 0.05,2.4466 -0.5392,2.617 1.8971,2.8477 h -0.4793 c -0.03,1.5942 0.1398,2.0956 -0.679,2.0555 -0.04,0 -0.1697,-0.04 -0.2096,-0.05 l -1.8972,-0.6317 c -2.0069,-1.123 -0.629,-0.4211 -0.7488,-0.8724 -0.04,-0.1303 -0.1997,-1.7447 -0.2397,-2.3964 l -5.4118,-0.4412 c -0.9286,-0.1704 -1.2481,0.2607 -1.6775,1.3837 1.4678,0.1204 1.3879,-0.1403 1.8872,0.9526 l -3.1053,-2.0856 c -0.03,-0.1504 -0.1298,-0.1905 -0.1997,-0.2808 l -1.5377,0.2006 c -0.8288,0.5815 -0.4893,1.0628 -1.7773,1.6945 l -1.8872,-0.9525 c 0.1198,1.875 0.2097,0.752 0.3794,1.504 0.03,0.1404 0.1698,0.5214 0.1698,0.6117 -0.01,0.3308 1.3979,0.2607 -1.0185,0.2607 v 1.4238 l -1.2181,-1.0528 c -0.5891,-0.4914 -0.1498,-0.6719 -0.7289,-1.6745 -0.4893,-0.8323 -0.8787,-0.1003 -1.8373,-1.5442 h -3.7743 c 0.9586,2.7073 1.8473,-0.381 1.8872,3.3189 1.947,-0.03 1.4378,0.06 2.8357,-0.4712 l -1.0085,1.0327 c -0.07,0.01 -0.7788,-0.1303 -0.8886,-0.1504 -4.9526,-0.8122 -3.7643,1.6043 -3.7743,0.5415 -1.2082,-0.3109 -0.9187,0.8222 -0.9486,-1.4238 1.3779,0.1604 0.9286,0.3509 2.8357,0.4712 v -1.8951 h -2.3664 c 1.4578,-0.8122 0.9086,-0.7019 0.9486,-2.8476 -5.5017,0.7219 1.8871,1.2734 -3.305,1.4238 -0.4793,-0.8523 -0.4494,-0.9325 -0.4793,-2.3764 l -1.328,0.9526 c -0.7988,0.8523 -1.7574,1.9953 -1.4978,2.8476 h -0.4792 c -0.1498,-2.9379 -4.9825,-3.6097 -6.64,-2.7574 -1.308,0.6718 -1.5676,0.1905 -2.5861,0.2106 -2.2666,0.05 -0.1598,0.09 -1.2082,0.2607 l -1.5876,-0.351 c -3.5846,-1.0628 -1.338,-0.2005 -2.0369,0.1103 l -1.5377,0.3911 1.4179,4.0308 -1.4079,-0.09 c -1.997,0.4512 0.8787,0.4011 -1.2681,0.4111 -0.9785,0.01 -1.0884,-0.6919 -2.0469,-1.2634 0.8887,-1.5642 -1.0584,1.6244 0.7289,-0.752 0.3495,-0.4612 0.2296,0.1705 0.689,-1.1531 -1.9671,-0.5014 -1.1283,-0.9024 -3.0754,-1.8951 l -1.298,1.0227 c -0.5692,0.4713 1.0683,0.4011 -0.8288,0.4011 0.4793,-0.9224 -0.8287,-1.0428 -1.0284,-1.0628 -4.5032,-0.3309 1.4478,0.7319 -1.4479,0.04 -0.1098,-0.03 -1.0184,-0.351 -1.3579,-0.4613 l -2.027,-0.5414 c -1.4278,-0.02 -0.3294,0 -0.7888,0.1504 -0.05,0.02 -0.1797,0.07 -0.2196,0.1002 -0.05,0.02 -0.1698,0.08 -0.2097,0.1103 l -0.3694,0.2407 c -2.2267,1.5341 0.9186,-0.4412 -0.5193,0.4211 -1.318,0.7821 -3.2151,-1.504 -3.3749,-2.7975 0.8288,2.4867 1.4179,0.9726 1.4179,-0.9425 -2.9655,-1.2133 -2.666,1.6344 -6.61,0 0.2296,1.4138 0.4693,1.6845 0.4693,3.3189 -0.8687,-1.5642 -0.2796,-0.8122 -2.3665,-0.9526 v 1.9052 c -0.06,-1.2735 -0.2396,-1.2735 -0.4693,-2.3764 l -1.8272,1.1631 c -0.1098,0.04 -1.2381,0.03 -1.3779,0 -1.9571,-0.5214 2.4363,0.6618 -1.4478,-0.8222 l -0.8687,-0.2306 c -0.709,-0.1805 -0.05,-0.09 -1.0984,-0.1103 -0.2496,1.2032 -0.3395,1.0127 -0.4693,2.3764 -1.2581,-0.6618 -0.8986,-2.948 -1.4178,0.9425 h 1.4178 v 1.4238 c 0,0 -0.4093,-0.06 -0.4792,-0.06 l -0.9386,0.3008 c -0.4094,-0.9926 -0.4693,-1.9953 -0.4693,-3.5596 -0.1,0.09 -0.2097,0.2507 -0.2696,0.3109 -0.05,0.05 -0.1897,0.2106 -0.2496,0.2707 l -1.8472,0.8423 c 0.9685,-2.988 0.2296,-1.133 -1.0684,-1.6444 -1.6875,-0.6518 -0.1298,0.4913 -0.8188,-1.6745 -1.7473,0.6818 -1.5277,-0.4713 -0.9486,1.4238 l -0.9984,-0.9626 c -0.03,-0.05 -0.07,-0.1805 -0.09,-0.2306 l -1.7474,-2.1357 c -1.3979,1.6243 -1.4877,1.8349 -1.1682,4.0408 0.1498,1.0629 -0.09,0.3409 0.2197,1.1832 h -0.9386 c 0.619,-2.0455 1.0184,-1.4239 -1.8972,-1.4239 0.5392,-1.3937 0.4394,-0.8923 0.4793,-2.8476 l -2.8157,1.4238 -0.02,-2.3763 -1.8472,0.8422 c -1.5776,0.8824 -2.6161,1.2835 -2.8757,2.9579 h -1.4278 c -0.5392,-0.8723 0.4992,-1.875 -1.5077,-0.1905 -0.8288,0.6919 -0.5692,0.6217 -0.8487,1.6144 h -0.4793 c -0.1798,-1.9252 -0.3195,-0.8724 -0.4693,-2.8477 l -1.4179,1.4238 c 0.1,-0.1203 0.2596,-0.3509 0.2896,-0.411 0.4892,-1.0829 -0.1398,0.8121 0.1797,-1.0128 -4.663,0.3008 -0.09,1.1632 -3.7743,1.4238 0.1498,2.3263 -0.639,1.7648 1.4179,2.3664 -0.3795,0.9626 -0.4993,2.5067 -0.9486,1.4339 -1.6076,-0.3911 -1.8372,-1.1932 -2.3465,-2.0556 -1.0883,-1.8248 -1.7673,-0.8021 -1.9071,-3.1685 -2.0569,0.04 -1.8272,0.2607 -3.3349,0.2808 -1.9671,0.02 -1.358,-1.5743 -1.8572,1.143 -1.7973,-0.05 -1.5577,-0.4712 -3.7843,-0.4712 0.4093,-1.2133 1.1083,-0.1805 -0.2397,-1.4238 -1.5776,0.3509 -1.4178,0.07 -2.1268,1.4238 l 0.7689,-3.4292 c 0.03,-0.1905 0.1198,-0.2407 0.1797,-0.371 -5.6814,0.6016 -1.2281,1.3937 -2.3664,1.8951 v 0.9525 c -1.9171,0.1805 -0.8587,0.3008 -2.3664,0.4713 -0.3894,-0.6618 -0.1298,-1.2133 -0.4693,-2.8476 -0.1398,0.06 -0.2996,0.1704 -0.4094,0.2205 -3.0354,1.4038 -1.9371,0.04 -3.8442,-0.6918 -0.7289,3.0081 -3.6345,-0.8022 -4.2536,2.8476 -2.5761,-0.1303 -1.0883,-1.0829 -3.305,0 0.1697,-1.4438 0.4493,-1.2533 1.4179,-1.8951 -0.1199,-0.1203 -0.2896,-0.2005 -0.3994,-0.2707 l -2.4364,-0.9225 c 1.2382,1.2334 0.4594,0.5816 -0.4693,1.6645 -0.3894,-0.2005 -0.8886,-2.1558 -3.0454,0.1504 -0.05,0.05 -0.1397,0.1705 -0.1897,0.2206 -1.7773,2.2962 0.1099,1.3938 -3.3849,1.0528 0.8188,-2.2059 0.8488,-2.1959 -1.8871,-2.3763 l -0.9486,2.3763 c 0.5991,-0.3509 0.5093,0.4212 0.5292,-0.752 0,-0.05 -0.01,-0.1905 -0.03,-0.2506 -0.4993,-2.1358 -0.7888,-1.1933 -1.4478,-1.845 -1.0385,1.5742 -0.659,0.5013 -1.4678,1.3837 l -0.4793,0.5515 c -1.6775,2.4666 0.03,-0.3811 -0.6191,1.6043 -0.3095,0.9526 0.699,0.7319 -0.7389,0.7319 l -1.0484,-0.4612 c -0.04,0 -0.1597,-0.02 -0.1997,-0.02 l -0.4593,-0.07 c -0.06,-0.01 -0.1997,-0.04 -0.2596,-0.05 -0.07,-0.01 -0.2097,-0.03 -0.2895,-0.05 l -4.9426,-1.4138 c -0.06,-0.2105 -0.2296,-0.2105 -0.3595,-0.3108 -1.6175,2.4365 -1.4578,-0.742 -2.3664,2.3764 h -0.9485 c 1.4278,-0.4813 0.5192,0.02 0.9485,-1.4238 -2.2965,-0.5014 -1.4678,0.1303 -1.8871,-1.4239 l -2.4164,1.3737 c -0.5092,0.3008 -1.0084,0.6117 -1.3679,1.0027 0.2796,-0.7119 0.7988,-1.2834 0.9386,-1.5241 1.1982,-2.0956 0.4892,-0.8422 0.01,-1.3235 -0.4393,-0.4412 0.689,-1.113 -1.2281,0.06 l -2.0868,1.3636 c -0.1598,-1.7848 -0.01,-0.8322 -0.4693,-1.9051 -2.3365,0.3911 -2.706,1.0027 -4.653,0.7921 -0.1498,-0.01 -0.5991,-0.05 -0.7389,-0.06 -1.5676,-0.2005 -0.1997,0.09 -1.0684,-0.2306 -0.8886,-0.3309 0.5192,-0.02 -0.659,-0.3309 -0.06,-0.02 -0.1997,-0.05 -0.2696,-0.06 l -1.7274,-0.04 c -0.7788,-0.06 -0.1098,-0.1504 -1.5277,-0.2206 -0.3894,-0.02 -1.0983,0.08 -1.6375,0.1505 -1.0784,4.1611 1.4778,0.1604 -0.03,1.6745 -0.1897,0.1905 -1.4079,0.5314 -1.8672,0.7018 -0.1498,-1.5742 -0.1598,-0.9726 -0.4693,-2.1357 -1.358,1.0929 -0.4793,-0.3409 -0.7888,1.3336 -0.4194,2.1859 -0.2896,0.08 0.3195,0.8021 -1.2082,-0.5815 -1.6375,-1.2233 -2.3664,0 -0.01,-1.7346 -0.01,-1.2533 -0.4793,-2.3763 l -1.997,0.2907 c -0.08,-0.1203 -0.2396,0.1304 -0.3594,0.1905 0.01,0.742 -0.01,0.6718 0.9485,0.712 -0.2097,2.1959 -0.3095,0.2907 -0.9485,2.6069 -0.1698,-0.9726 -0.04,-0.6517 -0.719,-0.8923 -1.9171,-0.6819 -2.0668,0.4612 -2.596,-1.484 -0.1199,0.1203 -0.2596,0.2707 -0.3395,0.3609 l -1.0784,1.0629 c -0.3095,-3.3691 0.03,-0.7621 -1.2781,-1.9452 -0.8886,-0.7922 -0.2097,-0.8122 -1.318,-1.2534 -2.1268,0.9626 -0.5292,-0.4011 -1.1782,2.2561 -0.4493,-2.6772 -2.1767,-0.722 -2.2865,-0.9225 -0.05,-0.1003 -0.1998,0.1604 -0.3196,0.2106 -1.0184,-0.732 -0.6091,0.5314 -0.7089,-1.4239 h -1.4079 c 0.4893,2.4165 0.3894,1.093 -1.0584,1.9352 -1.4178,0.8222 -0.03,0.03 -0.8387,0.6718 l -0.2297,-1.4238 c -0.8986,0.4713 -0.9885,0.9225 -1.1882,0.4713 -1.8572,-0.4512 -1.3779,-0.1705 -1.4178,-2.3664 -2.6061,0.1605 -3.5447,1.3035 -3.7743,3.7902 h -0.9486 c -0.639,-2.5569 -1.4278,-1.8851 -2.8357,-1.4238 -0.5392,-2.0956 -1.318,-2.2461 -3.305,-2.8477 0.5092,1.5442 0.3095,0.5415 0.5292,1.6444 0.2396,1.1732 0.1797,0.8122 -0.3196,1.855 -0.1897,0.4011 0.5792,0.2106 -0.2196,0.3008 -0.4094,-0.8823 0.2097,-0.7018 -1.2581,-1.4739 -0.709,-0.381 -0.709,-0.08 -1.4678,-0.2106 -1.0484,-0.2005 -2.1967,-1.0829 -2.9456,0.2607 0.1598,-1.2834 0.2996,-1.6043 1.4279,-2.3764 -2.3764,0.1504 -1.7574,-0.4311 -3.5047,0.742 -2.3465,1.5843 -0.709,1.2033 -2.8557,1.0428 l -1.4378,0.01 c -0.1,0 -0.2397,-0.01 -0.3395,-0.01 -0.1,-0.01 -0.2397,-0.02 -0.3295,-0.02 -1.4479,-0.09 -0.8687,-0.371 -2.4064,0.1404 0.7089,-2.1859 -0.3095,-2.1257 -2.3664,-2.8476 0.2995,1.8148 -0.05,0.7219 0.5791,1.7346 0.5592,0.9125 -0.2796,0.1203 0.8387,0.6317 -2.0469,0.01 -4.0439,0.7219 -5.7413,1.3937 l -1.8173,1.454 c -0.6789,-1.1632 -1.288,-0.8022 -2.8357,-0.4713 l 0.709,1.0428 c 0.9585,1.5441 -0.2796,-0.4111 -0.2397,1.3336 1.1682,0.3309 1.8472,0.04 2.8357,-0.4813 -2.4762,2.3262 -2.0269,1.8349 -4.7228,0.9525 -2.3864,2.1659 -2.9556,1.1933 -5.2022,1.8951 -0.03,0.1103 -0.09,0.2708 -0.09,0.3309 l -0.06,0.5916 c -0.01,0.08 0.1,0.361 0.1497,0.5013 l -4.7229,-1.4238 c -1.2281,0.8323 -0.2995,0.8523 -1.4178,2.3764 -1.3779,-0.4512 -0.6191,-0.4211 -2.1667,-0.01 -0.8587,0.2306 -0.6291,0.2106 -1.2182,0.4312 l -0.8887,0.3509 c -0.09,-0.1303 -0.2995,0.1304 -0.4493,0.1705 0.1598,1.7146 0.5392,0.9826 -0.1398,1.3035 -1.4777,0.6918 -0.599,1.0127 -2.0968,1.4138 l -3.2052,0.6116 -0.4094,1.5241 c 0.05,1.5542 -1.0184,0.9526 1.1284,1.3236 -0.4893,1.0027 -0.1398,0.05 -0.4494,0.9726 l -1.4478,2.3463 c 2.5462,0.1905 2.8158,0.4813 0,0.4813 -0.1597,-2.8076 -0.3195,-1.6244 0.4693,-4.2715 -0.9585,0.06 -1.9371,0.1604 -2.1767,0.2206 -1.2082,0.2807 -1.6775,2.3062 -2.3065,3.0983 z" transform="translate(1546.889 1515)"/><path d="m -1176.8099,-1423.3899 0.1497,0.1404 c -0.01,-0.01 -0.1897,-0.09 -0.1497,-0.1404 z m -34.0187,-0.4712 0.1398,0.1404 c -0.01,-0.01 -0.1897,-0.1003 -0.1398,-0.1404 z m -42.5357,0 0.1397,0.1404 c -0.01,-0.01 -0.1897,-0.1003 -0.1397,-0.1404 z m -45.8409,0 c 0,-1.2133 0.7389,-0.08 0.2796,0 -0.01,0 -0.2796,1.3235 -0.2796,0 z m 94.0481,-0.4813 c 0.09,-0.09 1.977,-0.09 0.9785,0.6618 -0.4992,0.391 -1.2581,-0.3811 -0.9785,-0.6618 z m -2.8358,0.9525 -1.0484,-0.8522 c 1.328,0.2306 0.6291,-0.2708 1.0484,0.8522 z m -7.0893,-0.9525 c 0.4993,-0.5014 1.7874,0.752 0.5193,0.2507 -0.01,-0.01 -1.318,0.5514 -0.5193,-0.2507 z m -72.7801,0 z m -28.3572,-0.9425 c 0.4993,-0.5114 1.7873,0.752 0.5193,0.2406 -0.01,0 -1.3181,0.5515 -0.5193,-0.2406 z m 160.6775,-0.9526 0.1398,0.1404 c 0,-0.01 -0.1798,-0.09 -0.1398,-0.1404 z m 0.4792,-0.9526 c 0.4993,-0.5013 1.7873,0.7521 0.5193,0.2507 -0.01,-0.01 -1.3181,0.5515 -0.5193,-0.2507 z m 8.0279,-5.214 0.1398,0.1404 c -0.01,-0.01 -0.1797,-0.1002 -0.1398,-0.1404 z m 5.2022,-4.7527 0.1398,0.1403 c -0.01,0 -0.1898,-0.09 -0.1398,-0.1403 z m 6.1407,-8.543 z m 0,0 c -1.0185,-0.7019 -0.6191,-0.07 -0.9386,-1.4238 h 1.8872 v 0.9526 z m 2.3664,-4.7427 0.1398,0.1404 c -0.01,-0.01 -0.1897,-0.09 -0.1398,-0.1404 z m -0.9485,0 0.1398,0.1404 c -0.01,-0.01 -0.1798,-0.09 -0.1398,-0.1404 z m -1.8872,0 c 0,-1.2132 0.7489,-0.08 0.2796,0 0,0 -0.2796,1.3235 -0.2796,0 z m 3.305,-8.5429 c 0.5092,-0.5014 1.7973,0.752 0.5292,0.2506 -0.01,-0.01 -1.318,0.5415 -0.5292,-0.2506 z m 0.4793,-11.8619 c -0.3095,1.1531 0.2097,0.6417 -0.9486,0.9426 -1.1083,-1.0529 -1.3879,-0.1404 -0.4593,-1.0328 1.0385,-0.9927 0.4593,-0.351 1.4079,0.09 z m 0.4693,0 h -0.4693 z m 0,-1.4238 -0.9186,0.5414 c 0.3794,-1.4438 -0.2297,-0.9926 0.9186,-0.5414 z m -408.8029,-6.1666 c -1.2181,0.1504 -0.1397,-1.6043 -0.01,-0.5916 0,0.01 0.01,0.1204 0.01,0.1304 0,0.05 0.3995,0.4111 0,0.4612 z m 408.3336,-3.8002 c 0.7089,0.2306 1.8272,-0.09 0.2496,0.7019 -0.8188,0.4111 -1.6275,0.2507 -2.616,0.2507 z m -400.775,-6.6478 z m 1.8972,-1.1832 -1.8872,0.2807 -0.01,-0.9926 c 1.2881,0.3108 0.5592,0.08 1.8972,0.7119 z m 393.6756,-1.6645 c 0,-1.2132 0.7489,-0.07 0.2796,0 0,0 -0.2796,1.3236 -0.2796,0 z m -395.5728,0 1.0185,0.2607 z m 0,0 c -2.0269,-1.0729 -0.8587,0.1304 -1.4178,-1.4238 1.288,-0.6116 2.3364,-0.8723 3.315,-0.4713 -0.4793,1.1832 -0.1199,0.2607 -0.8887,1.0128 -0.5591,0.5314 0.02,-0.5215 -1.0085,0.8823 z m 390.85,-5.214 c 0,-1.2132 0.7488,-0.08 0.2796,0 -0.01,0 -0.2796,1.3236 -0.2796,0 z m 1.4178,-0.9525 0.1398,0.1403 c -0.01,-0.01 -0.1897,-0.09 -0.1398,-0.1403 z m -2.3664,-1.8951 c 0.1,0 0.2197,0.1003 0.2197,0.2005 v 0 c -0.02,-0.02 -0.3195,-0.2005 -0.2197,-0.2005 z m -373.3563,-2.3764 c 0,-1.2133 0.7488,-0.08 0.2796,0 0,0 -0.2796,1.3236 -0.2796,0 z m -3.305,0 0.1397,0.1404 c -0.01,-0.01 -0.1897,-0.09 -0.1397,-0.1404 z m -2.8358,1.4238 c 0.4693,-1.2935 -0.03,-0.9726 1.8872,-1.4238 -1.348,2.5669 0.3195,0.5013 -1.8872,1.4238 z m 8.5072,-2.8476 0.1398,0.1404 c -0.01,-0.01 -0.1897,-0.09 -0.1398,-0.1404 z m -3.315,0 c 0,-1.2935 1.6974,0 0.4293,0.03 -0.4792,0.01 -0.4293,1.0528 -0.4293,-0.03 z m 8.9864,-0.9526 0.1398,0.1404 c -0.01,-0.01 -0.1897,-0.09 -0.1398,-0.1404 z m -7.5685,0 z m 3.3149,-1.8951 z m 328.4542,-0.4712 c 0,-1.2133 0.7488,-0.08 0.2796,0 0,0 -0.2796,1.3235 -0.2796,0 z m 9.925,-0.9526 c 0,-1.2133 0.7489,-0.08 0.2796,0 0,0 -0.2796,1.3236 -0.2796,0 z m -5.2021,0 0.1497,0.1404 c -0.01,-0.01 -0.1897,-0.09 -0.1497,-0.1404 z m -15.1172,0 c 0,-1.2133 0.7489,-0.08 0.2796,0 -0.01,0 -0.2796,1.3236 -0.2796,0 z m -6.1408,-0.4713 0.1398,0.1404 c -0.01,-0.01 -0.1897,-0.1003 -0.1398,-0.1404 z m 28.3473,-0.4812 0.1497,0.1403 c -0.01,-0.01 -0.1897,-0.09 -0.1497,-0.1403 z m -16.5351,0 0.1398,0.1403 c -0.01,-0.01 -0.1897,-0.09 -0.1398,-0.1403 z m -27.4086,0 0.1398,0.1403 c -0.01,-0.01 -0.1897,-0.09 -0.1398,-0.1403 z m -285.459,0 0.1397,0.1403 c 0,-0.01 -0.1797,-0.09 -0.1397,-0.1403 z m 287.8154,-0.9426 -0.2596,1.0127 z m -24.1036,0.4713 0.1398,0.1403 c 0,-0.01 -0.1797,-0.09 -0.1398,-0.1403 z m -8.0279,0 z m -19.3807,0 z m -27.4086,0 0.1398,0.1403 c -0.01,-0.01 -0.1897,-0.09 -0.1398,-0.1403 z m 63.8037,-0.4713 z m -60.0194,0 z m -213.6175,-0.4813 c 0,-1.2132 0.7488,-0.07 0.2796,0 -0.01,0 -0.2796,1.3236 -0.2796,0 z m -0.9486,0 0.1398,0.1404 c -0.01,-0.01 -0.1897,-0.09 -0.1398,-0.1404 z m 170.6124,-0.4712 0.1398,0.1403 c -0.01,-0.01 -0.1897,-0.09 -0.1398,-0.1403 z m -25.5214,0 c 0.04,-0.05 0.1397,0.07 0.1397,0.1403 v 0 c -0.01,-0.01 -0.1897,-0.09 -0.1397,-0.1403 z m -101.6166,0 c 0,-1.2133 0.7488,-0.08 0.2895,0 -0.01,0 -0.2895,1.3235 -0.2895,0 z m 94.5273,-0.4713 0.1398,0.1404 c -0.01,-0.01 -0.1898,-0.1003 -0.1398,-0.1404 z m -9.4558,-0.4813 -0.9186,0.5515 z m -4.7228,0 0.1398,0.1404 c -0.01,0 -0.1898,-0.09 -0.1398,-0.1404 z m -15.5965,0 0.1398,0.1404 c -0.01,0 -0.1897,-0.09 -0.1398,-0.1404 z m -27.8879,0 z m -22.2065,-0.4713 c 0,-1.2132 0.7489,-0.08 0.2796,0 -0.01,0 -0.2796,1.3236 -0.2796,0 z m -15.1271,-0.4712 -0.2596,1.0127 z m 13.7093,0 c 0.4992,-0.5114 1.7873,0.752 0.5292,0.2406 -0.02,0 -1.318,0.5515 -0.5292,-0.2406 z m -15.5965,0 z m -4.2535,0 c 0.4992,-0.5114 1.7872,0.752 0.5292,0.2406 -0.02,0 -1.3181,0.5515 -0.5292,-0.2406 z m -30.2444,0 z m 16.5351,-0.4813 -0.8488,1.0428 c 0.2297,-1.3236 -0.2696,-0.6217 0.8488,-1.0428 z m -16.5351,0.4813 c -1.997,-0.2206 -1.3679,0.7219 -1.4179,-1.9052 -2.626,0.06 -1.1882,-0.09 -2.1268,0.722 -0.3494,0.3108 -2.4163,2.6772 -4.1237,2.7875 -1.0484,0.07 -0.1798,0.2105 -0.8388,-0.1805 -2.2765,0.8222 0.3795,0.1203 -1.8971,0.9425 0.2896,1.2534 0.4294,1.3938 0.9486,2.3764 -2.1168,-0.7721 0.2396,0.1003 -1.1383,-0.752 -0.7389,-0.4512 -0.2097,-0.4011 -1.2281,-0.6718 -0.2996,1.3135 -0.2197,1.0729 -0.9386,1.8951 v -1.8951 c -0.8887,0.2105 -1.2581,0.06 -1.4479,0.9926 -0.3394,1.6445 -0.3294,-0.5213 0.2097,0.5014 1.0984,2.0856 0.9087,-1.6043 0.2896,0.4011 -0.2696,0.1303 -0.8188,0.3308 -0.9985,0.4211 -0.8787,0.4512 -0.4393,0.2106 -0.8887,0.5314 l -1.4178,-0.9525 c 0,1.3536 -0.04,1.2634 -0.7489,1.9753 -1.4478,1.4438 -0.2796,-1.7347 -1.1482,0.8723 l -0.5392,-0.9225 c -1.0684,0 -1.0984,0.1304 -1.1882,0.2006 -1.7973,1.2834 1.0484,-1.0729 -0.1997,0.6216 -1.1982,1.6144 -3.1952,-0.7219 -5.1922,2.9179 -0.669,1.2132 0.3395,0.2607 -0.9086,1.4539 -1.6775,-0.6016 -0.8088,-1.0027 -2.3665,-1.4239 1.5177,3.1786 0.9386,3.4894 0,3.8003 -0.1597,-1.8951 -0.1897,-1.5442 -1.4178,-2.3764 -0.7788,1.6344 -0.06,1.5943 0.2696,2.0555 2.1867,3.0783 -0.3894,-1.865 0.679,0.7921 -1.1783,0.4913 -0.689,-0.1504 -2.2067,0.6317 -1.4978,0.7821 -1.358,0.9626 -2.5262,1.7447 v -1.4238 l -1.4179,0.9525 c -0.5092,0.1505 -1.5676,-0.4812 0.4793,0.9426 -2.8057,0.06 -2.9156,0.8623 -2.8656,3.0883 0,0.2105 0.06,0.2406 0.02,0.4111 -0.2197,1.0929 -2.1967,1.5842 -2.3964,2.7674 l 0.5093,1.3336 c -1.5078,-0.3209 -0.7289,-0.4813 -1.8872,0 0.1997,2.3463 0.9885,1.3536 -0.1298,2.6571 -1.4578,1.6845 -0.9985,-1.6845 -1.2881,1.6143 -1.3179,-0.8923 -1.4378,-0.752 -2.8357,-1.4238 -2.616,3.9206 -1.4977,1.3437 -2.8357,7.1192 1.358,0.7118 1.7873,1.7747 3.7843,0.9425 0,1.0127 0.02,0.8222 -0.2097,1.7246 -0.2995,1.1932 -0.669,0.9225 -0.7389,3.9707 -1.8572,0.04 -1.1083,-0.1304 -2.3664,0.4713 -0.2197,2.7373 -0.5791,0.6517 0.09,3.2186 0.01,0.04 0.3594,1.484 0.3694,1.5441 0.5092,1.7046 -0.7888,0.5716 0.7289,1.4138 0,-2.6371 -0.3395,-3.1484 0,-4.9834 4.0739,-0.08 2.8158,-0.1002 2.4363,-1.3335 -0.2895,-0.9626 -0.1198,-1.113 -0.07,-2.4667 3.3949,0.2206 2.8457,1.2434 2.8258,-3.3189 -0.6091,1.0127 0.679,1.4239 -1.8872,0.4713 v -2.3664 c 1.7174,-0.6718 0.689,-0.6317 2.3665,0 -0.6191,-0.8222 1.2181,-5.1739 2.3664,-5.6953 l -0.01,-1.4338 c -0.1697,0.3309 -0.4493,2.5869 -0.5791,0 -0.06,-1.1531 -0.3295,-0.732 0.8786,-1.1631 2.6361,-0.9426 0.4793,0.6116 3.4848,0.6918 -0.4393,-0.9224 -0.7489,-0.1504 -0.4393,-1.2232 0.8187,-2.7474 -2.2367,1.0327 0.2296,-0.2608 1.8872,-0.9826 0.05,-0.381 0.689,0.06 -0.1798,-1.4338 -0.2197,-0.5113 -0.719,-2.1357 1.9771,-0.4913 0.7689,0.05 1.8972,-1.1832 0.629,-0.7921 1.0983,-2.8175 2.3065,-3.0983 0.2396,-0.06 1.2182,-0.1604 2.1767,-0.2206 -0.7888,2.6471 -0.629,1.464 -0.4693,4.2715 2.8158,0 2.5462,-0.2908 0,-0.4813 l 1.4478,-2.3463 c 0.3096,-0.9225 -0.04,0.03 0.4494,-0.9726 -2.1468,-0.371 -1.0784,0.2306 -1.1284,-1.3236 l 0.4094,-1.5241 3.2052,-0.6116 c 1.4978,-0.4011 0.6191,-0.7219 2.0968,-1.4138 0.679,-0.3209 0.2996,0.4111 0.1398,-1.3035 0.1498,-0.04 0.3595,-0.3008 0.4493,-0.1705 l 0.8887,-0.3509 c 0.5891,-0.2206 0.3595,-0.2005 1.2182,-0.4311 1.5476,-0.4112 0.7888,-0.4412 2.1667,0.01 1.1183,-1.5242 0.1897,-1.5442 1.4178,-2.3764 l 4.7229,1.4238 c -0.05,-0.1404 -0.1597,-0.4211 -0.1497,-0.5014 l 0.06,-0.5915 c 0,-0.06 0.06,-0.2207 0.09,-0.3309 2.2466,-0.7019 2.8158,0.2707 5.2022,-1.8951 2.6959,0.8824 2.2466,1.3737 4.7228,-0.9526 -0.9885,0.5214 -1.6675,0.8122 -2.8357,0.4813 -0.04,-1.7447 1.1982,0.2106 0.2397,-1.3336 l -0.709,-1.0428 c 1.5477,-0.3309 2.1568,-0.6918 2.8357,0.4713 l 1.8173,-1.4539 c 1.6974,-0.6718 3.6944,-1.3837 5.7413,-1.3937 -1.1183,-0.5114 -0.2795,0.2807 -0.8387,-0.6318 -0.629,-1.0127 -0.2796,0.08 -0.5791,-1.7346 2.0569,0.7219 3.0753,0.6618 2.3664,2.8476 1.5377,-0.5113 0.9585,-0.2306 2.4064,-0.1403 0.09,0 0.2296,0.01 0.3295,0.02 0.1,0 0.2396,0.01 0.3395,0.01 l 1.4378,-0.01 c 2.1467,0.1604 0.5092,0.5414 2.8557,-1.0428 1.7473,-1.1732 1.1283,-0.5916 3.5047,-0.742 -1.1283,0.772 -1.2681,1.0929 -1.4279,2.3763 0.7489,-1.3436 1.8972,-0.4612 2.9456,-0.2606 0.7588,0.1303 0.7588,-0.1705 1.4678,0.2105 1.4678,0.7721 0.8487,0.5916 1.2581,1.474 0.7988,-0.09 0.03,0.1002 0.2196,-0.3009 0.4993,-1.0427 0.5592,-0.6818 0.3196,-1.8549 -0.2197,-1.103 -0.02,-0.1003 -0.5292,-1.6444 1.987,0.6016 2.7658,0.752 3.305,2.8476 1.4079,-0.4612 2.1967,-1.133 2.8357,1.4238 h 0.9486 c 0.2296,-2.4866 1.1682,-3.6297 3.7743,-3.7902 0.04,2.196 -0.4394,1.9152 1.4178,2.3664 0.1997,0.4512 0.2896,0 1.1882,-0.4713 l 0.2297,1.4239 c 0.8088,-0.6418 -0.5791,0.1504 0.8387,-0.6718 1.4478,-0.8423 1.5477,0.4812 1.0584,-1.9352 h 1.4079 c 0.1,1.9552 -0.3095,0.6918 0.7089,1.4238 0.1198,-0.05 0.2696,-0.3108 0.3196,-0.2106 0.1098,0.2006 1.8372,-1.7547 2.2865,0.9225 0.649,-2.6571 -0.9486,-1.2935 1.1782,-2.2561 1.1083,0.4412 0.4294,0.4613 1.318,1.2534 1.308,1.1832 0.9686,-1.4238 1.2781,1.9452 l 1.0784,-1.0628 c 0.08,-0.09 0.2196,-0.2407 0.3395,-0.361 0.5292,1.9452 0.6789,0.8022 2.596,1.484 0.679,0.2406 0.5492,-0.08 0.719,0.8924 0.639,-2.3162 0.7388,-0.4111 0.9485,-2.607 -0.9585,-0.04 -0.9386,0.03 -0.9485,-0.7119 0.1198,-0.06 0.2795,-0.3109 0.3594,-0.1905 l 1.997,-0.2908 c 0.4693,1.123 0.4693,0.6417 0.4793,2.3764 0.7289,-1.2233 1.1582,-0.5816 2.3664,0 -0.6091,-0.722 -0.7389,1.3837 -0.3195,-0.8022 0.3095,-1.6745 -0.5692,-0.2406 0.7888,-1.3336 0.3095,1.1631 0.3195,0.5615 0.4693,2.1358 0.4593,-0.1705 1.6775,-0.5114 1.8672,-0.7019 1.5077,-1.5141 -1.0485,2.4866 0.03,-1.6745 0.5392,-0.07 1.2481,-0.1705 1.6375,-0.1504 1.4179,0.07 0.7489,0.1604 1.5277,0.2206 l 1.7274,0.04 c 0.07,0.01 0.2097,0.04 0.2696,0.06 1.1782,0.3108 -0.2296,0 0.659,0.3309 0.8687,0.3208 -0.4992,0.03 1.0684,0.2306 0.1398,0.01 0.5891,0.05 0.7389,0.06 1.947,0.2105 2.3165,-0.4011 4.653,-0.7921 0.4593,1.0728 0.3095,0.1203 0.4693,1.9051 l 2.0868,-1.3637 c 1.9171,-1.1732 0.7888,-0.5014 1.2281,-0.06 0.4793,0.4813 1.1883,-0.7721 -0.01,1.3236 -0.1398,0.2406 -0.659,0.8121 -0.9386,1.5241 0.3595,-0.3911 0.8587,-0.7019 1.3679,-1.0027 l 2.4164,-1.3737 c 0.4193,1.5541 -0.4094,0.9224 1.8871,1.4238 -0.4293,1.4439 0.4793,0.9425 -0.9485,1.4238 h 0.9485 c 0.9086,-3.1183 0.7489,0.06 2.3664,-2.3764 0.1299,0.1003 0.2996,0.1003 0.3595,0.3109 l 4.9426,1.4138 c 0.08,0.02 0.2196,0.04 0.2895,0.05 0.06,0.01 0.1997,0.04 0.2596,0.05 l 0.4593,0.07 c 0.04,0 0.1598,0.02 0.1997,0.02 l 1.0484,0.4612 c 1.4379,0 0.4294,0.2206 0.7389,-0.732 0.6491,-1.9853 -1.0584,0.8623 0.6191,-1.6043 l 0.4793,-0.5515 c 0.8088,-0.8823 0.4293,0.1905 1.4678,-1.3837 0.659,0.6518 0.9485,-0.2908 1.4478,1.845 0.02,0.06 0.03,0.2005 0.03,0.2506 -0.02,1.1732 0.07,0.4011 -0.5292,0.7521 l 0.9486,-2.3764 c 2.7359,0.1805 2.7059,0.1704 1.8871,2.3764 3.4948,0.3409 1.6076,1.2433 3.3849,-1.0529 0.05,-0.05 0.1398,-0.1704 0.1897,-0.2206 2.1568,-2.3062 2.656,-0.3509 3.0454,-0.1504 0.9287,-1.0829 1.7075,-0.4311 0.4693,-1.6644 l 2.4364,0.9224 c 0.1098,0.07 0.2795,0.1505 0.3994,0.2708 -0.9686,0.6417 -1.2482,0.4512 -1.4179,1.8951 2.2167,-1.0829 0.7289,-0.1304 3.305,0 0.6191,-3.6498 3.5247,0.1604 4.2536,-2.8477 1.9071,0.732 0.8088,2.0956 3.8442,0.6919 0.1098,-0.05 0.2696,-0.1605 0.4094,-0.2206 0.3395,1.6344 0.08,2.1858 0.4693,2.8476 1.5077,-0.1704 0.4493,-0.2908 2.3664,-0.4712 v -0.9526 c 1.1383,-0.5013 -3.315,-1.2935 2.3664,-1.8951 -0.06,0.1304 -0.1497,0.1805 -0.1797,0.371 l -0.7689,3.4292 c 0.709,-1.3536 0.5492,-1.0729 2.1268,-1.4238 1.348,1.2433 0.649,0.2106 0.2397,1.4238 2.2266,0 1.987,0.4212 3.7843,0.4713 0.4992,-2.7173 -0.1099,-1.123 1.8572,-1.1431 1.5077,-0.02 1.278,-0.2406 3.3349,-0.2807 0.1398,2.3663 0.8188,1.3436 1.9071,3.1685 0.5093,0.8623 0.7389,1.6644 2.3465,2.0555 0.4493,1.0729 0.5691,-0.4713 0.9486,-1.4339 -2.0569,-0.6016 -1.2681,-0.04 -1.4179,-2.3663 3.6844,-0.2607 -0.8887,-1.123 3.7743,-1.4238 -0.3195,1.8249 0.3095,-0.07 -0.1797,1.0127 -0.03,0.06 -0.1897,0.2908 -0.2896,0.4111 l 1.4179,-1.4238 c 0.1498,1.9753 0.2895,0.9224 0.4693,2.8476 h 0.4793 c 0.2795,-0.9927 0.02,-0.9225 0.8487,-1.6143 2.0069,-1.6845 0.9685,-0.6819 1.5077,0.1905 h 1.4278 c 0.2596,-1.6745 1.2981,-2.0756 2.8757,-2.958 l 1.8472,-0.8422 0.02,2.3764 2.8157,-1.4239 c -0.04,1.9553 0.06,1.454 -0.4793,2.8477 2.9156,0 2.5162,-0.6217 1.8972,1.4238 h 0.9386 c -0.3096,-0.8422 -0.07,-0.1203 -0.2197,-1.1832 -0.3195,-2.2059 -0.2297,-2.4165 1.1682,-4.0408 l 1.7474,2.1357 c 0.02,0.05 0.06,0.1805 0.09,0.2306 l 0.9984,0.9626 c -0.5791,-1.8951 -0.7987,-0.742 0.9486,-1.4238 0.689,2.1658 -0.8687,1.0227 0.8188,1.6745 1.298,0.5114 2.0369,-1.3436 1.0684,1.6444 l 1.8472,-0.8422 c 0.06,-0.06 0.1997,-0.2207 0.2496,-0.2708 0.06,-0.06 0.1697,-0.2206 0.2696,-0.3108 0,1.5642 0.06,2.5669 0.4693,3.5595 l 0.9386,-0.3008 c 0.07,0 0.4792,0.06 0.4792,0.06 v -1.4238 h -1.4178 c 0.5192,-3.8904 0.1597,-1.6043 1.4178,-0.9425 0.1298,-1.3637 0.2197,-1.1732 0.4693,-2.3764 1.0485,0.02 0.3894,-0.07 1.0984,0.1103 l 0.8687,0.2306 c 3.8841,1.484 -0.5093,0.3008 1.4478,0.8222 0.1398,0.03 1.2681,0.04 1.3779,0 l 1.8272,-1.1631 c 0.2297,1.103 0.4094,1.103 0.4693,2.3764 v -1.9051 c 2.0869,0.1404 1.4978,-0.6117 2.3665,0.9525 0,-1.6344 -0.2397,-1.9051 -0.4693,-3.3189 3.944,1.6344 3.6445,-1.2132 6.61,0 0,1.9152 -0.5891,3.4292 -1.4179,0.9425 0.1598,1.2935 2.0569,3.5797 3.3749,2.7976 1.4379,-0.8623 -1.7074,1.113 0.5193,-0.4212 l 0.3694,-0.2406 c 0.04,-0.03 0.1598,-0.09 0.2097,-0.1103 0.04,-0.03 0.1697,-0.08 0.2196,-0.1003 0.4594,-0.1504 -0.639,-0.1704 0.7888,-0.1504 l 2.027,0.5415 c 0.3395,0.1103 1.2481,0.4311 1.3579,0.4612 2.8957,0.6919 -3.0553,-0.371 1.4479,-0.04 0.1997,0.02 1.5077,0.1404 1.0284,1.0629 1.8971,0 0.2596,0.07 0.8288,-0.4011 l 1.298,-1.0228 c 1.9471,0.9927 1.1083,1.3938 3.0754,1.8951 -0.4594,1.3236 -0.3395,0.6919 -0.689,1.1531 -1.7873,2.3764 0.1598,-0.8122 -0.7289,0.752 0.9585,0.5716 1.0684,1.2735 2.0469,1.2634 2.1468,-0.01 -0.7289,0.04 1.2681,-0.4111 l 1.4079,0.09 -1.4179,-4.0308 1.5377,-0.391 c 0.6989,-0.3109 -1.5477,-1.1732 2.0369,-0.1103 l 1.5876,0.3509 c 1.0484,-0.1704 -1.0584,-0.2106 1.2082,-0.2607 1.0185,-0.02 1.2781,0.4612 2.5861,-0.2106 1.6575,-0.8522 6.4902,-0.1804 6.64,2.7575 h 0.4792 c -0.2596,-0.8523 0.699,-1.9954 1.4978,-2.8477 l 1.328,-0.9526 c 0.03,1.4439 0,1.5241 0.4793,2.3764 5.1921,-0.1504 -2.1967,-0.7019 3.305,-1.4238 -0.04,2.1458 0.5092,2.0355 -0.9486,2.8477 h 2.3664 v 1.895 c -1.9071,-0.1203 -1.4578,-0.3108 -2.8357,-0.4712 0.03,2.246 -0.2596,1.113 0.9486,1.4238 0.01,1.0628 -1.1783,-1.3536 3.7743,-0.5415 0.1098,0.02 0.8187,0.1605 0.8886,0.1505 l 1.0085,-1.0328 c -1.3979,0.5314 -0.8887,0.4411 -2.8357,0.4712 -0.04,-3.6999 -0.9286,-0.6116 -1.8872,-3.3189 h 3.7743 c 0.9586,1.4439 1.348,0.7119 1.8373,1.5442 0.5791,1.0027 0.1398,1.1832 0.7289,1.6745 l 1.2181,1.0528 v -1.4238 c 2.4164,0 1.0085,0.07 1.0185,-0.2607 0,-0.09 -0.1398,-0.4713 -0.1698,-0.6117 -0.1697,-0.752 -0.2596,0.371 -0.3794,-1.504 l 1.8872,0.9526 c 1.288,-0.6317 0.9485,-1.113 1.7773,-1.6946 l 1.5377,-0.2005 c 0.07,0.09 0.1697,0.1303 0.1997,0.2807 l 3.1053,2.0856 c -0.4993,-1.0929 -0.4194,-0.8322 -1.8872,-0.9525 0.4294,-1.123 0.7489,-1.5542 1.6775,-1.3838 l 5.4118,0.4412 c 0.04,0.6518 0.1997,2.2661 0.2397,2.3965 0.1198,0.4512 -1.2581,-0.2507 0.7488,0.8723 l 1.8972,0.6317 c 0.04,0.01 0.1697,0.05 0.2096,0.05 0.8188,0.04 0.6491,-0.4612 0.679,-2.0555 h 0.4793 c -2.4363,-0.2306 -1.8472,-0.4011 -1.8971,-2.8477 2.3664,1.6545 4.2336,0.8122 7.0893,1.4239 v 1.4238 c -1.4379,-0.2407 -1.328,-0.4211 -2.3565,-0.4713 l 1.2381,0.9024 c 1.2981,0.5916 -1.2481,0.732 0.8887,-0.05 0.1,-0.04 0.5592,-0.3208 0.7089,-0.381 -0.4093,3.8804 0.2896,0.06 -0.9485,2.3764 l 2.1567,-0.4312 c 2.017,-0.3308 0.8587,0.8323 1.8872,-0.04 0.4593,-0.391 0.5192,-1.1631 0.6789,-1.9051 h 0.4793 c -0.8886,-0.401 -0.9885,-0.381 -1.0784,-1.504 0,-0.1103 0.07,-0.4813 0.1298,-0.6317 l 2.8358,0.4813 c 0.1497,1.6444 0.1897,0.6618 0.2995,2.3062 0.1099,1.5642 -0.1398,-0.05 0.1698,1.7246 0,-2.236 -0.3795,-3.0582 0,-4.2715 1.1282,1.113 0.3095,-0.5113 1.0983,1.855 0.4693,1.4038 0.3295,1.9753 2.2166,2.8878 -0.7588,-2.4767 0.5093,-0.9626 1.4179,-0.4713 v -0.9526 c -1.1882,-0.6617 -0.3495,0.1204 -0.9286,-1.1029 -0.1,-0.2006 -0.3994,-1.4038 -0.4893,-1.7447 2.2467,-0.1705 0.7689,-0.1604 1.6076,-0.391 l 2.9855,-1.093 c 0.09,-0.06 0.4693,-0.3208 0.5991,-0.4111 0.05,2.597 0.3095,2.3463 1.0384,2.6872 0.05,0.03 0.1897,0.05 0.2497,0.08 l 1.2481,0.8624 c 0.639,0.4913 0.03,0.2907 0.7289,0.5013 0.9985,0.2908 0.629,0 1.9371,-0.3309 l -0.7489,-2.4466 c -0.04,-0.1002 -0.1398,-0.2607 -0.1997,-0.401 1.348,0.2205 2.0469,0.2607 2.8357,0.9425 0.4693,-0.8523 0.5592,-1.4439 0.9486,-2.3664 l 0.9985,0.9025 c 0.9585,1.3636 -0.3994,2.3061 1.8372,2.4164 v 1.8951 l -1.4278,0.4512 c 1.8372,0.2006 0.8686,0.1103 1.8971,0.5014 -0.1897,-1.6645 -0.1897,-2.3563 -0.9386,-3.5395 -0.07,-0.1003 -0.1797,-0.2707 -0.2296,-0.351 -0.06,-0.09 -0.1997,-0.2406 -0.2497,-0.381 0.3795,0 1.2481,-0.03 1.6276,0.02 2.3564,0.3108 -0.8188,-0.8022 1.6774,0.4512 -0.03,2.0355 1.3979,0.1504 -0.2695,0.6618 -1.9871,0.6116 0.1,0.361 -0.669,-0.1905 l 0.4693,4.2815 c 0.589,-2.3463 0.9984,-2.0054 1.8072,-1.8851 1.1683,0.1905 0.01,-1.0027 0.5592,0.4613 0,-1.1431 -0.3196,-2.3162 0.2396,-3.329 2.017,1.2233 0.9087,-0.4011 1.0385,2.4165 0.08,1.7046 -0.3995,-0.05 0.609,1.855 0.1897,-1.9252 0.1199,-0.8423 0.2197,-2.1959 l 0.4893,-2.5468 h 1.6575 c 0.4592,1.4438 0.1996,2.5368 0,4.2714 l 0.9785,-1.4037 c 1.1982,0.8522 0.3195,-0.8122 1.3879,1.4037 v -2.3763 h 1.4079 c 0,1.6043 -0.07,1.875 0.4792,2.8476 0.709,-0.2808 1.2681,-0.5816 1.8872,-0.9425 -0.3395,-0.6418 -0.8887,-0.8724 -1.1682,-2.3062 -0.4094,-2.0957 0.7089,1.3737 -0.2497,-1.494 1.7773,0 1.7674,-0.02 3.2052,-0.3209 0.1198,-0.02 0.669,-1.6244 1.6575,0.5114 0.5891,1.2834 -0.1398,1.7848 0.8787,2.7574 l 0.8786,0.371 c 0,-3.5596 -0.1897,-0.7721 0.9386,-1.8951 0.3395,1.2834 -0.7588,0.9225 1.8972,0.9525 l -1.0784,0.8122 c -0.9386,0.7019 -0.3794,-0.2106 -0.8188,0.6117 2.4663,0.6417 1.9171,0.2607 2.8457,-1.9051 1.4878,0.4512 1.0285,0.5113 2.027,1.2232 l 0.5991,0.3911 c 0.9785,0.381 2.3165,0.07 3.1452,-0.2707 l 0.8387,-0.3911 c 0.3994,0.6016 0.5792,1.0428 1.2781,1.4238 0.8188,0.4312 0.5392,0.1003 1.1383,0.02 0.06,-0.01 0.1997,-0.04 0.2696,-0.05 l 4.4133,-0.3409 c 1.6575,0.6518 0.05,-0.2707 0.4593,0.371 0.3794,-0.06 1.0384,-0.7319 0.4294,-1.7346 l -0.4194,-0.6418 c 0.649,-0.7219 0.4294,0.2106 0.4693,-1.8951 l 5.292,0.7721 c -0.3994,1.2534 -0.6191,0.6117 0.8487,1.6043 -0.9785,0.9827 1.4379,0.9325 -2.3664,0.9426 2.8257,0.08 5.5317,0.8523 6.1507,-1.4239 2.0968,0.1404 3.964,1.1732 5.6714,1.9052 -1.3379,2.627 -1.5177,-0.341 -1.8971,2.8476 1.2881,0.2005 1.0784,0.3108 1.5577,1.1731 0.4693,0.8524 0.1298,1.3637 2.2665,1.7548 1.8173,0.3309 1.3081,0.4311 3.6745,1.7747 l 1.0085,0.5114 c 0.5192,-0.8924 0.8587,-1.5141 1.4178,-2.3664 1.0584,1.113 0.5192,1.6244 0.4793,3.319 0.649,-1.2434 0.5392,-0.2808 0.8587,-1.7748 0.3595,-1.6845 -0.1398,-1.3135 0.5592,-2.968 1.0584,1.113 0.5192,1.6244 0.4693,3.3189 0.4992,-0.8523 -0.659,-0.2306 0.4792,-0.5214 l 0.5892,-0.02 c 0.06,0 0.2296,0.04 0.3494,0.07 l -0.4693,1.8951 c 1.368,-0.1604 0.9187,-0.3509 2.8357,-0.4712 0,0.03 0.1199,1.2934 0.1199,1.3235 0,0.1203 0,0.2707 0,0.4011 0.02,1.4138 -0.4394,3.339 0.6689,2.6371 0.1299,-0.08 1.5877,-1.9753 1.8273,-0.9325 0.03,0.1103 0.2197,0.1002 0.2496,0.1303 l 0.8887,1.6244 c 0.01,0.07 0,0.2206 0.01,0.2908 0,0.06 -0.02,0.2005 -0.02,0.2607 l 0.1598,1.7346 c -0.07,0.6518 1.7972,0.8523 -1.0684,1.0729 2.1567,0.5415 2.3065,1.6945 4.1637,0.7721 l 2.1068,-0.371 c 1.0884,0 1.1183,-1.6946 1.7574,1.494 h -2.8358 c 0,1.6745 -0.1098,0.6116 0.4493,0.7219 1.5477,0.3209 0.5892,-0.2005 1.4179,-0.2907 l 1.2381,0.1002 c 1.5477,0.4913 1.6875,1.2935 1.8972,2.6772 l 0.679,10.5884 c -0.719,1.6144 -0.3096,1.6745 -0.9586,-0.04 l -0.9885,4.3016 c -0.02,0.06 -0.06,0.1905 -0.07,0.2406 l -0.03,1.1531 c -0.1099,3.0081 0.1996,0.8022 -1.328,2.7474 -1.1084,1.4138 -0.6491,1.6745 -1.5477,3.1886 -0.8687,1.4739 -1.6076,1.494 -2.4963,2.3362 -1.8471,1.7447 -0.7388,1.5642 -0.5391,2.6672 0.5491,3.1184 -2.2566,3.6498 0.8587,7.0991 -0.3495,0 -1.6475,-0.05 -1.9671,0.04 -1.6275,0.4211 -1.4378,2.1257 -3.7044,2.3362 l -0.02,2.1659 c -0.4294,1.1831 -1.2981,2.4966 -2.5362,2.8676 -0.699,0.2106 -0.6091,-0.5414 -1.0185,0.2006 -0.2796,0.5214 1.2981,0.1303 2.1568,-0.02 v 2.8476 c -0.1598,0.01 -0.7988,0.07 -0.9186,0.07 -0.1,0.01 -0.2996,0.02 -0.4194,0.03 -1.9271,0.1304 -1.4977,0.9425 -3.1053,1.6845 l -6.7498,3.0282 c -1.358,0.371 -0.2297,-0.01 -0.679,0.2306 -2.7259,1.3837 -4.3135,1.3937 -6.8397,1.8951 -0.1198,0.03 -0.2696,0.05 -0.3894,0.07 l -2.0169,-0.03 c -0.04,-0.01 -0.1698,-0.02 -0.2097,-0.02 l -2.9156,0.1203 c -4.4134,0.2908 -2.0369,-1.1731 -5.4718,0.1504 -0.1298,0.05 -0.2396,0.1103 -0.3794,0.1504 -1.0284,0.3109 -1.1582,0.2407 -2.2366,0.1705 -3.5047,-0.2006 -4.8227,0.3309 -7.4987,0.2406 -1.7773,-0.05 -2.8457,0.1304 -3.8642,0.07 -1.7174,-0.09 0.3295,-0.03 -1.7074,-0.3509 -0.7588,-0.1304 -0.4194,-0.06 -1.6675,-0.02 -3.0853,0.1002 -3.3649,-0.6819 -3.4947,1.5341 -1.4378,-1.3136 -1.2281,-1.1732 -3.2651,-1.4238 -1.2581,-0.1605 -2.596,-0.07 -2.8756,-1.9052 -1.0584,0.1304 -0.6191,0.04 -1.2881,0.6217 l -1.0783,1.2835 c -2.0569,-0.7019 -0.9786,0.9826 -1.4179,-1.4239 -2.1468,0 -4.014,-0.2406 -6.1008,0.6117 -0.1,0.04 -0.2097,0.1003 -0.3195,0.1504 -2.3664,0.9927 -4.5631,0.7821 -7.0294,0.7019 l -3.4748,-0.2507 c -1.0184,-0.1404 -0.1897,0.1003 -1.6475,-0.1504 -0.08,-0.01 -0.2296,-0.06 -0.3095,-0.07 l -1.7873,0.04 c -0.08,0.02 -0.2296,0.06 -0.3095,0.08 l -5.961,-0.1705 c 0.9984,2.7173 0.2596,0.5315 -0.2397,1.4239 -0.9186,-0.3811 -1.288,-0.4613 -2.656,-0.341 l -5.6614,-0.4311 c -0.1298,-0.02 -0.4893,-0.1304 -0.5991,-0.1604 -1.7873,-0.4412 -2.1967,-0.1605 -4.0639,0.1604 -3.5246,0.6016 -0.9685,-0.6819 -3.9241,-0.2006 -1.5876,0.2507 -0.1298,0.1705 -1.4378,0.1805 -1.0784,0 -1.8871,-0.2707 -3.2651,-0.07 -1.6175,0.2407 -0.08,0.07 -0.9984,0.2507 l -1.8073,0.2306 c -1.9271,0.2507 -4.0539,-0.371 -5.9311,-0.4713 l -3.275,0.5716 c -1.318,0.2306 -1.8173,-0.3409 -2.9755,-0.5515 -1.2282,-0.2206 -2.7559,0.1203 -3.2651,0.06 -0.4194,-0.05 -0.3994,0.5414 -1.0684,-0.5415 -1.0983,-1.7848 -0.2197,-0.6918 0.05,-1.0528 -1.0584,0.1203 -0.5891,0.08 -1.278,0.5816 l -1.5577,1.3135 c -0.8787,-0.7721 0.05,0.04 -1.1383,-0.7621 -0.3195,-0.2206 -1.1482,-0.7018 -1.1582,-0.7018 -0.04,-0.01 -0.1698,-0.01 -0.2097,-0.02 l -1.6475,0.03 c -0.03,0 -0.1498,-0.01 -0.1797,-0.01 -1.5876,0.1203 -0.9386,1.1631 -4.3834,0.5013 -1.8273,-0.3509 0.3994,-0.1003 -1.5776,-0.09 l -5.1922,0.3008 c -2.1068,0.2006 -0.07,0.3109 -1.7074,-0.391 -1.4978,-0.6317 -0.9686,-0.04 -2.4863,0.01 -2.7259,0.07 -1.4178,-0.6016 -2.0569,-1.7146 l -4.3534,0.6718 c -3.1552,0.2506 -6.8097,-0.9325 -6.9894,1.4639 l -1.4179,0.2407 c -0.1098,-1.9152 0.5392,-1.2434 -1.1982,-1.5242 -2.9156,-0.4612 -1.5277,0.9827 -3.7244,0.8323 -2.4962,-0.1604 -0.8087,-1.3135 -7.9579,-0.8724 -1.6076,0.09 -4.4034,0.1404 -6.5002,0.1404 v -1.4238 c -0.8787,0.4011 -0.679,0.3209 -0.9386,1.4238 h -1.8972 c -0.4593,-1.6945 0.5991,-0.2707 -1.1782,-1.4238 0,0.05 0.1897,-0.2306 -0.1797,0.9626 -0.4194,1.3436 -0.3195,-0.742 -0.5292,1.6444 -1.358,-0.7019 -3.4448,-1.4338 -5.3719,-1.0929 -0.9885,0.1704 -0.649,-0.9225 -0.7688,1.0929 l -1.4179,0.2407 c -0.1398,-2.3664 -0.1,-1.3035 -1.2082,-1.3737 l -0.669,0.04 c -0.1,0 -0.2496,0.01 -0.3494,0.02 -4.2636,0.1604 -9.1163,0.3008 -12.9006,-1.5342 -0.3394,2.3162 0.7389,1.0829 -1.2181,1.1932 -1.6176,0.08 -0.2497,0.3009 -0.689,-0.391 -1.2681,-1.9954 -0.3794,-0.2607 0.02,-0.8022 h -0.9486 c -0.3994,0.7521 0.5891,1.464 -1.6575,1.0328 -0.05,-0.01 -0.1897,-0.08 -0.2396,-0.1003 -0.04,-0.03 -0.1498,-0.1403 -0.1897,-0.1704 -0.3795,-0.381 -0.2397,-0.4212 -0.2796,-0.7621 -1.2681,2.1358 0.1697,1.0428 -1.997,1.2033 -0.9186,0.07 -0.7189,-0.4312 -1.7773,1.1631 -0.1598,-0.04 -0.3695,-0.3309 -0.4493,-0.2005 l -1.6475,-0.712 c -1.6675,-0.2205 0.7488,-0.6918 -1.0485,0.4913 l -0.639,0.4212 c -1.0584,-0.9225 -2.6959,-0.5314 -3.305,-0.5014 h -0.5192 c -0.06,-0.01 -0.2097,-0.04 -0.2696,-0.05 0,0 -0.05,-0.09 -0.8288,-0.2105 -1.6275,-0.2307 -1.9171,0.5013 -3.5546,0.2707 l -4.9325,-0.1203 c -0.6491,-0.1103 -2.4264,-0.7019 -3.3949,-0.09 -0.04,0.02 -0.1498,0.1103 -0.1797,0.1404 -0.07,0.07 -0.3895,0.7921 -0.4993,1.0428 l -0.669,-0.5916 c -1.0884,-0.8122 -0.8886,-0.6217 -1.6974,0.5916 -1.0285,-0.9025 -0.6391,0.1604 -0.9386,-1.4239 -3.0354,0 0.01,0.2006 -1.6375,0.5014 -0.1698,0.03 -0.8188,1.3235 -1.2082,-0.9827 -0.3695,1.9052 -0.5991,0.9827 -2.9256,0.9626 -0.06,0 -0.2097,0 -0.2696,0 -1.1383,-0.02 -1.0484,-1.5541 -1.0584,0.9426 h -1.4079 c -0.1298,-2.577 0,-1.103 -0.9785,-0.9626 l -2.3065,-0.1103 c -0.03,-0.01 -0.1498,-0.01 -0.1897,-0.01 -0.03,0 -0.1498,0 -0.1897,-0.01 -0.04,0 -0.1698,-0.01 -0.2097,-0.01 -3.4149,-0.4512 -5.8612,0.3509 -7.269,0.09 l -7.2691,-0.1504 c -2.616,-0.09 -4.6729,-0.6117 -6.1707,1.6344 -2.8556,-2.0355 -0.8786,-0.5114 -3.265,-0.9526 -2.5262,-0.4813 -1.2981,-1.2132 -4.4134,-0.4813 l -2.9855,-0.2908 c -0.03,-0.01 -0.6889,-0.2908 -0.6989,-0.2908 -1.2581,-0.4211 -0.6989,-0.1804 -1.7773,-0.2506 -0.3894,-0.02 -3.315,-0.732 -3.5147,-0.1404 -0.05,0.1604 -0.2596,0.1504 -0.3295,0.1905 l -3.2451,1.5442 c -0.06,0.01 -1.6475,0.1504 -1.977,0.2005 l -1.8872,-2.3764 c -0.9685,0.8423 0.6291,-0.2406 -0.8187,0.4412 -0.3695,0.1805 -0.7589,0.3209 -0.7789,0.3309 -0.04,0.03 -0.1597,0.1003 -0.1897,0.1303 -1.5976,1.5342 -0.1697,0.9125 -0.1098,0.9927 l -2.7059,-0.4813 c -0.03,-0.01 -0.1398,-0.05 -0.1698,-0.07 l -0.8986,-0.8723 c -0.5891,0.8823 -1.368,1.514 -2.7359,1.0127 -1.328,-0.4713 -1.4478,-1.1631 -1.5077,-1.3135 -0.9685,-2.1458 -0.5292,0.1704 -0.01,-0.6418 -8.3574,0.9927 -0.3994,-0.772 -6.62,1.4239 -0.3295,-1.3035 -1.7074,-0.6317 0.4693,-1.4239 l -6.9295,0.08 c -2.027,0.1605 -0.9886,-0.9224 -2.047,1.3436 -0.1098,-0.1002 -0.2396,-0.4311 -0.2995,-0.3308 l -1.5477,-1.103 c -0.01,0 -2.1767,-0.4412 -2.4063,-0.4713 -0.3495,1.7547 0.2396,0.4512 -0.5991,0.7821 -0.08,0.03 -0.7988,0.01 -0.8987,0.02 l -0.7888,0.1103 c -1.2381,0.07 -2.8756,-0.742 -3.6045,0.04 -0.6491,0.7019 0,1.0128 -0.4893,1.6645 0.03,0.07 0.1997,1.0929 0.4693,1.4238 2.1667,-1.5943 -0.3195,-1.2433 3.295,-1.0227 1.0385,0.07 1.7474,-0.05 2.6161,0.3108 1.7074,0.7019 0.9585,-0.3309 1.1782,1.6545 1.0684,-0.2808 0.7389,-0.5816 1.5177,-1.2033 l 0.4094,-0.2908 c 0.1398,-0.07 2.5162,-0.2005 2.5461,-0.2005 6.6899,-0.1003 -0.3694,1.3536 3.5647,1.6946 v -1.8951 c 2.0269,0.9726 1.7773,-0.3109 2.3664,1.8951 0.7089,-0.8223 0.639,-0.5816 0.9385,-1.8951 1.8872,0.4411 0.1299,0.2607 1.6775,0.5514 l 5.7613,0.06 c 1.1583,0 2.1867,0.01 3.5147,0.01 1.5377,0 2.4463,0.3309 4.643,0.3309 0.4194,0.7621 -0.1098,0.6518 0.9486,1.4238 l 0.669,-0.8522 c 0.02,-0.04 0.09,-0.1605 0.1098,-0.2006 l 1.977,0.2607 c 0.06,0 0.1897,-0.03 0.2496,-0.04 0.07,0 0.1997,-0.05 0.2596,-0.05 2.4364,-0.2607 2.666,1.3737 2.8757,-1.0227 2.4863,0.06 1.8073,0.4913 3.7843,0.9525 0.3295,-1.3837 -0.06,-0.6818 0.9386,-1.4238 l 5.4717,1.6845 c 3.6146,0.6317 3.4548,-0.3709 3.5147,2.1157 2.7958,-0.752 0.1298,-1.8449 2.1967,-0.8422 l 0.639,0.3609 c -0.3594,-0.6317 -0.2596,-0.5214 -0.4792,-1.4238 2.0768,0.1805 2.4862,0.5515 3.7842,1.4238 -0.5192,-2.4566 0.7888,-1.5341 2.3764,-1.6644 0.6391,-0.05 0.689,-0.1304 1.8772,-0.2307 0.4793,1.1632 0.3195,0.3811 0,1.8951 h 0.9486 c 0.1997,-1.8449 -0.2397,-1.7848 2.616,-1.4539 0.06,0 0.1897,0.05 0.2397,0.05 0.06,0.01 0.1797,0.04 0.2296,0.04 1.4878,0.02 3.6745,-1.6344 4.004,1.3637 2.4962,-0.6718 0.3794,-0.9626 2.7059,-1.1832 l 6.0409,0.09 c 1.3779,0.2306 1.1183,-0.4111 2.2965,-0.371 l 6.2406,-0.08 c 3.1452,0.391 3.944,0.05 6.8197,0.1705 2.5861,0.1203 0.3994,0.4812 3.1852,0.782 0.1,0.01 0.2396,0 0.3395,0.01 l 0.9885,0.07 c 1.8572,0.1805 1.0983,-0.2506 2.7858,-0.6316 2.5062,-0.5615 0,0.06 1.7473,0.1805 l 2.4164,-0.4011 c 1.8472,-0.1404 2.9955,0.2506 3.7743,0.2406 2.7159,-0.02 0.1897,-0.2607 1.8572,-0.4312 l 4.613,-0.02 c 1.5776,-0.2606 1.8572,-1.504 3.7244,-0.2406 0.08,0.05 0.1997,0.1404 0.2796,0.2005 l 3.1153,1.1431 c -0.4793,-1.1831 -0.1199,-0.2707 -0.8887,-1.0127 -0.5591,-0.5314 0.02,0.5214 -1.0085,-0.8824 2.2466,0.1805 3.5746,0.9426 6.1508,0.9426 l -0.5292,-1.8751 c 1.7972,0.1203 1.7972,0.1304 1.947,1.8751 h 6.2306 c 1.3679,0.3208 1.0584,0.5214 2.1667,0.3309 1.328,-0.2407 0.8088,-0.1003 2.0769,-0.1906 0.08,-0.01 0.2197,-0.01 0.2996,-0.02 1.318,-0.1404 1.2181,-1.0327 3.4048,0.361 1.8472,-0.6217 -0.3395,-1.1832 2.1568,-0.8222 2.6759,0.391 1.5077,0.6417 3.0354,1.7647 0.5891,-1.1029 0.1497,-0.9124 1.0983,-1.5341 0.8487,-0.5415 -0.3395,0.03 0.7289,-0.2707 l 0.7089,-0.1304 c 0.04,0 0.1798,0.01 0.2297,0.02 0.4094,0.05 0.4593,0.1504 0.7589,0.2507 0.07,0.02 0.1996,0.08 0.2795,0.1103 l 0.5792,0.1704 c 1.308,0.4412 1.2181,-1.3736 1.288,1.865 1.8372,-1.3536 0.3994,-0.6317 0.9685,-2.2861 0.2996,-0.9024 -0.5491,-0.5515 0.9286,-1.0428 0.4394,1.6645 0.1798,1.0729 1.4179,1.9051 0.3994,-1.0127 0.9286,-0.9124 2.0369,-0.8021 0.9286,0.09 1.7174,0.3208 3.1553,0.3208 -0.5192,-1.4539 -2.1668,-1.3536 0.9485,-1.4238 0.3695,1.4038 0.1897,0.7721 0.9486,1.9051 3.1153,-0.2607 6.1907,0.2106 8.8267,-0.2607 l 0.8587,-0.2406 c 1.4877,-0.2407 0.1797,0.1805 2.0469,0.1905 1.2182,0.01 -0.04,0.02 0.8687,-0.09 1.0284,-0.1304 0.2795,-0.1304 0.9685,-0.1204 l 1.338,0.1204 c 1.6575,0.1203 2.1767,0.1604 3.0454,1.3436 1.4578,-1.0629 0.7688,0.3108 0.9486,-1.8951 l 1.4777,1.875 c 1.6675,0.02 3.4548,-0.1604 4.4833,-0.2607 l 4.9924,-0.1905 c 1.5677,0.2206 0.5192,0.6116 2.2167,-0.08 0.06,-0.03 0.1797,-0.1203 0.2396,-0.1504 0.9586,-0.4111 0.4094,0.04 2.656,0.2306 -0.01,-0.01 -0.9286,-0.9325 -0.9386,-0.9525 2.7758,0.3108 0.1398,-0.2006 2.3565,1.4238 l 1.8871,-0.4713 c 0.08,-0.04 0.2397,-0.1303 0.2696,-0.04 l 0.7489,-0.03 c 0.04,0 0.1897,0.02 0.2296,0.02 l 1.7374,-0.05 c 1.6875,0.371 -0.1,0.02 1.318,0.5114 1.9271,0.6618 5.0424,0.2206 7.1792,0.4813 0.2496,0.03 1.318,0.2005 1.328,0.2005 0.4094,0.02 1.987,-0.07 3.1952,-0.08 2.0169,0 1.5576,-0.5113 3.8541,-0.1404 0.7689,0.1304 0.1798,0.01 0.8088,0.1705 l 1.0784,0.381 c 0.7089,-0.2907 0.4194,-0.8222 1.6675,-0.9625 1.4777,-0.1805 0.2496,1.0127 1.6375,-0.4613 0.4493,-0.2607 0.1797,-0.9525 0.8886,-0.05 0.5892,0.752 0.689,0.1605 -0.4193,0.5214 1.0584,0.6718 4.8427,0.6016 5.2521,0.5214 l 1.0684,-0.4311 c 1.0983,-0.1905 1.2481,1.2233 0.7688,-1.0328 1.3879,0.9325 0.659,0.391 1.9371,0.9125 0.7788,0.3108 0.3195,0.07 1.0084,0.4411 1.0085,0.5315 -0.2895,-0.01 0.8488,0.5415 2.0269,1.0027 3.7643,-0.3309 5.941,-0.4011 0.669,-0.02 0.3794,-0.07 1.0884,0.04 2.3264,0.371 1.268,1.6043 2.7558,0.4011 1.4877,-1.2133 -0.6091,0.6918 0.5991,-1.9352 0.639,0.3509 0.5292,0.2607 1.4179,0.4712 h 0.4792 c 1.0584,0.4412 0.08,0.01 0.7888,0.2006 l 2.7958,0.5816 c 0.1698,0.01 1.7873,-0.03 1.8672,-0.05 1.8073,-0.4513 -0.1897,0.1804 0.5891,-0.2908 2.7459,-1.6845 -2.1667,0.4712 0.5692,-0.4412 2.606,-0.3108 1.0284,2.1257 8.1476,0.762 l 6.3804,-0.6718 c 2.0669,-1.0127 -0.8787,-0.1604 1.5477,-1.0428 2.0169,3.0282 1.5876,1.093 4.2535,2.3764 v -1.4238 c 6.1308,2.9579 1.9771,0.2707 5.7314,0.8924 1.6276,0.2707 0.08,0.3409 2.2965,0.5314 -0.4693,-1.7647 -0.4792,-0.6116 -0.9386,-2.3764 2.6461,0.7119 0.2297,0.4713 2.1967,1.5041 1.3879,0.742 2.2866,-0.1705 2.2966,-0.1705 2.0569,-0.2607 0.04,0.4913 2.7258,0.7821 1.6176,0.1805 0.8488,-0.5615 2.8457,-0.3509 0.7389,0.08 5.8712,2.246 10.1347,-0.2407 0.09,-0.06 0.3495,-0.2507 0.4294,-0.3208 l 0.6291,-0.722 c 0.4792,1.1932 0.05,0.5515 1.2281,1.1732 1.2082,0.6317 2.4263,0.8021 3.2451,0.2908 0.1598,-0.1003 0.6091,-0.08 0.7289,-1.464 l 0.4693,1.8951 c 1.4877,-0.7219 0.8287,-0.1303 1.6575,-0.3208 0.07,-0.02 0.2097,-0.04 0.2796,-0.06 0.07,-0.02 0.1997,-0.07 0.2596,-0.09 0.3295,-0.1204 0.639,-0.371 0.7389,-0.4212 0.07,-0.02 0.1997,-0.1002 0.2596,-0.1203 2.5062,-0.742 1.6974,2.7273 2.0069,-0.8824 1.3879,0.03 3.8043,0.5014 4.7229,0.9426 l 0.1498,-0.4011 c 0.01,-0.03 0.08,-0.1705 0.1098,-0.2006 0.02,-0.03 0.1,-0.1604 0.1398,-0.1905 1.3779,-1.2633 2.7758,-0.1504 5.2721,-0.1504 0.5391,-2.3262 -0.3196,-1.9251 0.9485,-2.8476 0.1098,5.1137 0.8487,-1.0629 1.8872,2.8476 1.7573,-1.2934 1.4678,-2.6471 3.315,-2.8476 -0.4693,-1.7347 -0.4993,-1.0027 -1.4179,-2.3764 2.3165,0.5415 1.338,0.1504 2.9356,0.1504 2.3864,0.01 0.3994,0.1705 2.7358,0.8022 -0.8287,-3.9206 2.4863,-1.2033 4.8627,-3.6699 l 2.3464,-2.6371 c 1.4878,0.6016 0.8688,0.4512 2.2367,0.1304 -0.3495,-1.5141 -0.8987,-1.4339 -0.5092,-2.216 0.7688,-1.5241 0.1996,-0.2005 0.7488,-0.1604 1.2082,0.07 -0.7788,0.9425 1.0484,0.1003 1.7274,-0.8022 0.04,-1.6745 -0.2296,-2.0154 -1.1183,-1.4038 -1.0584,0.6918 -1.0584,-2.8276 h -1.4179 c 0.1997,2.3663 0.9087,1.2934 0.4194,3.2888 -0.03,0.1103 -0.2696,-0.2808 -0.4194,1.4639 h -0.9386 c -0.3095,-1.3135 -0.2296,-1.0729 -0.9485,-1.9051 0.7289,-1.0428 0.08,-0.5815 1.4178,-0.9425 v -1.4238 l -1.8871,-0.4813 c 0.3694,-0.2307 0.8587,-0.5615 1.1283,-0.7821 0.5292,-0.4312 0.4493,-0.5315 1.2281,-1.113 1.7773,0.4111 2.037,1.0027 3.315,0.4713 0.5292,-1.3938 -0.1597,-0.2909 0.8188,-0.6518 l 3.9041,-1.7146 c -0.5991,-2.2461 -2.0569,-1.4238 -0.7389,-3.5195 0.7489,-1.1932 2.1567,-1.4739 1.8272,-3.3991 -0.3694,-2.1558 -0.659,0.9124 -0.3794,-1.9151 0.2297,-2.3564 0.8288,1.0127 0.2496,-1.7146 -0.4692,-2.1659 -1.4777,-0.6317 -0.01,-3.6899 -0.8487,-0.2006 -0.8187,-0.1505 -1.5177,-0.3811 l -1.318,-0.5715 1.987,-1.8048 c -2.2965,-0.2708 -0.9286,0.4211 -1.987,-1.0428 0.6291,-0.361 0.5193,-0.2607 1.4179,-0.4713 -0.09,-0.08 -0.2297,-0.2908 -0.2696,-0.2106 l -1.1483,-1.2133 c 1.7175,-0.7118 0.5891,0.6017 2.8357,-0.4812 -0.5491,-1.3436 0.3196,-0.01 -0.659,-0.7621 l -1.2381,-0.6618 c 1.2481,-0.2907 1.3879,-0.4311 2.3664,-0.9425 h 0.4693 c 1.0085,-0.361 0.4993,-0.04 1.2282,-0.7219 2.0569,-1.9152 0.4094,-2.617 -0.2796,-3.0783 0.3894,1.845 0.3894,0.5314 0,2.3764 -3.4747,-0.08 -2.6061,-0.8022 -2.8357,-1.4238 1.4977,-0.5014 0.8986,-0.3811 0,-1.4238 0.08,-0.08 0.2396,-0.2808 0.2696,-0.2006 l 0.7089,-0.7119 c 0.6091,-1.0428 0.3994,-0.1303 0.4393,-1.9352 -2.6759,0.2206 -0.3295,-0.1103 -1.4278,0.4713 -1.7973,0.9425 0.9885,0.08 -1.4079,0.9525 0.4593,-1.9753 0.9086,-2.3463 2.3664,-3.3189 0.2497,-1.0829 0.3595,-1.0929 0.4693,-2.3764 0.07,-0.04 0.2197,-0.1002 0.2397,-0.02 l 0.9785,-0.2908 c 0.9486,-0.8222 0.5192,0.2808 0.669,-1.5842 -1.6775,-0.6016 1.348,0.01 -0.4893,0.04 -0.619,0.01 0.8188,0.6417 -0.9286,-0.04 1.5078,-2.2561 2.3066,-1.0127 2.3665,-3.8002 -0.07,0.09 -0.1398,0.1404 -0.1798,0.3008 -0.03,0.1504 -0.1398,0.2306 -0.1897,0.2808 -1.9071,1.885 1.6775,-0.9827 -0.4792,0.4812 -2.3066,1.5642 -3.1853,-0.8121 -3.8742,1.7848 l -1.8173,-1.504 c 0.6091,-0.9526 0.8188,-1.5642 1.8173,-2.2962 -0.6091,-1.4639 -0.689,-0.1604 0.4693,-1.8951 -1.308,0.1404 -0.9785,0.07 -2.3564,1.3537 -1.4678,1.3536 -0.1,0.9525 -1.4279,1.494 -0.5791,-0.4412 0.5292,-0.3109 -1.4179,-0.4713 0.06,-2.4967 0.4893,-1.8149 0.9486,-3.8002 -1.9471,0.1605 -1.3679,1.103 -1.8872,-0.4713 3.2052,-0.3609 -0.02,0.2407 2.3565,-3.3289 -1.1483,-0.4813 -0.3794,-0.3209 -1.8872,0 0.05,-2.1658 0.8388,-1.3135 0.2097,-2.617 -0.4193,-0.8824 -0.1098,0.9826 -0.679,-1.1732 1.5877,0.732 1.4479,0.4111 2.3565,-0.9525 -3.4648,-1.6144 0.5292,1.3937 -2.4763,0.07 -2.646,-1.1732 1.4778,-1.4038 -2.7159,-1.4941 0.08,-0.07 0.2197,-0.2907 0.2597,-0.2105 l 1.1582,-1.2133 h -1.8971 v 1.8951 c -2.3465,-1.504 -0.8987,-2.4466 0,-3.7902 -0.9187,-0.4311 -0.05,-0.1203 -0.8687,-0.1002 -2.9755,0.09 0.03,-0.2407 -3.3749,-0.8523 -0.9586,0.01 -0.1398,-0.1604 -0.4793,0.9525 0.629,0.6317 0.629,0.3109 0,0.9426 -1.0584,0.3308 -1.1683,-0.1304 -1.4179,1.4338 l -1.947,-0.3309 c -1.4179,0.1404 -1.7574,0.5616 -2.3065,1.7547 l -1.4179,-2.3763 c -0.5192,0.06 -1.6775,0.09 -1.9271,0.1203 l -1.3779,0.3509 c -1.2282,-2.236 0.08,-2.607 -3.315,-2.8476 -0.7289,1.0127 -1.4079,-1.6444 -0.6291,2.0555 l -0.7888,0.7921 v -2.8476 l -3.305,-0.4713 c 0.4693,0.5214 -0.6889,0.4813 0.9186,0.4713 l -0.4393,-1.8951 0.4693,-0.9526 c -0.7589,-1.133 -0.5791,-0.4913 -0.9486,-1.8951 -2.2865,1.2133 -2.1068,0.9827 -3.4747,0.2006 l -1.7973,-1.113 c -0.1,-0.06 -0.3495,-0.2507 -0.4294,-0.2908 l -3.275,-0.7019 c -0.3096,1.1631 -0.8987,1.845 -2.3665,2.3764 0.2497,-0.5314 0.8188,-1.6244 0.4693,-2.3764 -3.0154,0.8122 0.1498,1.4339 -2.7558,1.6043 -1.977,0.1204 -1.0584,-0.6718 -3.3849,-0.1804 0.8587,-1.6244 0.7788,-1.2434 0.4693,-1.8951 -1.3779,1.0127 -0.5691,0.3008 -1.4179,1.8951 -1.0684,-0.2507 -1.0783,-0.361 -2.3564,-0.4713 1.997,-1.3938 1.1283,-0.351 0.9386,-0.9526 -0.06,-0.03 -0.1897,-0.09 -0.2197,-0.02 l -1.2781,0.09 c -0.1098,0.01 -0.4593,0.07 -0.5691,0.1003 -1.6874,0.4211 -0.7089,0.2607 -2.1867,1.2534 l -0.4693,-0.9426 c -1.4578,0.5315 -0.659,0.361 -2.5461,2.1859 l -1.2382,1.133 c -0.5392,-0.8222 -0.3494,-0.1905 -0.5292,-0.8523 l 0.06,-1.0428 -1.6375,-1.0628 c -1.5177,-0.2607 -1.1483,0.9125 -1.6675,2.0054 -1.1183,-0.752 -0.8887,-0.1805 -1.7474,-1.2434 -0.4193,-0.5113 1.6775,0.1103 -0.619,-0.6517 -1.8872,-0.9024 -2.1168,0.2707 -3.335,-0.1805 -0.01,0 -1.4578,-2.1758 -2.3365,1.6043 -1.3878,-0.9325 -0.9385,-0.9525 -3.305,-0.9525 l 0.5293,-1.8751 c -2.047,1.3236 -1.1982,0.5014 -0.9986,2.8276 -2.3764,-1.1431 -1.8272,0.6117 -1.8971,-2.3764 h -0.9386 c -0.5392,1.6144 0.02,0.351 -1.4178,0.9526 -0.709,1.0227 -0.07,0.6217 -1.4179,0.9525 l 0.5292,-1.885 -1.0085,0.4612 c -0.609,-0.4612 0.1398,-0.3208 -0.9885,-0.3409 -1.9171,-0.02 -1.4078,0.7821 -2.7858,1.2835 -0.1,-0.06 -0.2696,-0.2407 -0.2995,-0.1504 -0.03,0.08 -0.2297,-0.1304 -0.2596,-0.1705 -0.5991,-0.6618 -0.7789,0.2808 -0.3894,-1.5742 -1.5177,0.8021 -1.5976,1.0628 -2.8358,1.8951 l -2.1068,-1.8249 c -0.04,-0.01 -0.1797,-0.03 -0.2596,-0.07 -0.4793,0.6316 -0.4693,-1.0027 -0.4693,1.4238 h -1.4178 c -0.5392,-1.6244 1.2082,-0.371 -3.305,-0.4713 -0.6591,-1.7046 -0.3295,0.2607 -2.8358,-1.4238 l -0.4293,1.6745 c 0,0.04 -0.02,0.1504 -0.05,0.2206 -2.4164,-0.5715 -1.7574,-1.835 -2.3565,0 -0.8886,-0.08 -1.0783,0.1905 -0.9785,-1.2033 0,-0.03 0.06,-0.1504 0.03,-0.2205 -1.4479,0.1203 -1.1383,0.1805 -2.3964,0.3008 -2.9556,0.3008 -1.5277,2.256 -3.4648,1.4639 -0.05,-0.02 -0.1797,-0.09 -0.2197,-0.1203 -0.5391,-0.4312 -0.3894,0.2005 -0.5391,-1.1732 h -1.4179 c -0.3295,1.3938 0.06,0.6819 -0.9386,1.4239 -0.2097,-2.4767 0.4493,-0.8523 -0.9486,-1.4239 l -0.4693,0.9526 c -1.4877,0.6918 -1.2081,1.0027 -1.4178,-0.9526 -1.0484,0.732 -0.5891,0.08 -0.9486,1.4239 h -1.4178 c -0.2996,-0.8323 -0.7889,-0.8523 -0.4693,-2.3664 -1.5677,1.1431 -0.5292,0.5114 -1.4179,2.3664 -3.3449,-0.8925 -2.8757,-1.3938 -4.2536,-1.8951 -0.2496,0.5214 -0.1198,0.5615 -0.4293,1.0428 -1.2182,1.875 -1.2082,1.1631 -2.1767,0.6818 -1.5477,-0.7621 0.9385,-0.8323 -1.7274,-0.4512 -2.8358,0.4111 -1.2681,-0.2507 -1.8173,1.1029 -1.0983,-0.371 -0.4094,-1.6043 -1.8971,-0.09 l -1.4079,-0.8623 c -3.7543,-1.3636 -0.2197,-0.09 -4.2536,0 -0.03,-0.07 -0.02,-0.2907 -0.03,-0.2406 -0.01,0.1002 -0.1897,-2.6972 -3.5247,-0.08 -0.3395,0.2707 -0.7189,0.8723 -2.1368,0.7219 -3.0654,-0.3108 -0.05,-1.6845 -2.8157,-0.401 l 0.06,-0.4312 c 0,-0.06 0.04,-0.3309 0.01,-0.4011 -0.07,-0.1704 1.8971,-0.3409 -1.0185,-0.5916 -0.639,2.4165 -0.5691,0.8122 -2.8357,1.8951 -0.2496,-1.113 -0.4394,-1.3937 -0.4693,-2.8476 -3.315,0.2807 -0.3694,1.4238 -4.7229,1.4238 -0.3894,-0.8122 0.3295,-0.9325 -0.9486,-1.4238 -0.7488,1.133 -0.5691,0.5013 -0.9385,1.9051 l -0.5492,-0.9325 c -2.9855,2.0354 -2.5861,0.6618 -5.1223,-0.02 -0.9785,0 -1.1882,0.8723 -2.656,1.2433 -0.09,0.02 -0.4293,-0.1103 -1.1283,0.1805 -0.629,-1.3236 -0.4693,-0.9225 -0.4693,-2.8477 l -2.586,1.6745 c -0.7689,0.7019 0.1298,0.06 -0.7289,0.7019 -1.0385,-0.7319 -0.5891,-0.08 -0.9386,-1.4238 -0.8188,0.2106 -0.5592,0.3109 -0.9286,0.5114 -1.5177,0.8423 -0.3695,0.2005 -3.0953,0.2206 -2.4663,0.03 -4.2037,0.9726 -3.5447,-2.1558 -1.6475,0.1303 -1.3879,0.09 -2.3564,0.9425 v 1.4238 c -1.8173,-0.4813 -1.4079,-0.762 -1.8972,-2.8476 -2.3564,2.4967 -7.1991,0.9225 -12.6309,1.123 -2.9955,0.1103 -0.8188,0.7821 -4.3834,0.7821 v -0.9526 c -0.639,0.3109 -0.4393,0.5515 -1.3879,0.3309 -1.2781,-0.2807 -0.4693,0.4412 -0.9685,-0.8021 -0.2996,0.4612 -0.2596,1.123 -0.9985,1.4439 l -0.4194,-0.02 c -0.9386,0.4511 -1.6974,0.6818 -2.8357,0.9425 -0.3894,-3.5796 -0.5592,0.742 -0.9486,-2.8477 -1.2281,0.8323 -1.2581,0.4813 -1.4178,2.3764 -2.1867,-0.6217 -1.5277,0.2908 -2.3665,-2.8476 -1.5776,0.8422 -1.328,0.3509 -2.3564,1.895 -2.9156,-1.5441 -1.987,-1.0528 -4.2536,0.4814 -0.9386,-0.6318 -1.308,-0.8724 -2.3664,-1.4239 l -1.8872,1.8951 c -0.2795,-3.1986 0.2397,-0.5715 -1.8971,0 v -1.4238 c -2.5162,0.2106 -2.1867,0.8322 -3.7743,1.8951 l -0.9486,-2.3664 c -1.4578,1.0529 -0.9086,-0.1905 -0.4693,1.8951 -3.2251,-0.2707 -3.0254,-0.9927 -4.2535,-1.8951 -1.2781,1.1531 -0.3895,-0.1203 -0.9486,1.4239 -2.4962,0 -0.699,-0.01 -1.4179,-0.4814 -1.7473,0.4713 -0.609,0.4814 -2.3664,0.9526 -0.2696,-1.0127 -0.07,-0.5615 -0.659,-1.2935 -0.5292,-0.6617 -2.5661,-2.3062 -2.646,1.2935 l -1.4179,-0.9526 -4.9125,-1.2533 c -2.6261,0.2105 -0.3495,0.9626 -2.3865,0.8824 l -0.7788,-0.2106 c -1.6575,-0.3409 -2.9655,0.05 -3.6944,0.01 -2.1967,-0.1404 -0.8487,0.6718 -1.4578,-0.8523 h -1.4178 l -0.5293,1.8851 -1.3579,0.02 -0.5392,-1.8851 c -4.5232,1.0528 -0.4892,1.4038 -6.5501,-0.02 -0.7289,0.6918 -0.7988,0.4813 -0.9486,1.9051 h -0.9485 c -0.2896,-2.6772 0.1,-1.103 -1.6875,-1.0528 -0.05,0 -0.1897,-0.01 -0.2396,-0.01 -2.1767,0.1002 -0.9785,1.0227 -3.1653,0.6618 -2.7857,-0.4713 -1.8771,-0.3109 -1.5177,-1.9753 l -2.9855,2.5668 -1.7473,-1.143 c -1.0784,0.2507 -1.0884,0.371 -2.3565,0.4712 -0.3195,0.9025 -0.2895,-0.6718 0.4693,1.4239 l -1.8272,-0.6317 c -0.07,-0.02 -0.1997,-0.06 -0.2596,-0.08 -0.4493,-0.1404 -0.3894,-0.03 -0.7489,-0.2306 l -1.3579,1.0127 c -0.669,-2.3564 -0.8687,-1.494 -2.8957,-1.0127 1.0385,-1.4239 1.348,-0.5616 1.8872,-1.9052 -0.6091,0.3008 -1.7873,0.7922 -2.3565,0.7922 -2.6659,0 1.4279,0.1604 -1.4178,-0.7922 -0.3595,0.6418 -0.2596,0.5315 -0.4793,1.4239 -2.4263,-0.2006 -0.8886,0.4712 -1.4178,-0.9426 -1.8373,1.3537 -0.03,0.742 -1.8872,1.4239 0.6191,-1.3537 0.6191,-0.5616 0,-1.9052 -0.2995,0.1103 -1.977,1.1832 -3.4648,1.2534 -2.4063,0.1203 -0.4892,-0.7721 -4.0938,-0.7721 -0.2896,3.329 -0.2796,0.2407 -4.2536,0.1404 -0.8986,-0.02 -1.4777,-0.1404 -2.596,0.5314 -1.2881,0.7821 -1.3081,0.8323 -1.6575,2.1759 l -0.4793,-0.9726 c -0.05,-0.08 -0.1198,-0.2206 -0.1698,-0.3109 l -0.5192,-0.8924 c -0.1697,-0.2907 -0.2696,-0.4512 -0.4094,-0.772 l -3.7443,-0.9125 c -3.7743,-0.5214 -4.8028,0.03 -6.9695,1.484 -0.2097,-2.4867 0.4493,-0.8623 -0.9486,-1.4238 l -0.629,0.3108 c -1.5577,0.8924 -1.358,0.5515 -1.7274,1.5843 l -2.3664,-0.9426 c -0.5791,-0.3409 0.1597,-0.3008 -0.7988,-0.2507 -0.01,0 -0.9186,0.2106 -1.0884,0.2507 -0.3894,-0.6918 -0.2296,-0.5013 -0.4693,-1.4238 -1.9371,0.4512 -1.9371,0.1103 -3.4248,0.2808 -1.0983,0.1303 -0.4293,0.02 -1.2881,0.6517 l -1.4378,0.9626 c 0.5692,-2.4365 0.9386,-1.3537 -0.4693,-1.8951 -0.8886,0.7721 -0.7888,0.8623 -2.4064,1.0127 0,0 -1.7473,-0.1203 -1.7473,-0.1203 -1.318,-0.4612 -0.5292,0.391 -1.0484,-0.8924 h -0.9386 c -0.3395,1.3837 0.06,0.6818 -0.9486,1.4238 -0.3495,-0.8021 -0.02,0.1705 0.03,-0.6216 0,-0.07 0.03,-0.3309 0.03,-0.4212 l -0.5192,-1.0929 c -0.7688,-0.371 -0.3494,-0.2206 -1.4278,-0.2406 0.1497,1.4238 0.2197,1.2032 0.9386,1.895 -2.2267,0.05 -1.5777,0.5214 -2.8357,0 -1.5877,-1.4439 -1.368,-1.0628 -3.5147,-0.391 l -1.0784,0.3108 c -0.7289,0.3008 -0.8587,0.5716 -1.5477,1.0328 0.03,-1.4439 0.2097,-1.7347 0.4693,-2.8476 -4.9026,1.143 2.5561,1.895 -3.305,1.895 v -0.9425 c -1.318,-0.3108 -0.8587,-0.5014 -1.8672,-0.3509 -1.8971,0.2907 -1.1183,0.391 -1.4378,1.2934 -0.07,-0.09 -0.1398,-0.381 -0.1698,-0.3008 -0.2296,0.5816 -0.2895,-0.4913 -0.3594,-0.5916 -0.4993,-0.6718 0.3994,-0.05 -0.8887,-1.0026 l -0.6091,0.3409 c -0.659,0.371 -0.2496,0.05 -0.9186,0.5113 -1.3979,0.9726 -0.7988,0.1003 -1.308,1.5241 z" transform="translate(1546.889 1515)"/><path d="m -1511.8841,-1430.509 0.1398,0.1404 c 0,-0.01 -0.1797,-0.09 -0.1398,-0.1404 z m -23.6243,-13.7669 c 0,-1.2835 1.6875,0 0.4194,0.03 -0.4793,0.01 -0.4194,1.0528 -0.4194,-0.03 z m -6.1507,-8.0617 v -1.4238 h 0.9485 c -0.4493,1.8951 -0.9186,1.3737 -0.9485,1.4238 z m 0,-2.8476 c 0.5092,-0.5114 1.7973,0.752 0.5292,0.2406 -0.01,0 -1.318,0.5515 -0.5292,-0.2406 z m -1.8872,-0.9526 0.1398,0.1404 c -0.01,-0.01 -0.1897,-0.09 -0.1398,-0.1404 z m 0.4693,-0.9525 c 0,-1.4439 0.7389,-0.2808 0.699,0.371 -0.1,1.6343 -0.699,-0.1705 -0.699,-0.371 z m 10.8736,19.9335 c 1.1283,-0.752 0.4893,-0.5716 1.8872,-0.9425 0.6989,2.9779 0.2296,1.494 1.6674,2.627 1.6376,1.2935 0.679,0.2507 1.1683,2.5869 h 2.3664 c -1.0284,-3.1284 -0.6091,1.6645 -1.8871,-1.895 0.7888,0 1.0284,-0.1003 1.7573,0.1704 1.997,0.732 0.7189,1.9152 1.0784,3.6297 2.3864,0 2.4263,-0.3208 4.2536,-0.4812 0.03,0.07 0.03,0.1303 0.04,0.2306 l 2.3165,2.617 c 0.3095,-2.7875 -0.1997,-0.1404 1.4179,-2.3664 l 1.288,0.6017 c 0.1198,0.07 0.4893,0.2707 0.5991,0.3509 1.2481,1.0127 0.7788,-0.2306 0.9486,1.8951 3.1552,-2.1257 2.4363,-0.6718 4.2536,-1.4238 -0.3795,1.0528 -1.5677,0.9926 0.4792,2.3663 1.7873,-1.0027 0.3096,0.1103 0.9386,-1.4138 -1.4977,-0.3108 0.4992,-1.0227 -3.0554,-2.7874 -2.1467,-1.0729 -2.606,-0.6819 -3.7943,0.6417 -0.3294,-0.8222 -0.2795,-0.4913 -0.5791,-0.8824 l -2.4163,-2.6772 c -1.7174,-0.8422 -3.6146,-1.0428 -4.0938,0.7119 h -1.4179 c -0.1498,-2.0054 0.4593,-1.133 -0.8587,-1.7346 -1.7074,-0.7821 0.8787,0.8523 -1.1383,-0.4312 -1.0384,-0.6618 -0.5492,-0.2908 -1.308,-1.1531 0.7688,-0.5113 -0.03,0.9325 0.4493,-0.5314 1.0684,-3.1986 -0.5592,0.8824 -0.3395,-1.113 0.1,-0.9024 0.1298,-0.6116 0.8388,-0.732 l -1.8972,-1.895 c -1.1083,1.9251 -1.4178,0 -1.4178,0 l -0.4693,2.3763 c -2.8357,-0.5214 -1.977,-0.9325 -1.8972,-1.6745 0,-0.01 0.7988,-2.236 -0.6889,-4.3116 -0.9186,-1.2734 -0.8687,-0.752 -1.2581,-1.0528 -1.318,-1.0027 -1.9771,0.4713 -0.8787,-2.4566 -0.3994,-0.02 -0.2896,0.05 -0.7888,-0.1103 -2.017,-0.6718 -1.6176,-0.9124 -2.1767,-1.7647 -1.2382,-1.9051 -0.5292,-1.1431 -3.1852,-0.9726 0.2796,-4.3617 1.4678,-2.0154 -0.01,-6.2067 -0.03,-0.09 -0.08,-0.2306 -0.1098,-0.3108 l -0.2596,-1.103 c -0.5892,-1.5642 -1.3879,-1.0528 -1.9771,-4.0108 0.07,-0.03 0.1698,-1.895 1.4179,0.2407 l -3.7843,-1.1832 c 0.5092,1.0027 0.699,1.1732 1.1782,1.8951 -0.8287,1.2434 -0.2396,0.9827 -1.8871,1.4238 v 0.9526 c 1.0783,-0.2507 1.0883,-0.371 2.3564,-0.4813 -0.2995,3.6799 -1.5776,3.8704 -3.305,4.2715 l 1.6975,4.472 c 1.298,1.6043 0.1298,0.1203 1.8771,0.9626 1.1683,0.5615 -0.02,-0.2808 0.8687,0.5515 0.3794,0.3609 0.5891,0.8923 0.7589,1.133 0.9685,-0.5114 1.1183,-0.6518 2.3564,-0.9425 l -0.4693,6.6378 c 1.8472,-0.1504 1.4378,0.2908 1.8872,-1.4238 h 1.4178 c 0.1298,1.5742 0.6191,2.8476 0.9486,4.2714 1.0784,-0.2506 1.0884,-0.3609 2.3664,-0.4712 -0.3495,1.6444 -0.3295,1.6544 0.4693,3.3189 z" transform="translate(1546.889 1515)"/><path d="m -1151.2884,-1501.2188 0.1397,0.1403 c 0,-0.01 -0.1797,-0.1002 -0.1397,-0.1403 z m -9.1363,-0.3209 c -0.9585,-0.381 -0.7888,1.504 -0.7888,-1.103 0.1997,0.2507 0.3295,0.2106 0.7888,1.103 z m 4.4134,-1.103 c -0.1698,-0.9024 0.5991,-1.6945 0.2995,-0.3008 -0.01,0.03 0.01,1.9553 -0.2995,0.3008 z m -5.2022,-0.9525 z m -2.3564,-2.8477 -0.4693,0.9526 0.4393,1.8951 c -1.6075,0.01 -0.4493,0.05 -0.9186,-0.4713 l 3.305,0.4713 v 2.8476 l 0.7888,-0.7921 c -0.7788,-3.6999 -0.1,-1.0428 0.6291,-2.0555 3.3949,0.2406 2.0868,0.6116 3.315,2.8476 l 1.3779,-0.3509 c 0.2496,-0.03 1.4079,-0.06 1.9271,-0.1203 l 1.4179,2.3763 c 0.5491,-1.1932 0.8886,-1.6143 2.3065,-1.7547 l 1.947,0.3309 c 0.2496,-1.5642 0.3595,-1.103 1.4179,-1.4339 -0.4294,-1.0227 -0.8288,-0.2406 0,-0.9425 0.3395,-1.1129 -0.4793,-0.9425 0.4793,-0.9525 l -0.2596,-1.0127 c -0.4893,0.5815 -0.2397,0.3008 -0.7589,0.9425 -0.5292,0.6417 0.08,-0.03 -0.6989,0.7219 -0.9786,0.9626 -0.8288,0.5715 -1.5976,1.7247 -3.1453,-1.6745 -2.4363,-0.8624 -2.8357,-1.9052 -0.2896,-0.742 2.5162,-2.3663 -2.8358,-2.3663 l -0.9485,-2.3764 c -0.1898,1.7948 -1.6975,3.3691 -3.305,3.8002 -0.5692,-2.4365 -0.1898,-1.5943 -2.047,-1.8249 l -0.609,-0.04 c -0.08,-0.01 -0.2197,-0.04 -0.2996,-0.05 -0.8587,-0.1704 0.3495,-0.2807 -1.7673,-0.4612 z" transform="translate(1546.889 1515)"/><path d="m -1132.377,-1486.0381 -0.5392,1.8851 c 2.1068,-1.3536 0.7589,-0.6818 3.3749,-0.4613 -1.2481,-1.7045 0.05,0.03 -1.0184,-0.8723 -0.8687,-0.732 -0.3995,0.1604 -0.8787,-1.0227 z" transform="translate(1546.889 1515)"/><path d="m -1148.4527,-1505.9716 0.5292,1.8851 c 1.987,-0.6618 -0.4294,0.5915 1.288,-1.9252 0.3195,-0.4713 0.2297,-0.03 0.5492,-0.9024 -1.1383,0.2607 -1.4977,0.4211 -2.3664,0.9425 z" transform="translate(1546.889 1515)"/><path d="m -1152.7063,-1506.9141 c 1.2481,1.7045 0.2796,0.6818 2.8357,0.4712 v -0.9525 c -1.1183,0 -2.3065,-0.1203 -2.8357,0.4813 z" transform="translate(1546.889 1515)"/><path d="m -1130.0206,-1477.4951 h 1.8972 l 0.4693,1.4238 c 0,-1.6344 -0.3495,-1.835 -0.4693,-3.3189 -1.5078,1.0027 -1.4179,0.5815 -1.8972,1.8951 z" transform="translate(1546.889 1515)"/><path d="m -1505.7334,-1511.1856 c 0.07,-0.09 0.1798,-0.3409 0.2197,-0.2507 0.04,0.08 0.1897,-0.1905 0.2496,-0.2306 0.6191,-0.3911 -0.4094,0.04 0.9486,-0.4713 v -1.4238 l -1.8772,0.5314 z" transform="translate(1546.889 1515)"/><path d="m -1127.6541,-1447.5948 1.1582,-0.6618 c 0.06,0.02 0.1997,0.1002 0.2596,0.1303 l 0.4094,-1.3436 -1.8272,-0.02 z" transform="translate(1546.889 1515)"/><path d="m -1546.8513,-1456.6091 c 1.2282,-0.8322 1.2581,-0.4812 1.4179,-2.3763 -1.8173,0.4913 -1.4179,0.1303 -1.4179,2.3763 z" transform="translate(1546.889 1515)"/><path d="m -1125.2877,-1473.2237 2.3564,-0.4712 c -1.1882,-1.6444 -2.0069,-0.9025 -2.3564,0.4712 z" transform="translate(1546.889 1515)"/><path d="m -1157.8985,-1421.4948 c 1.4179,-0.381 1.0385,0.01 1.4179,-1.4238 h -1.4179 z" transform="translate(1546.889 1515)"/><path d="m -1357.8167,-1422.4373 c 0.3595,-0.6417 0.2596,-0.5314 0.4793,-1.4238 h -1.4178 c 0.3095,1.2935 -0.1898,0.7319 0.9385,1.4238 z" transform="translate(1546.889 1515)"/><path d="m -1159.3163,-1507.3954 h -2.3665 c 0.8288,1.1631 1.5277,1.1631 2.3665,0 z" transform="translate(1546.889 1515)"/><path d="m -1134.2741,-1489.8283 h 0.4792 c 0,-1.2232 0.1099,-1.1531 0.4693,-1.9051 -1.1682,0.4713 -0.9485,-0.9525 -0.9485,1.9051 z" transform="translate(1546.889 1515)"/><path d="m -1307.243,-1422.9186 h 1.4179 v -0.9425 c -0.8288,0.2005 -1.2681,0.06 -1.4179,0.9425 z" transform="translate(1546.889 1515)"/><path d="m -1146.5556,-1427.1901 v -1.4238 h -0.9486 c 0.3096,1.3035 -0.1897,0.742 0.9486,1.4238 z" transform="translate(1546.889 1515)"/><path d="m -1150.8092,-1426.7088 v -1.4238 h -0.9485 c 0.3095,1.2935 -0.1898,0.732 0.9485,1.4238 z" transform="translate(1546.889 1515)"/><path d="m -1388.061,-1421.966 c 1.3879,-0.3309 0.679,0.06 1.4178,-0.9526 h -1.4178 z" transform="translate(1546.889 1515)"/><path d="m -1130.0206,-1467.9996 h -0.4693 v 1.4238 c 1.2482,-0.9125 1.0185,-0.09 0.4693,-1.4238 z" transform="translate(1546.889 1515)"/><path d="m -1413.5825,-1421.966 c 1.4678,-1.0629 1.4678,-0.361 0,-1.4239 z" transform="translate(1546.889 1515)"/><path d="m -1443.8268,-1422.9186 c 1.3779,-0.3309 0.679,0.06 1.4178,-0.9425 -0.8287,0.2005 -1.268,0.06 -1.4178,0.9425 z" transform="translate(1546.889 1515)"/><path d="m -1152.227,-1423.8611 c 0.1,0.5414 1.0384,1.0327 0.629,0.09 -0.1697,-0.3911 -0.8587,-1.3236 -0.629,-0.09 z" transform="translate(1546.889 1515)"/><path d="m -1270.8579,-1421.0135 c -0.1798,1.0127 0.6789,0.3209 0.639,-0.1003 -0.01,-0.1002 -0.4094,-1.1129 -0.639,0.1003 z" transform="translate(1546.889 1515)"/><path d="m -1130.9592,-1477.0138 0.9187,0.5414 0.02,-1.0227 z" transform="translate(1546.889 1515)"/><path d="m -1509.0483,-1509.2905 c 0,-1.5742 -0.8587,-0.1103 -0.9386,0 z" transform="translate(1546.889 1515)"/><path d="m -1128.6027,-1472.2711 c 0.4893,0.4813 1.7074,-0.6818 0.5492,-0.2607 -0.01,0.01 -1.338,-0.5415 -0.5492,0.2607 z" transform="translate(1546.889 1515)"/><path d="m -1143.7199,-1503.5952 c 0.4793,0.4913 1.7074,-0.6819 0.5492,-0.2607 -0.02,0.01 -1.348,-0.5315 -0.5492,0.2607 z" transform="translate(1546.889 1515)"/><path d="m -1133.7949,-1439.5232 c 0.4793,0.4813 1.7075,-0.6818 0.5392,-0.2607 -0.01,0.01 -1.338,-0.5414 -0.5392,0.2607 z" transform="translate(1546.889 1515)"/><path d="m -1150.8092,-1508.8192 c 0.4793,0.4913 1.7074,-0.6819 0.5492,-0.2507 -0.02,0 -1.348,-0.5415 -0.5492,0.2507 z" transform="translate(1546.889 1515)"/><path d="m -1130.4899,-1459.938 c 0.4893,0.4913 1.7075,-0.6818 0.5492,-0.2507 -0.01,0 -1.3479,-0.5414 -0.5492,0.2507 z" transform="translate(1546.889 1515)"/><path d="m -1128.6027,-1473.6949 c 0.4893,0.4812 1.7074,-0.6819 0.5492,-0.2608 -0.01,0.01 -1.338,-0.5414 -0.5492,0.2608 z" transform="translate(1546.889 1515)"/><path d="m -1135.692,-1496.0048 c 0.4893,0.4913 1.7074,-0.6819 0.5492,-0.2507 -0.01,0 -1.338,-0.5415 -0.5492,0.2507 z" transform="translate(1546.889 1515)"/><path d="m -1379.5539,-1422.4373 c 0,0.5515 1.0185,1.0628 0.7289,0 -0.2795,-1.0729 1.2082,-0.02 -0.2096,-0.1404 -0.5991,-0.06 -0.5193,-0.8322 -0.5193,0.1404 z" transform="translate(1546.889 1515)"/><path d="m -1207.9929,-1420.5422 c 0,0.5615 1.0085,1.0729 0.7289,0 -0.2895,-1.0729 1.1982,-0.01 -0.2196,-0.1404 -0.5991,-0.05 -0.5093,-0.8222 -0.5093,0.1404 z" transform="translate(1546.889 1515)"/><path d="m -1131.4384,-1487.9332 c -0.2397,1.3136 1.1283,-0.2306 0.4693,-0.1905 -0.8787,0.06 -0.2896,-0.7921 -0.4693,0.1905 z" transform="translate(1546.889 1515)"/><path d="m -1148.922,-1425.2849 c -0.2397,1.3135 1.1283,-0.2307 0.4693,-0.1906 -0.8887,0.06 -0.2896,-0.7921 -0.4693,0.1906 z" transform="translate(1546.889 1515)"/><path d="m -1517.5555,-1427.1901 c -0.2397,1.3236 1.1283,-0.2206 0.4693,-0.1804 -0.8787,0.05 -0.2896,-0.7922 -0.4693,0.1804 z" transform="translate(1546.889 1515)"/><path d="m -1336.0695,-1422.4373 c 0,1.1732 0.7489,0.1203 0.2896,0 -0.01,-0.01 -0.2896,-1.3536 -0.2896,0 z" transform="translate(1546.889 1515)"/><path d="m -1129.072,-1488.8857 c 0,1.1831 0.7589,0.1203 0.2896,0 0,0 -0.2896,-1.3436 -0.2896,0 z" transform="translate(1546.889 1515)"/><path d="m -1538.8234,-1441.8996 c 0,1.1832 0.7589,0.1203 0.2995,0 -0.01,0 -0.2995,-1.3436 -0.2995,0 z" transform="translate(1546.889 1515)"/><path d="m -1186.7349,-1420.5422 c 0,1.1832 0.7588,0.1203 0.2995,0 -0.01,0 -0.2995,-1.3436 -0.2995,0 z" transform="translate(1546.889 1515)"/><path d="m -1177.7485,-1510.2431 c 0,1.1832 0.7489,0.1203 0.2896,0 0,0 -0.2896,-1.3436 -0.2896,0 z" transform="translate(1546.889 1515)"/><path d="m -1532.2034,-1437.1568 -1.0384,0.8623 c 1.318,-0.2407 0.6191,0.2707 1.0384,-0.8623 z" transform="translate(1546.889 1515)"/><path d="m -1192.8757,-1508.338 0.8488,1.0428 c -0.2297,-1.3335 0.2695,-0.6216 -0.8488,-1.0428 z" transform="translate(1546.889 1515)"/><path d="m -1234.9322,-1423.3899 h -0.4792 l 0.2596,1.0228 z" transform="translate(1546.889 1515)"/><path d="m -1321.4216,-1512.6094 c -0.8188,0.8222 0.5791,0.3008 0.1298,-0.01 0,-0.01 -0.1,-0.02 -0.1298,0.01 z" transform="translate(1546.889 1515)"/><path d="m -1136.6306,-1442.8521 v 0.4813 l 0.5492,-0.4011 z" transform="translate(1546.889 1515)"/><path d="m -1188.6221,-1509.7618 h 0.4693 l -0.3894,-0.5615 z" transform="translate(1546.889 1515)"/><path d="m -1332.2952,-1512.1382 h 0.4793 l -0.3994,-0.5514 z" transform="translate(1546.889 1515)"/><path d="m -1141.3634,-1500.7476 v -0.4712 l -0.5492,0.391 z" transform="translate(1546.889 1515)"/><path d="m -1489.6676,-1514.0333 h 0.4693 l -0.3894,-0.5615 z" transform="translate(1546.889 1515)"/><path d="m -1469.8176,-1514.0333 v -0.4813 l -0.5491,0.4011 z" transform="translate(1546.889 1515)"/><path d="m -1283.6187,-1423.3899 v 0.4713 l 0.5592,-0.391 z" transform="translate(1546.889 1515)"/><path d="m -1132.377,-1463.7282 v 0.4713 l 0.5492,-0.3911 z" transform="translate(1546.889 1515)"/><path d="m -1367.7417,-1512.1382 h 0.4793 l -0.3994,-0.5514 z" transform="translate(1546.889 1515)"/><path d="m -1224.0686,-1510.7143 h 0.4793 l -0.3994,-0.5515 z" transform="translate(1546.889 1515)"/><path d="m -1416.8875,-1511.1856 h 0.4693 l -0.3894,-0.5615 z" transform="translate(1546.889 1515)"/><path d="m -1504.3155,-1512.1382 v 0.4713 l 0.5492,-0.3911 z" transform="translate(1546.889 1515)"/><path d="m -1128.1234,-1446.6423 h -0.4793 l 0.3994,0.5515 z" transform="translate(1546.889 1515)"/><path d="m -1128.1234,-1446.6423 h 0.4693 l -0.3994,-0.5515 z" transform="translate(1546.889 1515)"/><path d="m -1133.3256,-1494.0997 h 0.4693 l -0.3894,-0.5615 z" transform="translate(1546.889 1515)"/><path d="m -1514.2405,-1507.3954 v -0.4713 l -0.5592,0.3911 z" transform="translate(1546.889 1515)"/><path d="m -1162.6313,-1421.966 c 0.05,0.05 0.1398,-0.2106 0.1398,-0.1404 v 0 c 0,0.01 -0.1798,0.09 -0.1398,0.1404 z" transform="translate(1546.889 1515)"/><path d="m -1135.2127,-1492.6759 c 0.04,0.04 0.1398,-0.2106 0.1398,-0.1504 v 0 c -0.01,0.01 -0.1898,0.1003 -0.1398,0.1504 z" transform="translate(1546.889 1515)"/><path d="m -1160.2649,-1508.338 c 0.05,0.04 0.1398,-0.2105 0.1398,-0.1403 v 0 c -0.01,0 -0.1897,0.09 -0.1398,0.1403 z" transform="translate(1546.889 1515)"/><path d="m -1129.5413,-1485.5568 c 0.04,0.04 0.1398,-0.2106 0.1398,-0.1504 v 0 c -0.01,0.01 -0.1897,0.1003 -0.1398,0.1504 z" transform="translate(1546.889 1515)"/><path d="m -1126.2363,-1472.2711 c 0.05,0.05 0.1398,-0.2106 0.1398,-0.1404 v 0 c -0.01,0.01 -0.1897,0.09 -0.1398,0.1404 z" transform="translate(1546.889 1515)"/><path d="m -1137.5792,-1499.795 c 0.05,0.04 0.1398,-0.2106 0.1398,-0.1504 v 0 c -0.01,0.01 -0.1897,0.1002 -0.1398,0.1504 z" transform="translate(1546.889 1515)"/><path d="m -1223.12,-1421.0135 c 0.05,0.04 0.1398,-0.2105 0.1398,-0.1404 v 0 c -0.01,0 -0.1897,0.09 -0.1398,0.1404 z" transform="translate(1546.889 1515)"/><path d="m -1127.6541,-1479.3902 c 0.05,0.05 0.1398,-0.2106 0.1398,-0.1404 v 0 c -0.01,0.01 -0.1898,0.09 -0.1398,0.1404 z" transform="translate(1546.889 1515)"/><path d="m -1137.5792,-1439.5232 c 0.05,0.04 0.1398,-0.2106 0.1398,-0.1404 v 0 c -0.01,0.01 -0.1897,0.09 -0.1398,0.1404 z" transform="translate(1546.889 1515)"/><path d="m -1134.7434,-1439.5232 c 0.05,0.04 0.1398,-0.2106 0.1398,-0.1404 v 0 c -0.01,0.01 -0.1898,0.09 -0.1398,0.1404 z" transform="translate(1546.889 1515)"/><path d="m -1225.4864,-1509.7618 c 0.05,0.04 0.1398,-0.2106 0.1398,-0.1404 v 0 c -0.01,0 -0.1798,0.09 -0.1398,0.1404 z" transform="translate(1546.889 1515)"/><path d="m -1222.1715,-1509.7618 c 0.04,0.04 0.1398,-0.2106 0.1398,-0.1404 v 0 c -0.01,0 -0.1897,0.09 -0.1398,0.1404 z" transform="translate(1546.889 1515)"/><path d="m -1154.5935,-1423.3899 c -0.03,0.03 -0.01,0.09 -0.01,0.1304 0,0.03 0.02,0.08 0.02,0.08 0.4394,-0.04 -0.659,0.9024 0.1498,-0.05 z" transform="translate(1546.889 1515)"/><path d="m -1536.9263,-1491.2521 0.1398,-0.1504 c -0.01,0.01 -0.1897,0.1003 -0.1398,0.1504 z" transform="translate(1546.889 1515)"/><path d="m -1125.767,-1477.9664 0.1398,-0.1404 c -0.01,0.01 -0.1797,0.09 -0.1398,0.1404 z" transform="translate(1546.889 1515)"/><path d="m -1134.2741,-1442.3708 0.1398,-0.1404 c -0.01,0.01 -0.1798,0.09 -0.1398,0.1404 z" transform="translate(1546.889 1515)"/><path d="m -1140.4149,-1432.8854 0.1398,-0.1403 c -0.01,0.01 -0.1897,0.1002 -0.1398,0.1403 z" transform="translate(1546.889 1515)"/><path d="m -1527.9498,-1500.7476 0.1398,-0.1404 c -0.01,0.01 -0.1897,0.09 -0.1398,0.1404 z" transform="translate(1546.889 1515)"/><path d="m -1514.7198,-1429.0852 0.1398,-0.1403 c 0,0.01 -0.1797,0.09 -0.1398,0.1403 z" transform="translate(1546.889 1515)"/><path d="m -1133.3256,-1433.3566 0.1398,-0.1404 c -0.01,0.01 -0.1897,0.09 -0.1398,0.1404 z" transform="translate(1546.889 1515)"/><path d="m -1134.7434,-1488.8857 0.1398,-0.1404 c -0.01,0.01 -0.1898,0.1003 -0.1398,0.1404 z" transform="translate(1546.889 1515)"/><path d="m -1136.6306,-1440.4757 0.1398,-0.1404 c -0.01,0.01 -0.1897,0.09 -0.1398,0.1404 z" transform="translate(1546.889 1515)"/><path d="m -1152.7063,-1425.2849 0.1398,-0.1404 c 0,0 -0.1797,0.09 -0.1398,0.1404 z" transform="translate(1546.889 1515)"/><path d="m -1141.8327,-1431.9328 0.1398,-0.1404 c -0.01,0.01 -0.1898,0.09 -0.1398,0.1404 z" transform="translate(1546.889 1515)"/><path d="m -1130.0206,-1465.152 0.1398,-0.1404 c -0.01,0.01 -0.1797,0.09 -0.1398,0.1404 z" transform="translate(1546.889 1515)"/><path d="m -1138.5277,-1499.3238 0.1398,-0.1403 c -0.01,0.01 -0.1797,0.09 -0.1398,0.1403 z" transform="translate(1546.889 1515)"/><path d="m -1150.3399,-1425.7662 0.1398,-0.1404 c -0.01,0.01 -0.1897,0.1002 -0.1398,0.1404 z" transform="translate(1546.889 1515)"/><path d="m -1510.9355,-1511.1856 0.1398,-0.1404 c -0.01,0 -0.1897,0.09 -0.1398,0.1404 z" transform="translate(1546.889 1515)"/><path d="m -1526.0627,-1431.9328 0.1498,-0.1404 c -0.01,0.01 -0.1897,0.09 -0.1498,0.1404 z" transform="translate(1546.889 1515)"/><path d="m -1258.0972,-1422.9186 -0.4693,-0.4713 z" transform="translate(1546.889 1515)"/><path d="m -1367.7417,-1512.1382 -0.4693,0.4713 z" transform="translate(1546.889 1515)"/><path d="m -1336.0695,-1511.1856 0.5392,-0.9325 z" transform="translate(1546.889 1515)"/><path d="m -1313.3837,-1511.6669 -1.0185,0.2607 z" transform="translate(1546.889 1515)"/><path d="m -1507.6305,-1510.2431 -0.2596,-1.0127 z" transform="translate(1546.889 1515)"/><path d="m -1212.2464,-1509.2905 -0.2596,-1.0228 z" transform="translate(1546.889 1515)"/><path d="m -1133.3256,-1494.0997 -1.0184,0.2607 z" transform="translate(1546.889 1515)"/></g></g></svg>