<?xml version="1.0" encoding="UTF-8" standalone="no"?><svg xmlns="http://www.w3.org/2000/svg" xmlns:xlink="http://www.w3.org/1999/xlink" contentScriptType="text/ecmascript" fill="#000000" width="485.4" zoomAndPan="magnify" contentStyleType="text/css" viewBox="5.8 204.9 485.4 89.0" height="89" preserveAspectRatio="xMidYMid meet" version="1"><g fill="#f2ff93" id="change1_1"><path fill="inherit" d="M 90.839844 288.65625 C 90.816406 288.65625 90.792969 288.660156 90.769531 288.660156 C 90.753906 288.71875 90.726562 288.769531 90.710938 288.824219 L 90.839844 288.65625"/><path fill="inherit" d="M 209.539062 276.277344 C 210.007812 270.976562 212.5625 270.226562 222.644531 272.308594 C 218.097656 273.304688 213.535156 274.019531 209.539062 276.277344 Z M 186.121094 277.019531 C 185.171875 277.085938 183.707031 276.492188 183.746094 275.511719 C 183.808594 273.882812 185.988281 273.800781 187.648438 273.605469 C 188.546875 273.5 188.863281 274.261719 188.699219 274.941406 C 188.582031 275.980469 187.695312 276.917969 186.121094 277.019531 Z M 91.78125 279.046875 C 91.824219 281.410156 88.492188 283.269531 89.503906 285.800781 C 89.914062 286.824219 88.699219 287.230469 87.398438 287.148438 C 85.9375 287.058594 85.601562 286.28125 85.734375 285.433594 C 85.792969 285.042969 85.945312 284.660156 86.054688 284.273438 C 87.730469 282.375 85.585938 280.953125 84.628906 279.378906 C 84.019531 278.378906 84.140625 277.414062 85.4375 276.699219 C 87 275.835938 88.792969 275.953125 90.523438 276.480469 C 92.304688 277.027344 91.765625 278.101562 91.78125 279.046875 Z M 133.5625 282.839844 C 133.199219 283.046875 132.878906 283.371094 132.464844 283.433594 C 131.707031 283.546875 130.808594 283.523438 130.703125 282.847656 C 130.683594 282.71875 131.59375 282.40625 132.078125 282.40625 C 132.574219 282.40625 133.066406 282.683594 133.5625 282.839844 Z M 112.496094 283.058594 C 112.585938 283.855469 111.523438 284.390625 110.28125 284.613281 C 109.367188 284.636719 108.394531 284.46875 108.617188 283.796875 C 108.773438 283.328125 109.585938 282.84375 110.292969 282.597656 C 111.101562 282.316406 112.441406 282.554688 112.496094 283.058594 Z M 70.964844 281.195312 C 74.316406 280.621094 77.46875 280.316406 78.109375 283.433594 C 75.1875 283.425781 71.433594 284.558594 70.964844 281.195312 Z M 158.523438 275.328125 C 159.296875 275.214844 160.183594 275.269531 160.246094 275.949219 C 160.261719 276.085938 159.375 276.382812 158.914062 276.375 C 158.414062 276.363281 157.925781 276.089844 157.433594 275.929688 C 157.792969 275.71875 158.113281 275.394531 158.523438 275.328125 Z M 185.734375 271.429688 C 184.960938 271.308594 184.78125 270.976562 185.296875 270.375 C 185.839844 270.195312 186.609375 269.726562 187.355469 269.742188 C 188.421875 269.765625 188.519531 270.457031 188.085938 270.960938 C 187.597656 271.53125 186.632812 271.570312 185.734375 271.429688 Z M 262.027344 268.09375 C 263.695312 267.734375 265.582031 267.289062 266.816406 268.523438 C 268.257812 269.964844 265.925781 270.472656 264.925781 271.292969 C 264.476562 271.34375 264.027344 271.402344 263.574219 271.410156 C 261.710938 271.445312 259.6875 271.261719 259.253906 269.949219 C 258.902344 268.894531 260.640625 268.390625 262.027344 268.09375 Z M 218.070312 267.988281 C 217.1875 267.785156 216.503906 267.347656 217.132812 266.828125 C 217.574219 266.46875 218.617188 266.300781 219.40625 266.273438 C 220.28125 266.242188 221.265625 266.59375 220.910156 267.269531 C 220.476562 268.085938 219.226562 268.089844 218.070312 267.988281 Z M 299.976562 265.167969 C 300.011719 265.328125 299.109375 265.566406 298.453125 265.851562 C 297.804688 265.648438 296.539062 265.5 296.40625 265.164062 C 296.140625 264.496094 297.292969 264.425781 298.070312 264.402344 C 298.925781 264.378906 299.84375 264.511719 299.976562 265.167969 Z M 273.023438 265.484375 C 272.648438 265.074219 272.957031 264.6875 273.660156 264.523438 C 274.582031 264.304688 275.460938 264.316406 276.117188 264.910156 C 275.902344 265.1875 275.78125 265.644531 275.378906 265.8125 C 274.542969 266.15625 273.578125 266.097656 273.023438 265.484375 Z M 416.433594 267.019531 C 417.699219 267.519531 416.851562 268.359375 416.871094 269.054688 C 415.617188 268.683594 414.367188 268.316406 413.113281 267.949219 C 413.886719 267.121094 414.804688 266.378906 416.433594 267.019531 Z M 445.914062 269.183594 C 442.671875 270.949219 439.363281 271.347656 435.949219 269.382812 C 437.902344 269.144531 438.683594 267.75 440.28125 267.359375 C 442.84375 266.738281 445.925781 266.117188 445.914062 269.183594 Z M 404.371094 271.472656 C 404.625 270.113281 405.757812 269.28125 407.828125 269.015625 C 408.636719 271.011719 407.597656 271.894531 404.371094 271.472656 Z M 330.835938 275.320312 C 330.683594 275.222656 330.542969 275.128906 330.574219 275.082031 C 330.832031 274.691406 330.941406 274.808594 330.835938 275.320312 Z M 322.597656 277.75 C 325.398438 275.320312 327.652344 274.53125 330.820312 275.429688 C 330.320312 279.023438 326.800781 277.664062 322.597656 277.75 Z M 383.726562 272.144531 C 383.402344 271.257812 383.964844 270.621094 385.429688 270.582031 C 385.910156 270.566406 386.722656 270.839844 386.859375 271.097656 C 387.292969 271.914062 386.714844 272.5625 385.59375 272.996094 C 384.519531 273.132812 383.933594 272.714844 383.726562 272.144531 Z M 361.253906 268.59375 C 358.46875 269.507812 355.660156 269.75 352.640625 269.15625 C 356.328125 267.484375 356.328125 267.484375 361.253906 268.59375 Z M 313.042969 270.011719 C 312.308594 269.753906 312.8125 268.980469 313.382812 268.550781 C 315.421875 267.007812 317.457031 267.695312 320.195312 268.492188 C 319.210938 269.242188 319.050781 269.414062 318.824219 269.53125 C 317.046875 270.453125 315.015625 270.695312 313.042969 270.011719 Z M 289.113281 271.726562 C 288.519531 275.863281 284.261719 275.300781 280.015625 274.992188 C 279.695312 273.011719 282.085938 272.558594 283.488281 271.636719 C 282.320312 269.738281 278.863281 271.285156 277.054688 269.605469 C 280.371094 267.179688 284.613281 268.570312 288.242188 268.769531 C 289.890625 268.863281 290.355469 270.515625 289.113281 271.726562 Z M 261.914062 273.964844 C 262.679688 273.007812 263.996094 272.238281 265.125 271.40625 C 268.6875 273.230469 267.019531 274.480469 263.707031 275.304688 C 262.398438 275.632812 261.238281 274.8125 261.914062 273.964844 Z M 258.148438 260.066406 C 258.085938 259.878906 258.8125 259.492188 259.28125 259.324219 C 260.828125 258.777344 262.21875 259.214844 263.542969 259.742188 C 263.757812 259.828125 263.839844 260.054688 264.085938 260.328125 C 263.292969 260.519531 262.539062 260.832031 261.769531 260.855469 C 260.441406 260.894531 258.648438 261.554688 258.148438 260.066406 Z M 231.070312 258.496094 C 231.171875 257.960938 231.582031 257.378906 232.710938 257.632812 C 234.246094 257.984375 235.074219 258.746094 234.960938 259.804688 C 234.890625 260.480469 233.976562 260.589844 232.910156 260.589844 C 231.261719 260.371094 230.878906 259.507812 231.070312 258.496094 Z M 305.714844 255.421875 C 306.835938 255.496094 307.476562 256.761719 307.058594 257.363281 C 305.890625 259.050781 303.777344 258.425781 301.804688 257.917969 C 302.429688 256.605469 303.242188 255.257812 305.714844 255.421875 Z M 336.902344 255.738281 C 336.625 256.429688 336.605469 256.707031 336.496094 256.722656 C 333.359375 257.164062 330.195312 257.875 327.140625 256.617188 C 326.894531 256.515625 326.90625 255.699219 327.183594 255.570312 C 330.632812 253.96875 333.558594 255.753906 336.902344 255.738281 Z M 346.941406 253.898438 C 348.546875 253.734375 349.890625 254.171875 350.128906 255.277344 C 350.257812 255.867188 349.324219 256.152344 348.703125 256.117188 C 347.179688 256.121094 346.0625 256 345.675781 255.109375 C 345.378906 254.410156 346.085938 253.988281 346.941406 253.898438 Z M 425.820312 253.046875 C 425.5 252.832031 425.894531 251.652344 426.371094 251.515625 C 428.996094 250.738281 431.390625 250.929688 433.175781 252.578125 C 432.808594 252.890625 432.664062 253.152344 432.4375 253.1875 C 430.203125 253.535156 427.863281 254.410156 425.820312 253.046875 Z M 404.597656 250.554688 C 407.136719 249.398438 409.488281 249.320312 411.996094 250.601562 C 409.453125 251.746094 407.101562 251.789062 404.597656 250.554688 Z M 369.179688 255.308594 C 365.277344 257.355469 360.785156 256.109375 356.609375 256.605469 C 360.289062 253.316406 364.984375 255.707031 369.179688 255.308594 Z M 268.910156 260.839844 C 270.621094 257.714844 273.34375 258.25 276.894531 258.800781 C 274.832031 261.289062 272.066406 260.664062 268.910156 260.839844 Z M 373.183594 259.546875 C 373.742188 260.394531 372.695312 260.519531 371.847656 260.703125 C 370.546875 260.761719 369.410156 260.546875 368.84375 259.722656 C 368.246094 258.855469 369.347656 258.722656 370.210938 258.617188 C 371.496094 258.464844 372.625 258.695312 373.183594 259.546875 Z M 380.484375 223.175781 C 380.804688 222.621094 381.691406 222.433594 382.492188 222.691406 C 382.875 222.8125 383.242188 223.261719 383.21875 223.550781 C 383.171875 224.167969 382.527344 224.484375 381.527344 224.398438 C 380.664062 224.179688 380.160156 223.738281 380.484375 223.175781 Z M 249.742188 215.722656 C 249.765625 214.640625 250.878906 214.097656 252.855469 214.003906 C 253.308594 214.207031 254.441406 214.449219 254.546875 214.816406 C 254.929688 216.152344 253.195312 216.269531 251.832031 216.320312 C 251.121094 216.347656 249.734375 215.929688 249.742188 215.722656 Z M 343.996094 212.136719 C 343.984375 209.894531 347.898438 210.320312 350.578125 210.421875 C 354.105469 210.71875 357.820312 209.6875 361.800781 211.03125 C 359.453125 213.886719 355.550781 212.078125 352.804688 212.742188 C 352.046875 213.042969 351.238281 213.644531 350.546875 213.59375 C 348.15625 213.40625 344.011719 214.710938 343.996094 212.136719 Z M 373.570312 212.707031 C 373.203125 212.949219 372.761719 213.144531 372.34375 213.351562 C 372.339844 213.347656 372.332031 213.34375 372.328125 213.339844 C 372.332031 213.34375 372.339844 213.347656 372.34375 213.351562 C 372.761719 213.144531 373.203125 212.949219 373.570312 212.707031 C 373.621094 212.671875 373.3125 212.40625 373.167969 212.246094 C 373.3125 212.40625 373.621094 212.671875 373.570312 212.707031 Z M 285.925781 279.550781 C 286.175781 280.230469 285.503906 280.546875 284.628906 280.734375 C 283.476562 280.875 283.15625 280.328125 282.90625 279.792969 C 282.597656 279.121094 283.164062 278.730469 284.101562 278.648438 C 285.0625 278.566406 285.703125 278.957031 285.925781 279.550781 Z M 231.09375 289.710938 C 231.617188 288.578125 232.277344 287.46875 232.632812 286.316406 C 233.140625 284.683594 234.699219 284.617188 236.671875 284.949219 C 241.019531 283.484375 245.011719 281.679688 249.003906 279.824219 C 253.652344 277.664062 255.441406 278.175781 256.46875 281.734375 C 256.898438 283.21875 257.71875 283.820312 259.785156 283.8125 C 261.878906 283.800781 263.96875 283.679688 266.058594 283.609375 C 266.597656 283.246094 267.136719 282.882812 267.675781 282.519531 C 266.613281 281.996094 266.082031 280.832031 266.867188 280.605469 C 270.199219 279.65625 272.65625 277.277344 276.9375 277.835938 C 282.792969 277.617188 280.851562 279.539062 279.222656 281.382812 C 279.28125 281.957031 279.152344 282.992188 279.4375 283.046875 C 283.320312 283.738281 288.46875 283.792969 289.425781 281.300781 C 290.640625 278.140625 293.734375 278.199219 296.597656 278.238281 C 299.898438 278.285156 302.128906 277.011719 304.898438 276.464844 C 304.679688 274.699219 302.882812 273.050781 304.476562 271.144531 C 305.464844 269.964844 306.742188 270.023438 308.136719 270.339844 C 309.800781 270.714844 308.78125 271.511719 308.707031 272.246094 C 308.550781 273.847656 305.324219 274.664062 306.347656 276.488281 L 306.46875 276.492188 C 308.480469 277.433594 310.773438 277.367188 313.074219 277.277344 C 315.433594 277.1875 317.835938 277.015625 319.289062 278.660156 C 314.8125 278.148438 311 280.898438 306.394531 279.789062 C 303.847656 280.359375 300.324219 278.878906 298.394531 281.46875 C 301.0625 282.972656 303.914062 282.617188 306.867188 282.304688 C 311.03125 281.867188 315.238281 281.597656 319.429688 281.253906 C 324.5625 281.023438 329.648438 282.613281 334.855469 281.308594 C 336.824219 280.8125 339.453125 280.59375 340.847656 281.789062 C 343.589844 284.132812 344.269531 282.691406 345.710938 281.128906 C 346.710938 280.039062 348.269531 278.867188 350.871094 280.011719 C 356.230469 282.363281 362.886719 280.425781 368.488281 282.144531 C 368.65625 282.195312 369.277344 281.621094 369.6875 281.339844 C 369.941406 279.652344 367.898438 277.761719 370.550781 276.316406 C 371.699219 275.6875 373.289062 275.1875 374.792969 275.570312 C 376.683594 276.050781 376.460938 277.054688 375.445312 277.980469 C 374.359375 278.96875 375.113281 279.863281 375.644531 280.785156 C 377.5625 282.523438 379.75 282.738281 382.703125 281.710938 C 388.390625 279.734375 393.910156 277.136719 400.515625 281.070312 C 402.441406 282.21875 405.933594 281.542969 406.0625 278.894531 C 406.65625 278.519531 407.257812 278.144531 407.855469 277.773438 C 418.84375 280.144531 429.820312 278.238281 440.800781 277.726562 C 444.472656 279.261719 447.15625 278.464844 449.976562 276.394531 C 446.695312 274.753906 443.777344 275.269531 440.910156 275.503906 C 440.324219 275.394531 439.75 275.265625 439.1875 275.113281 C 433.78125 275.191406 428.660156 276.84375 423.15625 276.34375 C 422.019531 276.238281 420.746094 276.367188 419.527344 275.34375 C 419.765625 273.527344 423.644531 274.382812 424.515625 273.003906 C 424.414062 272.65625 424.355469 272.308594 424.351562 271.953125 C 420.207031 271.691406 416.066406 271.429688 411.921875 271.164062 C 411.796875 271.710938 411.667969 272.253906 411.542969 272.796875 C 410.613281 273.894531 416.394531 276.308594 409.925781 276.320312 C 409.800781 275.015625 406.132812 273.015625 411.542969 272.796875 C 411.667969 272.253906 411.796875 271.710938 411.921875 271.164062 C 413.691406 270.777344 415.464844 270.386719 417.230469 270 C 422.101562 271 426.597656 268.503906 431.453125 269.351562 C 430.488281 271.855469 427.175781 271.617188 424.351562 271.953125 C 424.355469 272.308594 424.414062 272.65625 424.515625 273.003906 C 427.382812 272.703125 430.285156 272.257812 432.941406 273.445312 C 434.851562 274.296875 436.761719 274.136719 438.722656 273.605469 C 440.558594 272.703125 442.5 273.171875 444.53125 273.238281 C 448.6875 273.371094 450.738281 271.964844 449.871094 269.125 C 454.125 268.339844 459.152344 268.34375 460.449219 264.554688 C 460.535156 264.304688 462.050781 264.261719 462.894531 264.121094 C 466.859375 264.910156 471.679688 263.621094 474.675781 267.027344 C 475.996094 263.898438 471.074219 262.941406 471.898438 260.671875 C 472.558594 259.863281 471.542969 259.652344 470.792969 259.347656 C 468.765625 259.277344 466.761719 259.171875 465.1875 258.179688 C 461.527344 255.8125 461.480469 255.125 464.980469 254.238281 C 465.785156 254.035156 466.742188 253.96875 467.609375 254.007812 C 471.746094 254.179688 471.914062 251.566406 473.558594 250.179688 C 475.714844 248.351562 470.578125 248.308594 470.691406 246.476562 C 473.0625 245.410156 476.527344 245.707031 478.726562 244.253906 C 480.84375 244.140625 483.460938 243.753906 482.113281 242.089844 C 481.148438 240.898438 479.121094 242.117188 477.890625 242.90625 C 477.691406 243.035156 477.628906 243.246094 477.5 243.417969 C 475.742188 243.652344 473.648438 244.222656 472.578125 242.910156 C 471.660156 241.785156 473.695312 241.308594 474.671875 240.609375 C 478.589844 237.808594 482.449219 234.589844 483.710938 231.132812 C 485.117188 227.285156 488.601562 224.488281 491.148438 221.210938 C 489.171875 219.480469 485.921875 220.503906 483.515625 219.710938 C 481.300781 219.296875 479.085938 218.882812 475.90625 218.289062 C 479.203125 216.496094 482.335938 217.855469 484.84375 217.171875 C 485.945312 216.21875 486.445312 215.148438 486.800781 213.964844 C 487.144531 212.808594 488.253906 211.660156 486.007812 210.917969 C 484.097656 210.285156 482.535156 210.648438 481.605469 211.984375 C 480.257812 213.925781 477.894531 212.429688 476.039062 212.667969 C 476.8125 211.46875 480.179688 210.535156 476.878906 208.925781 C 475.367188 208.1875 473.550781 207.425781 472.109375 208.503906 C 469.644531 210.34375 474.328125 210.316406 474.359375 211.585938 C 474.371094 211.960938 474.257812 212.332031 474.203125 212.707031 C 470.949219 212.175781 467.777344 211.433594 464.300781 211.65625 C 462.289062 211.785156 460.730469 211.90625 460.800781 213.605469 C 460.871094 215.367188 460.171875 216.886719 456.730469 216.613281 C 454.035156 216.398438 450.230469 216.792969 449.089844 215.179688 C 446.726562 211.835938 441.765625 211.917969 437.917969 210.546875 C 433.664062 215.027344 433.675781 214.988281 426.023438 213.914062 C 422.441406 213.414062 418.800781 213.089844 415.1875 212.6875 C 413.363281 212.683594 411.542969 212.683594 409.722656 212.683594 C 406.125 214.144531 400.855469 213.554688 399.800781 212.105469 C 396.324219 207.335938 392.707031 209.058594 388.648438 211.183594 C 387.296875 211.894531 386.292969 212.382812 384.984375 211.316406 C 381.65625 208.609375 376.917969 208.890625 372.414062 208.867188 C 360.265625 208.808594 348.113281 208.847656 335.964844 208.847656 C 334.890625 211.414062 329.226562 211.6875 329.003906 214.828125 C 328.976562 215.242188 326.246094 215.328125 324.914062 214.726562 C 323.207031 213.949219 321.097656 213.167969 321.765625 211.515625 C 322.273438 210.253906 323.332031 209.085938 324.167969 207.882812 C 327.105469 208.855469 330.046875 210.1875 332.9375 207.757812 C 329.933594 205.023438 326.988281 206.09375 324.046875 207.761719 C 318.839844 206.976562 313.636719 206.1875 308.429688 205.398438 C 307.039062 204.980469 304.75 204.882812 304.640625 205.621094 C 304.382812 207.308594 306.972656 206.4375 308.304688 206.75 C 310.285156 208.507812 309.019531 210.5 309.4375 212.640625 C 303.539062 212.457031 297.949219 212.53125 292.238281 211.390625 C 286.992188 210.339844 280.980469 209.445312 275.789062 210.105469 C 268.726562 211.003906 262.132812 209.941406 255.332031 209.921875 C 242.945312 209.886719 230.558594 210.191406 218.171875 210.351562 C 217.074219 210.746094 215.972656 211.144531 214.871094 211.539062 C 211.0625 213.460938 207.199219 216.09375 204.171875 210.980469 C 203.960938 210.628906 202.519531 210.613281 201.683594 210.394531 C 197.402344 209.257812 194.738281 210.648438 192.542969 212.839844 C 190.050781 215.324219 187.128906 215.648438 184.964844 212.878906 C 183.378906 210.851562 181.082031 211.101562 178.839844 211.464844 C 176.792969 211.800781 174.578125 211.984375 172.742188 212.4375 C 168.261719 213.53125 164.878906 214.222656 161.199219 211.109375 C 158.765625 209.054688 150.386719 209.105469 148.972656 210.972656 C 145.992188 214.90625 142.980469 213.117188 139.523438 211.691406 C 136.09375 210.277344 132.542969 209.3125 128.355469 210.378906 C 120.4375 212.394531 112.332031 213.019531 103.945312 211.703125 C 101.871094 211.378906 99.726562 211.613281 97.664062 212.195312 C 90.210938 214.300781 82.476562 215.167969 74.371094 214.269531 C 73.511719 214.175781 72.527344 214.230469 71.691406 214.402344 C 62.710938 216.226562 53.605469 213.839844 44.605469 214.757812 C 42.363281 214.988281 41.628906 213.667969 40.242188 212.953125 C 35.332031 210.433594 24.460938 210.457031 21.019531 213.554688 C 18.085938 216.191406 14.605469 218.910156 13.597656 222.273438 C 12.132812 227.144531 10.035156 232.074219 10.132812 236.960938 C 10.234375 242.25 5.792969 248.757812 16.429688 252.347656 C 16.660156 252.425781 16.933594 252.671875 16.914062 252.824219 C 16.140625 258.132812 19.015625 262.855469 22.332031 267.519531 C 22.425781 267.648438 22.21875 267.910156 22.070312 268.078125 C 20.269531 270.144531 22.707031 271.378906 24.144531 272.867188 C 25.925781 274.710938 31.507812 275.523438 28.023438 278.890625 C 27.386719 279.503906 28.742188 279.890625 29.464844 280.1875 C 35.882812 282.835938 42.296875 285.515625 50.476562 284.515625 C 51.714844 284.582031 52.953125 284.652344 54.191406 284.722656 C 53.390625 283.691406 51.9375 283.683594 50.464844 283.699219 C 53.28125 277.796875 61.703125 279.199219 68.324219 277.378906 C 68.5 280.246094 65.515625 279.828125 63.628906 280.292969 C 61.046875 281.8125 58.46875 283.332031 55.886719 284.851562 C 57.285156 285.605469 57.453125 287.234375 60.660156 286.546875 C 66.203125 285.355469 72.089844 285.035156 77.96875 285.101562 C 78.074219 286.269531 82.015625 285.257812 80.707031 287.050781 C 80.117188 287.859375 76.585938 287.847656 78.199219 289.195312 C 79.261719 290.078125 81.410156 291.578125 84.3125 290.238281 C 86.15625 289.386719 88.277344 288.589844 90.769531 288.660156 C 91.441406 285.871094 92.992188 283.464844 97.714844 282.710938 C 100.949219 282.195312 102.742188 283.613281 101.898438 285.933594 C 101.464844 287.121094 100.761719 288.617188 103.035156 288.945312 C 105.886719 289.355469 108.984375 289.308594 111.914062 289.09375 C 114.734375 288.890625 113.957031 287.015625 114.761719 285.835938 C 115.691406 284.472656 116.464844 282.792969 119.222656 282.472656 C 121.199219 282.785156 121.261719 283.9375 121.746094 284.789062 C 124.121094 288.96875 124.078125 288.539062 130.90625 288.570312 C 137.796875 288.597656 137.042969 284.910156 139.289062 282.640625 C 140.851562 282.59375 142.414062 282.542969 143.976562 282.496094 C 148.035156 284.886719 152.890625 283.222656 157.34375 283.613281 C 157.476562 285.019531 156.09375 286.480469 154.441406 285.898438 C 150.226562 284.414062 147.859375 285.871094 144.96875 287.320312 C 151.25 291.183594 151.1875 291.132812 157.140625 288.097656 C 159.261719 287.019531 162.074219 285.296875 164.054688 285.558594 C 169.496094 286.273438 166.421875 283.070312 168.273438 282.328125 C 171.921875 282.394531 175.570312 282.457031 179.21875 282.519531 C 179.226562 283.121094 179.148438 283.730469 179.257812 284.320312 C 179.667969 286.542969 180.796875 287.84375 184.46875 286.089844 C 185.128906 285.773438 186.214844 285.839844 187.105469 285.730469 C 188.5625 286.496094 189.238281 289.984375 191.933594 286.457031 C 192.789062 285.332031 193.867188 284.238281 194.304688 282.847656 C 194.710938 281.550781 196.839844 280.160156 199.78125 281.238281 C 202.289062 280.621094 203.328125 282.261719 205.128906 282.726562 C 205.863281 282.8125 206.597656 282.902344 207.332031 282.988281 C 210.632812 282.894531 213.769531 282.605469 216.507812 281.144531 C 219.527344 279.539062 222.632812 280.019531 225.539062 281.453125 C 227.671875 280.367188 229.609375 279.246094 230.652344 277.480469 C 231.371094 276.261719 233.785156 275.878906 235.25 276.367188 C 237.621094 277.15625 236.265625 278.09375 234.796875 279.015625 C 233.128906 280.0625 238.433594 281.1875 235.226562 282.136719 C 232.214844 283.027344 228.738281 282.730469 225.453125 282.296875 C 223.160156 284.109375 222.671875 286.152344 223.636719 288.378906 C 224.171875 289.675781 223.753906 291.195312 225.710938 292.160156 C 227.570312 291.402344 227.953125 289.265625 231.09375 289.710938"/><path fill="inherit" d="M 275.960938 286.351562 C 273.8125 284.6875 271.648438 285.691406 269.4375 285.746094 C 268.546875 286.277344 267.652344 286.8125 266.757812 287.347656 C 267.121094 288.898438 267.484375 290.449219 267.84375 292 C 268.121094 292.242188 268.226562 292.511719 268.152344 292.808594 C 270.3125 292.1875 272.511719 291.613281 274.628906 290.9375 C 278.605469 289.667969 278.699219 288.472656 275.960938 286.351562"/><path fill="inherit" d="M 288.867188 290.132812 C 289.46875 290.929688 290.027344 291.742188 291.597656 293.929688 C 290.746094 287.863281 298.253906 291.121094 300.921875 288.023438 C 297.355469 287.773438 294.453125 287.371094 291.574219 287.425781 C 289.289062 287.46875 287.4375 288.230469 288.867188 290.132812"/><path fill="inherit" d="M 455.140625 277.152344 C 456.121094 278.191406 457.59375 277.992188 458.992188 277.816406 C 460.5625 277.617188 461.964844 277.023438 461.421875 275.921875 C 461.042969 275.15625 459.390625 275.199219 458.335938 275.550781 C 457.15625 275.941406 455.476562 276.011719 455.140625 277.152344"/><path fill="inherit" d="M 207.011719 287.257812 C 206.414062 287.125 205.820312 286.992188 205.222656 286.859375 C 203.46875 286.980469 201.96875 287.398438 200.949219 288.394531 C 203.019531 288.523438 203.597656 290.734375 205.839844 290.175781 C 207.621094 289.730469 207.429688 288.382812 207.011719 287.257812"/><path fill="inherit" d="M 91.839844 288.375 C 91.59375 288.476562 91.347656 288.574219 91.101562 288.671875 C 91.433594 288.703125 91.761719 288.742188 92.085938 288.78125 C 92.003906 288.644531 91.921875 288.511719 91.839844 288.375"/><path fill="inherit" d="M 90.851562 288.644531 C 90.839844 288.65625 90.710938 288.824219 90.710938 288.824219 C 90.84375 288.773438 90.972656 288.722656 91.101562 288.671875 C 91.015625 288.664062 90.9375 288.648438 90.851562 288.644531"/></g></svg>