<?xml version="1.0" encoding="UTF-8" standalone="no"?><svg xmlns="http://www.w3.org/2000/svg" xmlns:xlink="http://www.w3.org/1999/xlink" contentScriptType="text/ecmascript" fill="#000000" width="388" zoomAndPan="magnify" contentStyleType="text/css" viewBox="0.0 0.0 388.0 460.3" height="460" preserveAspectRatio="xMidYMid meet" version="1"><g><g><g><g><g><g><g><g id="change1_1"><path fill="#e4f076" d="M0,25.9v53.4L6.5,97c0,0-2.1,12.8-2.8,13.9c-0.7,1.1-1.4-1.1-0.4,5.3c1.1,6.4,3.2,12.4,3.2,12.4v5.7 c0,11.7-0.4,12.4,0,20.6c0.4,8.2,0.4,12.8,0,21.7C6.3,180.4,3.3,188,0,195.4v264.9h151.3l12.8-4.8h1.2l12.8,0.9l11.7-0.9 c0,0,2.9,0.4,4.1,0c1.2-0.4,12.2,0.4,12.9,0c0.7-0.4,10.5-2.1,11.2-2.1c0.7,0,4.8-0.9,8.2,1.1c3.4,1.9,21.5,1.8,21.5,1.8 l10.5-1.1c0,0,11.2,2.5,12.4,3.8c1.2,1.3,14.8,0.6,17.1,1.3H321V386h67V25.9H0z M43.9,63.1c-4.8,0-8.7-3.9-8.7-8.7 c0-4.8,3.9-8.7,8.7-8.7c4.8,0,8.7,3.9,8.7,8.7C52.6,59.2,48.7,63.1,43.9,63.1z M93.9,63.1c-4.8,0-8.7-3.9-8.7-8.7 c0-4.8,3.9-8.7,8.7-8.7s8.7,3.9,8.7,8.7C102.6,59.2,98.7,63.1,93.9,63.1z M144,63.1c-4.8,0-8.7-3.9-8.7-8.7 c0-4.8,3.9-8.7,8.7-8.7c4.8,0,8.7,3.9,8.7,8.7C152.7,59.2,148.8,63.1,144,63.1z M194,63.1c-4.8,0-8.7-3.9-8.7-8.7 c0-4.8,3.9-8.7,8.7-8.7c4.8,0,8.7,3.9,8.7,8.7C202.7,59.2,198.8,63.1,194,63.1z M244,63.1c-4.8,0-8.7-3.9-8.7-8.7 c0-4.8,3.9-8.7,8.7-8.7c4.8,0,8.7,3.9,8.7,8.7C252.7,59.2,248.8,63.1,244,63.1z M294,63.1c-4.8,0-8.7-3.9-8.7-8.7 c0-4.8,3.9-8.7,8.7-8.7c4.8,0,8.7,3.9,8.7,8.7C302.8,59.2,298.9,63.1,294,63.1z M344.1,63.1c-4.8,0-8.7-3.9-8.7-8.7 c0-4.8,3.9-8.7,8.7-8.7c4.8,0,8.7,3.9,8.7,8.7C352.8,59.2,348.9,63.1,344.1,63.1z"/></g></g></g></g></g></g></g></g><g><g><g><g><g><g><g id="change2_1"><path fill="#b4b866" d="M388 386L321 460.3 321 386z"/></g></g></g></g></g></g></g><g opacity="0.7"><g><g><g><g><g id="change3_1"><path fill="#140b0e" d="M250.9 44.2L261.5 43.3 267.6 42.6 267.7 39.8 272.5 38.2 272.6 33.1 275.6 30.9 276.2 3.9 111.4 0 111.3 4.9 121.2 11.8 118 16.1 118.6 17.2 113.3 23.5 118.8 27.9 110.4 39.5 110.3 44.4 246.5 47.6z"/></g></g></g></g></g></g></svg>