<?xml version="1.0" encoding="UTF-8" standalone="no"?><svg xmlns="http://www.w3.org/2000/svg" xmlns:xlink="http://www.w3.org/1999/xlink" contentScriptType="text/ecmascript" fill="#000000" width="1801.8" zoomAndPan="magnify" contentStyleType="text/css" viewBox="126.0 162.2 1801.8 1719.0" height="1719" preserveAspectRatio="xMidYMid meet" version="1"><g transform="rotate(-4.301 946.176 1060.908)"><g><g><g><g id="change1_1"><path fill="#e4f076" d="M181.17 295.95H1711.1100000000001V1825.89H181.17z" transform="rotate(-85.699 946.176 1060.908)"/></g></g></g><g><g><g><g><g id="change2_20"><path fill="#ffffff" d="M393.02 547.42H397.26V560.14H393.02z" transform="rotate(-85.699 395.13 553.77)"/></g><g id="change2_1"><path fill="#ffffff" d="M1537.51,641.78l-25.82-1.94l0.32-4.23l25.82,1.94L1537.51,641.78z M1485.86,637.9l-25.82-1.94 l0.32-4.23l25.82,1.94L1485.86,637.9z M1434.22,634.02l-25.82-1.94l0.32-4.23l25.82,1.94L1434.22,634.02z M1382.57,630.14 l-25.82-1.94l0.32-4.23l25.82,1.94L1382.57,630.14z M1330.93,626.25l-25.82-1.94l0.32-4.23l25.82,1.94L1330.93,626.25z M1279.28,622.37l-25.82-1.94l0.32-4.23l25.82,1.94L1279.28,622.37z M1227.64,618.49l-25.82-1.94l0.32-4.23l25.82,1.94 L1227.64,618.49z M1175.99,614.61l-25.82-1.94l0.32-4.23l25.82,1.94L1175.99,614.61z M1124.35,610.72l-25.82-1.94l0.32-4.23 l25.82,1.94L1124.35,610.72z M1072.7,606.84l-25.82-1.94l0.32-4.23l25.82,1.94L1072.7,606.84z M1021.06,602.96l-25.82-1.94 l0.32-4.23l25.82,1.94L1021.06,602.96z M969.41,599.08l-25.82-1.94l0.32-4.23l25.82,1.94L969.41,599.08z M917.77,595.19 l-25.82-1.94l0.32-4.23l25.82,1.94L917.77,595.19z M866.13,591.31l-25.82-1.94l0.32-4.23l25.82,1.94L866.13,591.31z M814.48,587.43l-25.82-1.94l0.32-4.23l25.82,1.94L814.48,587.43z M762.83,583.55l-25.82-1.94l0.32-4.23l25.82,1.94 L762.83,583.55z M711.19,579.66l-25.82-1.94l0.32-4.23l25.82,1.94L711.19,579.66z M659.55,575.78l-25.82-1.94l0.32-4.23 l25.82,1.94L659.55,575.78z M607.9,571.9l-25.82-1.94l0.32-4.23l25.82,1.94L607.9,571.9z M556.26,568.02l-25.82-1.94 l0.32-4.23l25.82,1.94L556.26,568.02z M504.61,564.13l-25.82-1.94l0.32-4.23l25.82,1.94L504.61,564.13z M452.97,560.25 l-25.82-1.94l0.32-4.23l25.82,1.94L452.97,560.25z"/></g><g id="change2_9"><path fill="#ffffff" d="M1567.71 635.73H1571.95V648.45H1567.71z" transform="rotate(-85.705 1569.769 642.099)"/></g></g></g></g><g><g><g><g id="change2_21"><path fill="#ffffff" d="M380.66 711.85H384.90000000000003V724.57H380.66z" transform="rotate(-85.705 382.757 718.194)"/></g><g id="change2_11"><path fill="#ffffff" d="M1525.14,806.21l-25.82-1.94l0.32-4.23l25.82,1.94L1525.14,806.21z M1473.5,802.33l-25.82-1.94 l0.32-4.23l25.82,1.94L1473.5,802.33z M1421.86,798.45l-25.82-1.94l0.32-4.23l25.82,1.94L1421.86,798.45z M1370.21,794.56 l-25.82-1.94l0.32-4.23l25.82,1.94L1370.21,794.56z M1318.57,790.68l-25.82-1.94l0.32-4.23l25.82,1.94L1318.57,790.68z M1266.92,786.8l-25.82-1.94l0.32-4.23l25.82,1.94L1266.92,786.8z M1215.28,782.92l-25.82-1.94l0.32-4.23l25.82,1.94 L1215.28,782.92z M1163.63,779.03l-25.82-1.94l0.32-4.23l25.82,1.94L1163.63,779.03z M1111.99,775.15l-25.82-1.94l0.32-4.23 l25.82,1.94L1111.99,775.15z M1060.34,771.27l-25.82-1.94l0.32-4.23l25.82,1.94L1060.34,771.27z M1008.7,767.39l-25.82-1.94 l0.32-4.23l25.82,1.94L1008.7,767.39z M957.05,763.5l-25.82-1.94l0.32-4.23l25.82,1.94L957.05,763.5z M905.41,759.62 l-25.82-1.94l0.32-4.23l25.82,1.94L905.41,759.62z M853.76,755.74l-25.82-1.94l0.32-4.23l25.82,1.94L853.76,755.74z M802.12,751.86l-25.82-1.94l0.32-4.23l25.82,1.94L802.12,751.86z M750.47,747.98l-25.82-1.94l0.32-4.23l25.82,1.94 L750.47,747.98z M698.83,744.09l-25.82-1.94l0.32-4.23l25.82,1.94L698.83,744.09z M647.19,740.21l-25.82-1.94l0.32-4.23 l25.82,1.94L647.19,740.21z M595.54,736.33l-25.82-1.94l0.32-4.23l25.82,1.94L595.54,736.33z M543.89,732.44l-25.82-1.94 l0.32-4.23l25.82,1.94L543.89,732.44z M492.25,728.56l-25.82-1.94l0.32-4.23l25.82,1.94L492.25,728.56z M440.61,724.68 l-25.82-1.94l0.32-4.23l25.82,1.94L440.61,724.68z"/></g><g id="change2_3"><path fill="#ffffff" d="M1555.35 800.16H1559.59V812.88H1555.35z" transform="rotate(-85.705 1557.405 806.521)"/></g></g></g></g><g><g><g><g id="change2_10"><path fill="#ffffff" d="M368.3 876.28H372.54V889H368.3z" transform="rotate(-85.705 370.393 882.616)"/></g><g id="change2_5"><path fill="#ffffff" d="M1512.79,970.64l-25.82-1.94l0.32-4.23l25.82,1.94L1512.79,970.64z M1461.14,966.76l-25.82-1.94 l0.32-4.23l25.82,1.94L1461.14,966.76z M1409.5,962.87l-25.82-1.94l0.32-4.23l25.82,1.94L1409.5,962.87z M1357.85,958.99 l-25.82-1.94l0.32-4.23l25.82,1.94L1357.85,958.99z M1306.21,955.11l-25.82-1.94l0.32-4.23l25.82,1.94L1306.21,955.11z M1254.56,951.23l-25.82-1.94l0.32-4.23l25.82,1.94L1254.56,951.23z M1202.92,947.34l-25.82-1.94l0.32-4.23l25.82,1.94 L1202.92,947.34z M1151.27,943.46l-25.82-1.94l0.32-4.23l25.82,1.94L1151.27,943.46z M1099.63,939.58l-25.82-1.94l0.32-4.23 l25.82,1.94L1099.63,939.58z M1047.98,935.7l-25.82-1.94l0.32-4.23l25.82,1.94L1047.98,935.7z M996.34,931.81l-25.82-1.94 l0.32-4.23l25.82,1.94L996.34,931.81z M944.69,927.93l-25.82-1.94l0.32-4.23l25.82,1.94L944.69,927.93z M893.05,924.05 l-25.82-1.94l0.32-4.23l25.82,1.94L893.05,924.05z M841.41,920.17l-25.82-1.94l0.32-4.23l25.82,1.94L841.41,920.17z M789.76,916.28l-25.82-1.94l0.32-4.23l25.82,1.94L789.76,916.28z M738.12,912.4l-25.82-1.94l0.32-4.23l25.82,1.94 L738.12,912.4z M686.47,908.52l-25.82-1.94l0.32-4.23l25.82,1.94L686.47,908.52z M634.83,904.64L609,902.7l0.32-4.23 l25.82,1.94L634.83,904.64z M583.18,900.75l-25.82-1.94l0.32-4.23l25.82,1.94L583.18,900.75z M531.54,896.87l-25.82-1.94 l0.32-4.23l25.82,1.94L531.54,896.87z M479.89,892.99l-25.82-1.94l0.32-4.23l25.82,1.94L479.89,892.99z M428.25,889.11 l-25.82-1.94l0.32-4.23l25.82,1.94L428.25,889.11z"/></g><g id="change2_16"><path fill="#ffffff" d="M1542.99 964.59H1547.23V977.3100000000001H1542.99z" transform="rotate(-85.705 1545.042 970.943)"/></g></g></g></g><g><g><g><g id="change2_14"><path fill="#ffffff" d="M355.94 1040.71H360.18V1053.43H355.94z" transform="rotate(-85.705 358.03 1047.038)"/></g><g id="change2_15"><path fill="#ffffff" d="M1500.43,1135.07l-25.82-1.94l0.32-4.23l25.82,1.94L1500.43,1135.07z M1448.78,1131.18l-25.82-1.94 l0.32-4.23l25.82,1.94L1448.78,1131.18z M1397.14,1127.3l-25.82-1.94l0.32-4.23l25.82,1.94L1397.14,1127.3z M1345.49,1123.42 l-25.82-1.94l0.32-4.23l25.82,1.94L1345.49,1123.42z M1293.85,1119.54l-25.82-1.94l0.32-4.23l25.82,1.94L1293.85,1119.54z M1242.2,1115.65l-25.82-1.94l0.32-4.23l25.82,1.94L1242.2,1115.65z M1190.56,1111.77l-25.82-1.94l0.32-4.23l25.82,1.94 L1190.56,1111.77z M1138.91,1107.89l-25.82-1.94l0.32-4.23l25.82,1.94L1138.91,1107.89z M1087.27,1104.01l-25.82-1.94 l0.32-4.23l25.82,1.94L1087.27,1104.01z M1035.62,1100.12l-25.82-1.94l0.32-4.23l25.82,1.94L1035.62,1100.12z M983.98,1096.24l-25.82-1.94l0.32-4.23l25.82,1.94L983.98,1096.24z M932.33,1092.36l-25.82-1.94l0.32-4.23l25.82,1.94 L932.33,1092.36z M880.69,1088.48l-25.82-1.94l0.32-4.23l25.82,1.94L880.69,1088.48z M829.04,1084.59l-25.82-1.94l0.32-4.23 l25.82,1.94L829.04,1084.59z M777.4,1080.71l-25.82-1.94l0.32-4.23l25.82,1.94L777.4,1080.71z M725.75,1076.83l-25.82-1.94 l0.32-4.23l25.82,1.94L725.75,1076.83z M674.11,1072.95l-25.82-1.94l0.32-4.23l25.82,1.94L674.11,1072.95z M622.47,1069.06 l-25.82-1.94l0.32-4.23l25.82,1.94L622.47,1069.06z M570.82,1065.18l-25.82-1.94l0.32-4.23l25.82,1.94L570.82,1065.18z M519.18,1061.3l-25.82-1.94l0.32-4.23l25.82,1.94L519.18,1061.3z M467.53,1057.42l-25.82-1.94l0.32-4.23l25.82,1.94 L467.53,1057.42z M415.89,1053.54l-25.82-1.94l0.32-4.23l25.82,1.94L415.89,1053.54z"/></g><g id="change2_2"><path fill="#ffffff" d="M1530.63 1129.01H1534.8700000000001V1141.73H1530.63z" transform="rotate(-85.705 1532.678 1135.365)"/></g></g></g></g><g><g><g><g id="change2_12"><path fill="#ffffff" d="M343.58 1205.13H347.82V1217.8500000000001H343.58z" transform="rotate(-85.705 345.666 1211.46)"/></g><g id="change2_17"><path fill="#ffffff" d="M1488.06,1299.49l-25.82-1.94l0.32-4.23l25.82,1.94L1488.06,1299.49z M1436.42,1295.61l-25.82-1.94 l0.32-4.23l25.82,1.94L1436.42,1295.61z M1384.78,1291.73l-25.82-1.94l0.32-4.23l25.82,1.94L1384.78,1291.73z M1333.13,1287.85l-25.82-1.94l0.32-4.23l25.82,1.94L1333.13,1287.85z M1281.49,1283.96l-25.82-1.94l0.32-4.23l25.82,1.94 L1281.49,1283.96z M1229.84,1280.08l-25.82-1.94l0.32-4.23l25.82,1.94L1229.84,1280.08z M1178.2,1276.2l-25.82-1.94 l0.32-4.23l25.82,1.94L1178.2,1276.2z M1126.55,1272.32l-25.82-1.94l0.32-4.23l25.82,1.94L1126.55,1272.32z M1074.91,1268.43 l-25.82-1.94l0.32-4.23l25.82,1.94L1074.91,1268.43z M1023.26,1264.55l-25.82-1.94l0.32-4.23l25.82,1.94L1023.26,1264.55z M971.62,1260.67l-25.82-1.94l0.32-4.23l25.82,1.94L971.62,1260.67z M919.97,1256.79l-25.82-1.94l0.32-4.23l25.82,1.94 L919.97,1256.79z M868.33,1252.9l-25.82-1.94l0.32-4.23l25.82,1.94L868.33,1252.9z M816.68,1249.02l-25.82-1.94l0.32-4.23 l25.82,1.94L816.68,1249.02z M765.04,1245.14l-25.82-1.94l0.32-4.23l25.82,1.94L765.04,1245.14z M713.39,1241.26l-25.82-1.94 l0.32-4.23l25.82,1.94L713.39,1241.26z M661.75,1237.38l-25.82-1.94l0.32-4.23l25.82,1.94L661.75,1237.38z M610.1,1233.49 l-25.82-1.94l0.32-4.23l25.82,1.94L610.1,1233.49z M558.46,1229.61l-25.82-1.94l0.32-4.23l25.82,1.94L558.46,1229.61z M506.81,1225.73l-25.82-1.94l0.32-4.23l25.82,1.94L506.81,1225.73z M455.17,1221.84l-25.82-1.94l0.32-4.23l25.82,1.94 L455.17,1221.84z M403.53,1217.96l-25.82-1.94l0.32-4.23l25.82,1.94L403.53,1217.96z"/></g><g id="change2_7"><path fill="#ffffff" d="M1518.27 1293.44H1522.51V1306.16H1518.27z" transform="rotate(-85.705 1520.314 1299.787)"/></g></g></g></g><g><g><g><g id="change2_8"><path fill="#ffffff" d="M331.22 1369.56H335.46000000000004V1382.28H331.22z" transform="rotate(-85.705 333.302 1375.882)"/></g><g id="change2_6"><path fill="#ffffff" d="M1475.7,1463.92l-25.82-1.94l0.32-4.23l25.82,1.94L1475.7,1463.92z M1424.06,1460.04l-25.82-1.94 l0.32-4.23l25.82,1.94L1424.06,1460.04z M1372.41,1456.16l-25.82-1.94l0.32-4.23l25.82,1.94L1372.41,1456.16z M1320.77,1452.27l-25.82-1.94l0.32-4.23l25.82,1.94L1320.77,1452.27z M1269.12,1448.39l-25.82-1.94l0.32-4.23l25.82,1.94 L1269.12,1448.39z M1217.48,1444.51l-25.82-1.94l0.32-4.23l25.82,1.94L1217.48,1444.51z M1165.84,1440.63l-25.82-1.94 l0.32-4.23l25.82,1.94L1165.84,1440.63z M1114.19,1436.74l-25.82-1.94l0.32-4.23l25.82,1.94L1114.19,1436.74z M1062.55,1432.86l-25.82-1.94l0.32-4.23l25.82,1.94L1062.55,1432.86z M1010.9,1428.98l-25.82-1.94l0.32-4.23l25.82,1.94 L1010.9,1428.98z M959.26,1425.1l-25.82-1.94l0.32-4.23l25.82,1.94L959.26,1425.1z M907.61,1421.21l-25.82-1.94l0.32-4.23 l25.82,1.94L907.61,1421.21z M855.97,1417.33l-25.82-1.94l0.32-4.23l25.82,1.94L855.97,1417.33z M804.32,1413.45l-25.82-1.94 l0.32-4.23l25.82,1.94L804.32,1413.45z M752.68,1409.57l-25.82-1.94l0.32-4.23l25.82,1.94L752.68,1409.57z M701.03,1405.68 l-25.82-1.94l0.32-4.23l25.82,1.94L701.03,1405.68z M649.39,1401.8l-25.82-1.94l0.32-4.23l25.82,1.94L649.39,1401.8z M597.74,1397.92l-25.82-1.94l0.32-4.23l25.82,1.94L597.74,1397.92z M546.1,1394.04l-25.82-1.94l0.32-4.23l25.82,1.94 L546.1,1394.04z M494.45,1390.15l-25.82-1.94l0.32-4.23l25.82,1.94L494.45,1390.15z M442.81,1386.27l-25.82-1.94l0.32-4.23 l25.82,1.94L442.81,1386.27z M391.17,1382.39l-25.82-1.94l0.32-4.23l25.82,1.94L391.17,1382.39z"/></g><g id="change2_4"><path fill="#ffffff" d="M1505.91 1457.87H1510.15V1470.59H1505.91z" transform="rotate(-85.705 1507.95 1464.21)"/></g></g></g></g><g><g><g><g id="change2_13"><path fill="#ffffff" d="M318.86 1533.99H323.1V1546.71H318.86z" transform="rotate(-85.699 320.961 1540.31)"/></g><g id="change2_18"><path fill="#ffffff" d="M1463.34,1628.35l-25.82-1.94l0.32-4.23l25.82,1.94L1463.34,1628.35z M1411.7,1624.47l-25.82-1.94 l0.32-4.23l25.82,1.94L1411.7,1624.47z M1360.05,1620.58l-25.82-1.94l0.32-4.23l25.82,1.94L1360.05,1620.58z M1308.41,1616.7 l-25.82-1.94l0.32-4.23l25.82,1.94L1308.41,1616.7z M1256.76,1612.82l-25.82-1.94l0.32-4.23l25.82,1.94L1256.76,1612.82z M1205.12,1608.94l-25.82-1.94l0.32-4.23l25.82,1.94L1205.12,1608.94z M1153.48,1605.05l-25.82-1.94l0.32-4.23l25.82,1.94 L1153.48,1605.05z M1101.83,1601.17l-25.82-1.94l0.32-4.23l25.82,1.94L1101.83,1601.17z M1050.18,1597.29l-25.82-1.94 l0.32-4.23l25.82,1.94L1050.18,1597.29z M998.54,1593.41l-25.82-1.94l0.32-4.23l25.82,1.94L998.54,1593.41z M946.9,1589.52 l-25.82-1.94l0.32-4.23l25.82,1.94L946.9,1589.52z M895.25,1585.64l-25.82-1.94l0.32-4.23l25.82,1.94L895.25,1585.64z M843.61,1581.76l-25.82-1.94l0.32-4.23l25.82,1.94L843.61,1581.76z M791.96,1577.88l-25.82-1.94l0.32-4.23l25.82,1.94 L791.96,1577.88z M740.32,1574l-25.82-1.94l0.32-4.23l25.82,1.94L740.32,1574z M688.67,1570.11l-25.82-1.94l0.32-4.23 l25.82,1.94L688.67,1570.11z M637.03,1566.23l-25.82-1.94l0.32-4.23l25.82,1.94L637.03,1566.23z M585.38,1562.35l-25.82-1.94 l0.32-4.23l25.82,1.94L585.38,1562.35z M533.74,1558.47l-25.82-1.94l0.32-4.23l25.82,1.94L533.74,1558.47z M482.09,1554.58 l-25.82-1.94l0.32-4.23l25.82,1.94L482.09,1554.58z M430.45,1550.7l-25.82-1.94l0.32-4.23l25.82,1.94L430.45,1550.7z M378.8,1546.82l-25.82-1.94l0.32-4.23l25.82,1.94L378.8,1546.82z"/></g><g id="change2_19"><path fill="#ffffff" d="M1493.55 1622.3H1497.79V1635.02H1493.55z" transform="rotate(-85.705 1495.587 1628.632)"/></g></g></g></g></g><g><g opacity="0.5"><g id="change3_1"><path fill="#000000" d="M1889.55,581.06c-0.41-3.75-3.81-6.83-4.1-10.65c-0.84-11.04,21.62-10.96,21.99-22.03 c0.24-7.04-8.27-10.06-9.1-16.25c-1.26-9.41,10.18-10.87,17.62-12.55c4.16-0.94,8.12-1.34,11.82-1.12l-579.44-356.3l-1.14,1.85 c6.42,7.37,12.48,19.09,8.87,27.17c-3.19,7.13-11.51,10.01-18.19,14.07c-6.67,4.06-12.58,12.89-7.95,19.18 c3.47,4.71,12.05,6.9,10.83,12.63c-0.36,1.68-1.61,3.02-2.97,4.05c-5.77,4.35-13.63,4.26-20.52,6.44 c-6.89,2.18-13.7,9.4-10.51,15.89c2.03,4.13,7.65,8.29,4.75,11.86c-0.77,0.95-1.98,1.42-3.13,1.84 c-8.58,3.16-17.16,6.31-25.74,9.46c-3.97,1.46-8.66,3.9-8.63,8.12c0.03,5.89,9.45,9.03,8.38,14.83 c-0.3,1.63-1.45,2.98-2.66,4.11c-6.71,6.23-17,8.7-21.53,16.66c-2.06,3.62-2.6,7.88-3.29,12.06l566.18,348.15 c-1.67-6.68-6.18-13.16-3.93-19.56c2.21-6.3,9.65-8.69,16.04-10.62c3.96-1.19,8.27-3.01,11.15-5.79l3.02-4.91 c0.12-0.45,0.22-0.92,0.27-1.4c0.34-3.1-0.93-6.19-0.68-9.29c0.39-4.97,4.57-8.87,9.06-11.04c1.98-0.95,4.06-1.66,6.15-2.35 l9.08-14.76c-2.32-2.99-5.04-6.12-5.02-9.61c0.03-7.81,11.94-8.81,18.75-12.71L1889.55,581.06z"/></g></g></g></g></g></svg>
