<?xml version="1.0" encoding="UTF-8" standalone="no"?><svg xmlns="http://www.w3.org/2000/svg" xmlns:xlink="http://www.w3.org/1999/xlink" contentScriptType="text/ecmascript" fill="#000000" width="1609.3" zoomAndPan="magnify" contentStyleType="text/css" viewBox="0.0 0.0 1609.3 1742.0" height="1742" data-name="圖層 1" preserveAspectRatio="xMidYMid meet" version="1"><g id="change1_1"><rect rx="14.34" width="1609.35" ry="14.34" fill="#e4f076" y="132.7" height="1609.35"/></g><g id="change2_1"><path fill="#000000" opacity="0.6" d="M490.85 140.56L505.98 166.63 506.47 177.06 506.47 177.06 506.98 187.78 507.32 194.96 512.61 203.84 522.83 220.97 521.9 222.95 508.27 251.94 522.76 276.11 1069.08 186.02 1054.59 161.86 1069.15 130.89 1053.63 104.88 1053.26 97.03 1053.22 96.25 1052.3 76.54 1037.16 50.47 1026.97 23.58 1036.38 4.64 1038.69 0 1007.17 5.2 786.35 41.61 757.41 46.38 538.9 82.41 516.32 86.13 492.37 90.08 480.65 113.67 490.85 140.56z"/></g></svg>