<?xml version="1.0" encoding="UTF-8" standalone="no"?><svg xmlns="http://www.w3.org/2000/svg" xmlns:xlink="http://www.w3.org/1999/xlink" contentScriptType="text/ecmascript" fill="#000000" width="859.7" zoomAndPan="magnify" contentStyleType="text/css" viewBox="0.0 -0.0 859.7 923.8" height="923.8" data-name="Layer 2" preserveAspectRatio="xMidYMid meet" version="1"><g data-name="Layer 1"><g><g id="change1_1"><path fill="#e4f076" d="m848.68,923.76H0V75.08h628.65c125.73,0,220.71,0,220.03,0,2.2,0,11.05,94.3,0,220.03v628.65Z"/></g><g id="change2_1"><path fill="#000000" opacity="0.35" d="m664.24,127.02l-17.16,2.89c-11.01,1.35-26.53,4.47-45.25,7.63-18.77,2.87-40.74,5.85-63.97,10.79-23.38,4.11-48.4,7.99-73.34,12.37-25.09,3.46-49.74,9.53-73.34,12.37-23.12,5.65-45.27,7.53-63.97,10.79-18.72,3.2-34.33,5.79-45.25,7.63s-17.16,2.89-17.16,2.89c0,0-.6-3.53-1.59-9.41-4.05-.53,12.4-4.76-.71-4.21,16.39-4.42,2.03-3.87-.91-5.42-15.02.48-9.76-2.64-.46-6.59,2.93-2.89-1.87-4.62-1.89-7.3,2.42-2.12-.49-3.91.03-6.58-21.73,2.37,9.18-4.21.72-4.2,36.46-7.56,4.51-3.64-3.21-3.81-29.86,3.56-14.84-.46-18.83-1.27-1.21-1.27,2.11-3.29,17.99-7.38,1.04-1.59,5.58-3.72,2.76-4.53-16.21,1.45-26.36,1.95-4.61-2.82-10.42-.74-7.38-3.85-1-7.58-17.23,1.58-10.05-.97-2.05-3.66-.96-1.18,6.95-3.87.46-4.12,15.95-5.39-17.68-2.4-.36-7.95-8.8.17,8.72-4.08-4.09-3.2.57-1.37-2.47-2.11,1.88-4.07-1.84-1.44.69-3.44.02-4.77,8.32-2.84,20.14-6.13,2.08-4.27,5.57-3.3,11.23-6.17-4.51-5.22-7.95-2.06,8.7-7.42-1.56-9.27,6.44-4.9-4.06-8.09-1.59-9.41-5.16-3.22-1.96-.95,7.86-1.33,11.88-2.02-19.87,3.35,9.31-1.56,8.33-1.39-16.63,2.83,12.42-2.11,16.52-3.23,24.29-4.72,8.45-2.07,14.41-2.46-5.23.98,6.69-.87,13.31-2.09,36.89-5.87,8.63-1,13.41-2.16,7.18-1.09,9.06-1.59.96-.65,13.43-2.76,9.55-2.01,15.11-2.45,8.88-1.18,10.14-1.42.09-.05.86-.21,14.11-2.47,8.73-1.49-2.76.44,14.79-2.49,8.98-1.49,13.44-2.18,15.39-2.41,5.33-.25,31.98-4.41,36.25-5.12,19.61-3.3,13.13-2.53,37.09-7.25,12.45-3.41,24.73-5.63,37.06-7.46s24.53-3.22,36.28-4.91c22.96-6.59,45.28-7.44,63.97-10.79,18.77-2.89,34.61-4.12,45.25-7.63l17.16-2.89s1.34,7.94,3.35,19.85c24.14-1.01,13.28,4.14,14.38,7.46,17.16-1.14-15.77,6.22,8.35,3.99,1.26,1.63-17.84,6.73-19.3,8.89,3.67,1.29-4.62,4.64-16.57,8.62-2.89,2.46-.1,3.98,17.56,3.01-3.15,4.55-3.93,8.76,2.94,11.69-.23,4.12,6.77,7.02,3.21,11.64,3.15,3.49,10.57,6.19.73,11.68-14.6,13.94,2.01,21.47,4.8,28.47l1.98,11.72Z"/></g></g></g></svg>