<?xml version="1.0" encoding="UTF-8" standalone="no"?><svg xmlns="http://www.w3.org/2000/svg" xmlns:xlink="http://www.w3.org/1999/xlink" contentScriptType="text/ecmascript" fill="none" width="490" zoomAndPan="magnify" style="fill: none" contentStyleType="text/css" viewBox="5.0 9.0 490.0 481.5" height="481.5" preserveAspectRatio="xMidYMid meet" version="1"><g id="change1_1"><path fill="#e4f076" d="M5 64.7327L46.6188 62.0587C200.863 51.672 343.537 45.3863 474.641 43.2017C477.539 111.843 484.325 257.82 495 481.13C325.905 485.94 166.99 489.052 18.2542 490.466C15.8856 351.741 11.4676 209.83 5 64.7327Z"/></g><g id="change2_1"><path fill="#140b0e" d="M359.823 9L116.76 18.0813L112.539 22.4954C112.638 22.8034 112.887 23.0297 113.284 23.1744C116.746 24.035 118.166 24.5873 117.543 24.8315C114.412 27.7437 112.86 29.5443 112.89 30.2331L118.188 32.2593L114.057 36.4983C113.698 36.9718 113.53 37.3346 113.552 37.5867L118.328 40.0124L116.613 45.5104L120.06 47.5908L116.588 52.7993C121.59 54.8249 123.766 55.9026 123.118 56.0326L117.893 61.41L124.33 64.0661C119.677 67.8963 117.602 70.077 118.103 70.608C117.717 71.2233 118.272 72.3689 119.768 74.0448L118.731 77.1361L119.926 79.8503C119.739 82.7822 119.787 84.7594 120.07 85.7821L363.237 76.6956L362.811 76.2164L364.451 73.387C361 72.3902 359.255 71.4376 359.216 70.5293L361.504 67.3264C365.133 65.0391 366.503 63.8867 365.615 63.8691C359.058 62.5349 356.185 61.6576 356.997 61.2372C360.119 58.008 363.115 55.8617 365.984 54.7983L367.572 52.7745C367.635 52.4547 367.371 52.1869 366.78 51.9709C363.779 51.2049 362.266 50.7602 362.24 50.6369C360.84 49.7851 359.782 48.9871 359.068 48.2429L364.209 41.3485C361.914 39.476 360.636 37.7299 360.374 36.1103C360.643 34.7708 361.774 32.9753 363.767 30.7237C359.26 28.6697 357.099 27.1963 357.285 26.3034L361.896 19.6647C362.729 19.7669 361.638 19.026 358.621 17.4422C358.411 17.1788 358.361 16.9345 358.472 16.7092L364.301 11.6951L359.823 9Z"/></g></svg>