<?xml version="1.0" encoding="UTF-8" standalone="no"?><svg xmlns="http://www.w3.org/2000/svg" xmlns:xlink="http://www.w3.org/1999/xlink" contentScriptType="text/ecmascript" fill="#000000" width="605" zoomAndPan="magnify" contentStyleType="text/css" viewBox="0.0 0.0 604.6 595.3" height="595" data-name="Layer 2" preserveAspectRatio="xMidYMid meet" version="1"><g data-name="Layer 1"><g data-name="10"><g id="change1_1"><path fill="#e4f076" d="m79.28,42.89l-53.86,495.23,525.33,57.13,53.86-495.23L79.28,42.89Zm-9.52,471.11c-9.57-1.04-16.48-9.64-15.44-19.2,1.04-9.57,9.64-16.48,19.2-15.44,9.57,1.04,16.48,9.64,15.44,19.2s-9.64,16.48-19.2,15.44Zm8.76-80.52c-9.57-1.04-16.48-9.64-15.44-19.2,1.04-9.57,9.64-16.48,19.2-15.44s16.48,9.64,15.44,19.2c-1.04,9.57-9.64,16.48-19.2,15.44Zm8.76-80.52c-9.57-1.04-16.48-9.64-15.44-19.2,1.04-9.57,9.64-16.48,19.2-15.44,9.57,1.04,16.48,9.64,15.44,19.2-1.04,9.57-9.64,16.48-19.2,15.44Zm8.76-80.52c-9.57-1.04-16.48-9.64-15.44-19.2s9.64-16.48,19.2-15.44c9.57,1.04,16.48,9.64,15.44,19.2-1.04,9.57-9.64,16.48-19.2,15.44Zm8.76-80.52c-9.57-1.04-16.48-9.64-15.44-19.2s9.64-16.48,19.2-15.44,16.48,9.64,15.44,19.2c-1.04,9.57-9.64,16.48-19.2,15.44Zm8.76-80.52c-9.57-1.04-16.48-9.64-15.44-19.2,1.04-9.57,9.64-16.48,19.2-15.44,9.57,1.04,16.48,9.64,15.44,19.2-1.04,9.57-9.64,16.48-19.2,15.44Z"/></g><g id="change2_1"><path fill="#000000" d="M245.45 62.01L23.63 136.73 18.8 134.9 21.54 130.53 16.71 128.7 19.45 124.33 14.62 122.5 17.36 118.12 12.53 116.3 15.27 111.92 10.44 110.1 13.18 105.72 8.36 103.89 11.09 99.52 6.27 97.69 9 93.32 4.18 91.49 6.91 87.12 2.09 85.29 4.83 80.92 0 79.09 2.74 74.71 224.56 0 229.39 1.83 226.65 6.2 231.47 8.03 228.74 12.4 233.56 14.23 230.83 18.6 235.65 20.43 232.91 24.81 237.74 26.63 235 31.01 239.83 32.83 237.09 37.21 241.92 39.04 239.18 43.41 244.01 45.24 241.27 49.61 246.1 51.44 243.36 55.81 248.18 57.64 245.45 62.01z"/></g></g></g></svg>